<svg width="402" height="262" viewBox="0 0 402 262" fill="none" xmlns="http://www.w3.org/2000/svg">
<path d="M25.6508 201.153L23.4949 193.107C23.0337 191.386 24.0587 189.611 25.7799 189.15L33.8258 186.994C35.547 186.532 36.572 184.757 36.1108 183.036C35.6496 181.315 33.8743 180.29 32.1531 180.751L24.1072 182.907C22.386 183.368 20.6107 182.343 20.1495 180.622L17.9936 172.576C17.5324 170.855 15.757 169.83 14.0358 170.291C12.3146 170.752 11.2896 172.527 11.7508 174.249L13.9067 182.295C14.3679 184.016 13.3429 185.791 11.6217 186.252L3.57584 188.408C1.85464 188.869 0.829644 190.645 1.29084 192.366C1.75203 194.087 3.52739 195.112 5.24858 194.651L13.2945 192.495C15.0157 192.034 16.791 193.059 17.2522 194.78L19.4081 202.826C19.8693 204.547 21.6446 205.572 23.3658 205.111C25.087 204.65 26.112 202.874 25.6508 201.153Z" fill="#005AEE"/>
<path d="M71.1156 85.4556C70.9056 86.5856 69.8256 87.3256 68.6956 87.1156C67.5656 86.9056 66.8256 85.8256 67.0356 84.6956C67.2456 83.5656 68.3256 82.8256 69.4556 83.0356C70.5856 83.2456 71.3256 84.3256 71.1156 85.4556Z" fill="#005AEE"/>
<path d="M87.1855 85.4556C86.9755 86.5856 85.8954 87.3256 84.7654 87.1156C83.6354 86.9056 82.8954 85.8256 83.1054 84.6956C83.3154 83.5656 84.3954 82.8256 85.5254 83.0356C86.6454 83.2456 87.3855 84.3256 87.1855 85.4556Z" fill="#005AEE"/>
<path d="M103.246 85.4556C103.036 86.5856 101.955 87.3256 100.825 87.1156C99.6955 86.9056 98.9555 85.8256 99.1655 84.6956C99.3755 83.5656 100.456 82.8256 101.586 83.0356C102.706 83.2456 103.456 84.3256 103.246 85.4556Z" fill="#005AEE"/>
<path d="M119.306 85.4556C119.096 86.5856 118.016 87.3256 116.886 87.1156C115.756 86.9056 115.016 85.8256 115.226 84.6956C115.436 83.5656 116.516 82.8256 117.646 83.0356C118.766 83.2456 119.516 84.3256 119.306 85.4556Z" fill="#005AEE"/>
<path d="M135.366 85.4556C135.156 86.5856 134.076 87.3256 132.946 87.1156C131.816 86.9056 131.076 85.8256 131.286 84.6956C131.496 83.5656 132.576 82.8256 133.706 83.0356C134.836 83.2456 135.576 84.3256 135.366 85.4556Z" fill="#005AEE"/>
<path d="M71.1156 98.9859C70.9056 100.116 69.8256 100.856 68.6956 100.646C67.5656 100.436 66.8256 99.3559 67.0356 98.2259C67.2456 97.0959 68.3256 96.3559 69.4556 96.5659C70.5856 96.7759 71.3256 97.8559 71.1156 98.9859Z" fill="#005AEE"/>
<path d="M87.1855 98.9859C86.9755 100.116 85.8954 100.856 84.7654 100.646C83.6354 100.436 82.8954 99.3559 83.1054 98.2259C83.3154 97.0959 84.3954 96.3559 85.5254 96.5659C86.6454 96.7759 87.3855 97.8559 87.1855 98.9859Z" fill="#005AEE"/>
<path d="M103.246 98.9859C103.036 100.116 101.955 100.856 100.825 100.646C99.6955 100.436 98.9555 99.3559 99.1655 98.2259C99.3755 97.0959 100.456 96.3559 101.586 96.5659C102.706 96.7759 103.456 97.8559 103.246 98.9859Z" fill="#005AEE"/>
<path d="M119.306 98.9859C119.096 100.116 118.016 100.856 116.886 100.646C115.756 100.436 115.016 99.3559 115.226 98.2259C115.436 97.0959 116.516 96.3559 117.646 96.5659C118.766 96.7759 119.516 97.8559 119.306 98.9859Z" fill="#005AEE"/>
<path d="M135.366 98.9859C135.156 100.116 134.076 100.856 132.946 100.646C131.816 100.436 131.076 99.3559 131.286 98.2259C131.496 97.0959 132.576 96.3559 133.706 96.5659C134.836 96.7759 135.576 97.8559 135.366 98.9859Z" fill="#005AEE"/>
<path d="M71.1156 112.515C70.9056 113.645 69.8256 114.385 68.6956 114.175C67.5656 113.965 66.8256 112.885 67.0356 111.755C67.2456 110.625 68.3256 109.885 69.4556 110.095C70.5856 110.305 71.3256 111.385 71.1156 112.515Z" fill="#005AEE"/>
<path d="M87.1855 112.515C86.9755 113.645 85.8954 114.385 84.7654 114.175C83.6354 113.965 82.8954 112.885 83.1054 111.755C83.3154 110.625 84.3954 109.885 85.5254 110.095C86.6454 110.305 87.3855 111.385 87.1855 112.515Z" fill="#005AEE"/>
<path d="M103.246 112.515C103.036 113.645 101.955 114.385 100.825 114.175C99.6955 113.965 98.9555 112.885 99.1655 111.755C99.3755 110.625 100.456 109.885 101.586 110.095C102.706 110.305 103.456 111.385 103.246 112.515Z" fill="#005AEE"/>
<path d="M119.306 112.515C119.096 113.645 118.016 114.385 116.886 114.175C115.756 113.965 115.016 112.885 115.226 111.755C115.436 110.625 116.516 109.885 117.646 110.095C118.766 110.305 119.516 111.385 119.306 112.515Z" fill="#005AEE"/>
<path d="M135.366 112.515C135.156 113.645 134.076 114.385 132.946 114.175C131.816 113.965 131.076 112.885 131.286 111.755C131.496 110.625 132.576 109.885 133.706 110.095C134.836 110.305 135.576 111.385 135.366 112.515Z" fill="#005AEE"/>
<path d="M71.1156 126.045C70.9056 127.175 69.8256 127.915 68.6956 127.705C67.5656 127.495 66.8256 126.415 67.0356 125.285C67.2456 124.155 68.3256 123.415 69.4556 123.625C70.5856 123.835 71.3256 124.915 71.1156 126.045Z" fill="#005AEE"/>
<path d="M87.1855 126.045C86.9755 127.175 85.8954 127.915 84.7654 127.705C83.6354 127.495 82.8954 126.415 83.1054 125.285C83.3154 124.155 84.3954 123.415 85.5254 123.625C86.6454 123.835 87.3855 124.915 87.1855 126.045Z" fill="#005AEE"/>
<path d="M103.246 126.045C103.036 127.175 101.955 127.915 100.825 127.705C99.6955 127.495 98.9555 126.415 99.1655 125.285C99.3755 124.155 100.456 123.415 101.586 123.625C102.706 123.835 103.456 124.915 103.246 126.045Z" fill="#005AEE"/>
<path d="M119.306 126.045C119.096 127.175 118.016 127.915 116.886 127.705C115.756 127.495 115.016 126.415 115.226 125.285C115.436 124.155 116.516 123.415 117.646 123.625C118.766 123.835 119.516 124.915 119.306 126.045Z" fill="#005AEE"/>
<path d="M135.366 126.045C135.156 127.175 134.076 127.915 132.946 127.705C131.816 127.495 131.076 126.415 131.286 125.285C131.496 124.155 132.576 123.415 133.706 123.625C134.836 123.835 135.576 124.915 135.366 126.045Z" fill="#005AEE"/>
<path d="M71.1156 139.576C70.9056 140.706 69.8256 141.446 68.6956 141.236C67.5656 141.026 66.8256 139.946 67.0356 138.816C67.2456 137.686 68.3256 136.946 69.4556 137.156C70.5856 137.366 71.3256 138.446 71.1156 139.576Z" fill="#005AEE"/>
<path d="M87.1855 139.576C86.9755 140.706 85.8954 141.446 84.7654 141.236C83.6354 141.026 82.8954 139.946 83.1054 138.816C83.3154 137.686 84.3954 136.946 85.5254 137.156C86.6554 137.366 87.3855 138.446 87.1855 139.576Z" fill="#005AEE"/>
<path d="M103.246 139.576C103.036 140.706 101.955 141.446 100.825 141.236C99.6955 141.026 98.9555 139.946 99.1655 138.816C99.3755 137.686 100.456 136.946 101.586 137.156C102.706 137.366 103.456 138.446 103.246 139.576Z" fill="#005AEE"/>
<path d="M119.306 139.576C119.096 140.706 118.016 141.446 116.886 141.236C115.756 141.026 115.016 139.946 115.226 138.816C115.436 137.686 116.516 136.946 117.646 137.156C118.766 137.366 119.516 138.446 119.306 139.576Z" fill="#005AEE"/>
<path d="M135.366 139.576C135.156 140.706 134.076 141.446 132.946 141.236C131.816 141.026 131.076 139.946 131.286 138.816C131.496 137.686 132.576 136.946 133.706 137.156C134.836 137.366 135.576 138.446 135.366 139.576Z" fill="#005AEE"/>
<path d="M71.1156 153.106C70.9056 154.236 69.8256 154.976 68.6956 154.766C67.5656 154.556 66.8256 153.476 67.0356 152.346C67.2456 151.216 68.3256 150.476 69.4556 150.686C70.5856 150.896 71.3256 151.976 71.1156 153.106Z" fill="#005AEE"/>
<path d="M87.1855 153.106C86.9755 154.236 85.8954 154.976 84.7654 154.766C83.6354 154.556 82.8954 153.476 83.1054 152.346C83.3154 151.216 84.3954 150.476 85.5254 150.686C86.6554 150.896 87.3855 151.976 87.1855 153.106Z" fill="#005AEE"/>
<path d="M103.246 153.106C103.036 154.236 101.955 154.976 100.825 154.766C99.6955 154.556 98.9555 153.476 99.1655 152.346C99.3755 151.216 100.456 150.476 101.586 150.686C102.706 150.896 103.456 151.976 103.246 153.106Z" fill="#005AEE"/>
<path d="M119.306 153.106C119.096 154.236 118.016 154.976 116.886 154.766C115.756 154.556 115.016 153.476 115.226 152.346C115.436 151.216 116.516 150.476 117.646 150.686C118.766 150.896 119.516 151.976 119.306 153.106Z" fill="#005AEE"/>
<path d="M135.366 153.106C135.156 154.236 134.076 154.976 132.946 154.766C131.816 154.556 131.076 153.476 131.286 152.346C131.496 151.216 132.576 150.476 133.706 150.686C134.836 150.896 135.576 151.976 135.366 153.106Z" fill="#005AEE"/>
<path d="M71.1156 166.635C70.9056 167.765 69.8256 168.505 68.6956 168.295C67.5656 168.085 66.8256 167.005 67.0356 165.875C67.2456 164.745 68.3256 164.005 69.4556 164.215C70.5856 164.425 71.3256 165.505 71.1156 166.635Z" fill="#005AEE"/>
<path d="M87.1855 166.635C86.9755 167.765 85.8954 168.505 84.7654 168.295C83.6354 168.085 82.8954 167.005 83.1054 165.875C83.3154 164.745 84.3954 164.005 85.5254 164.215C86.6454 164.425 87.3855 165.505 87.1855 166.635Z" fill="#005AEE"/>
<path d="M103.246 166.635C103.036 167.765 101.955 168.505 100.825 168.295C99.6955 168.085 98.9555 167.005 99.1655 165.875C99.3755 164.745 100.456 164.005 101.586 164.215C102.706 164.425 103.456 165.505 103.246 166.635Z" fill="#005AEE"/>
<path d="M119.306 166.635C119.096 167.765 118.016 168.505 116.886 168.295C115.756 168.085 115.016 167.005 115.226 165.875C115.436 164.745 116.516 164.005 117.646 164.215C118.766 164.425 119.516 165.505 119.306 166.635Z" fill="#005AEE"/>
<path d="M135.366 166.635C135.156 167.765 134.076 168.505 132.946 168.295C131.816 168.085 131.076 167.005 131.286 165.875C131.496 164.745 132.576 164.005 133.706 164.215C134.836 164.425 135.576 165.505 135.366 166.635Z" fill="#005AEE"/>
<path d="M71.1156 180.166C70.9056 181.296 69.8256 182.036 68.6956 181.826C67.5656 181.616 66.8256 180.536 67.0356 179.406C67.2456 178.276 68.3256 177.536 69.4556 177.746C70.5856 177.956 71.3256 179.036 71.1156 180.166Z" fill="#005AEE"/>
<path d="M87.1855 180.166C86.9755 181.296 85.8954 182.036 84.7654 181.826C83.6354 181.616 82.8954 180.536 83.1054 179.406C83.3154 178.276 84.3954 177.536 85.5254 177.746C86.6454 177.956 87.3855 179.036 87.1855 180.166Z" fill="#005AEE"/>
<path d="M103.246 180.166C103.036 181.296 101.955 182.036 100.825 181.826C99.6955 181.616 98.9555 180.536 99.1655 179.406C99.3755 178.276 100.456 177.536 101.586 177.746C102.706 177.956 103.456 179.036 103.246 180.166Z" fill="#005AEE"/>
<path d="M119.306 180.166C119.096 181.296 118.016 182.036 116.886 181.826C115.756 181.616 115.016 180.536 115.226 179.406C115.436 178.276 116.516 177.536 117.646 177.746C118.766 177.956 119.516 179.036 119.306 180.166Z" fill="#005AEE"/>
<path d="M135.366 180.166C135.156 181.296 134.076 182.036 132.946 181.826C131.816 181.616 131.076 180.536 131.286 179.406C131.496 178.276 132.576 177.536 133.706 177.746C134.836 177.956 135.576 179.036 135.366 180.166Z" fill="#005AEE"/>
<path d="M71.1156 193.696C70.9056 194.826 69.8256 195.566 68.6956 195.356C67.5656 195.146 66.8256 194.066 67.0356 192.936C67.2456 191.806 68.3256 191.066 69.4556 191.276C70.5856 191.486 71.3256 192.566 71.1156 193.696Z" fill="#005AEE"/>
<path d="M87.1855 193.696C86.9755 194.826 85.8954 195.566 84.7654 195.356C83.6354 195.146 82.8954 194.066 83.1054 192.936C83.3154 191.806 84.3954 191.066 85.5254 191.276C86.6454 191.486 87.3855 192.566 87.1855 193.696Z" fill="#005AEE"/>
<path d="M103.246 193.696C103.036 194.826 101.955 195.566 100.825 195.356C99.6955 195.146 98.9555 194.066 99.1655 192.936C99.3755 191.806 100.456 191.066 101.586 191.276C102.706 191.486 103.456 192.566 103.246 193.696Z" fill="#005AEE"/>
<path d="M119.306 193.696C119.096 194.826 118.016 195.566 116.886 195.356C115.756 195.146 115.016 194.066 115.226 192.936C115.436 191.806 116.516 191.066 117.646 191.276C118.766 191.486 119.516 192.566 119.306 193.696Z" fill="#005AEE"/>
<path d="M135.366 193.696C135.156 194.826 134.076 195.566 132.946 195.356C131.816 195.146 131.076 194.066 131.286 192.936C131.496 191.806 132.576 191.066 133.706 191.276C134.836 191.486 135.576 192.566 135.366 193.696Z" fill="#005AEE"/>
<path d="M71.1156 207.225C70.9056 208.355 69.8256 209.095 68.6956 208.885C67.5656 208.675 66.8256 207.595 67.0356 206.465C67.2456 205.335 68.3256 204.595 69.4556 204.805C70.5856 205.015 71.3256 206.095 71.1156 207.225Z" fill="#005AEE"/>
<path d="M87.1855 207.225C86.9755 208.355 85.8954 209.095 84.7654 208.885C83.6354 208.675 82.8954 207.595 83.1054 206.465C83.3154 205.335 84.3954 204.595 85.5254 204.805C86.6454 205.015 87.3855 206.095 87.1855 207.225Z" fill="#005AEE"/>
<path d="M103.246 207.225C103.036 208.355 101.955 209.095 100.825 208.885C99.6955 208.675 98.9555 207.595 99.1655 206.465C99.3755 205.335 100.456 204.595 101.586 204.805C102.706 205.015 103.456 206.095 103.246 207.225Z" fill="#005AEE"/>
<path d="M119.306 207.225C119.096 208.355 118.016 209.095 116.886 208.885C115.756 208.675 115.016 207.595 115.226 206.465C115.436 205.335 116.516 204.595 117.646 204.805C118.766 205.015 119.516 206.095 119.306 207.225Z" fill="#005AEE"/>
<path d="M135.366 207.225C135.156 208.355 134.076 209.095 132.946 208.885C131.816 208.675 131.076 207.595 131.286 206.465C131.496 205.335 132.576 204.595 133.706 204.805C134.836 205.015 135.576 206.095 135.366 207.225Z" fill="#005AEE"/>
<path d="M71.1156 220.755C70.9056 221.885 69.8256 222.625 68.6956 222.415C67.5656 222.205 66.8256 221.125 67.0356 219.995C67.2456 218.865 68.3256 218.125 69.4556 218.335C70.5856 218.545 71.3256 219.625 71.1156 220.755Z" fill="#005AEE"/>
<path d="M87.1855 220.755C86.9755 221.885 85.8954 222.625 84.7654 222.415C83.6354 222.205 82.8954 221.125 83.1054 219.995C83.3154 218.865 84.3954 218.125 85.5254 218.335C86.6454 218.545 87.3855 219.625 87.1855 220.755Z" fill="#005AEE"/>
<path d="M103.246 220.755C103.036 221.885 101.955 222.625 100.825 222.415C99.6955 222.205 98.9555 221.125 99.1655 219.995C99.3755 218.865 100.456 218.125 101.586 218.335C102.706 218.545 103.456 219.625 103.246 220.755Z" fill="#005AEE"/>
<path d="M119.306 220.755C119.096 221.885 118.016 222.625 116.886 222.415C115.756 222.205 115.016 221.125 115.226 219.995C115.436 218.865 116.516 218.125 117.646 218.335C118.766 218.545 119.516 219.625 119.306 220.755Z" fill="#005AEE"/>
<path d="M135.366 220.755C135.156 221.885 134.076 222.625 132.946 222.415C131.816 222.205 131.076 221.125 131.286 219.995C131.496 218.865 132.576 218.125 133.706 218.335C134.836 218.545 135.576 219.625 135.366 220.755Z" fill="#005AEE"/>
<path d="M151.116 85.4556C150.906 86.5856 149.826 87.3256 148.696 87.1156C147.566 86.9056 146.826 85.8256 147.036 84.6956C147.246 83.5656 148.326 82.8256 149.456 83.0356C150.586 83.2456 151.326 84.3256 151.116 85.4556Z" fill="#005AEE"/>
<path d="M167.185 85.4556C166.975 86.5856 165.895 87.3256 164.765 87.1156C163.635 86.9056 162.895 85.8256 163.105 84.6956C163.315 83.5656 164.395 82.8256 165.525 83.0356C166.645 83.2456 167.385 84.3256 167.185 85.4556Z" fill="#005AEE"/>
<path d="M183.246 85.4556C183.036 86.5856 181.955 87.3256 180.825 87.1156C179.695 86.9056 178.955 85.8256 179.165 84.6956C179.375 83.5656 180.456 82.8256 181.586 83.0356C182.706 83.2456 183.456 84.3256 183.246 85.4556Z" fill="#005AEE"/>
<path d="M199.306 85.4556C199.096 86.5856 198.016 87.3256 196.886 87.1156C195.756 86.9056 195.016 85.8256 195.226 84.6956C195.436 83.5656 196.516 82.8256 197.646 83.0356C198.766 83.2456 199.516 84.3256 199.306 85.4556Z" fill="#005AEE"/>
<path d="M215.366 85.4556C215.156 86.5856 214.076 87.3256 212.946 87.1156C211.816 86.9056 211.076 85.8256 211.286 84.6956C211.496 83.5656 212.576 82.8256 213.706 83.0356C214.836 83.2456 215.576 84.3256 215.366 85.4556Z" fill="#005AEE"/>
<path d="M151.116 98.9859C150.906 100.116 149.826 100.856 148.696 100.646C147.566 100.436 146.826 99.3559 147.036 98.2259C147.246 97.0959 148.326 96.3559 149.456 96.5659C150.586 96.7759 151.326 97.8559 151.116 98.9859Z" fill="#005AEE"/>
<path d="M167.185 98.9859C166.975 100.116 165.895 100.856 164.765 100.646C163.635 100.436 162.895 99.3559 163.105 98.2259C163.315 97.0959 164.395 96.3559 165.525 96.5659C166.645 96.7759 167.385 97.8559 167.185 98.9859Z" fill="#005AEE"/>
<path d="M183.246 98.9859C183.036 100.116 181.955 100.856 180.825 100.646C179.695 100.436 178.955 99.3559 179.165 98.2259C179.375 97.0959 180.456 96.3559 181.586 96.5659C182.706 96.7759 183.456 97.8559 183.246 98.9859Z" fill="#005AEE"/>
<path d="M199.306 98.9859C199.096 100.116 198.016 100.856 196.886 100.646C195.756 100.436 195.016 99.3559 195.226 98.2259C195.436 97.0959 196.516 96.3559 197.646 96.5659C198.766 96.7759 199.516 97.8559 199.306 98.9859Z" fill="#005AEE"/>
<path d="M215.366 98.9859C215.156 100.116 214.076 100.856 212.946 100.646C211.816 100.436 211.076 99.3559 211.286 98.2259C211.496 97.0959 212.576 96.3559 213.706 96.5659C214.836 96.7759 215.576 97.8559 215.366 98.9859Z" fill="#005AEE"/>
<path d="M151.116 112.515C150.906 113.645 149.826 114.385 148.696 114.175C147.566 113.965 146.826 112.885 147.036 111.755C147.246 110.625 148.326 109.885 149.456 110.095C150.586 110.305 151.326 111.385 151.116 112.515Z" fill="#005AEE"/>
<path d="M167.185 112.515C166.975 113.645 165.895 114.385 164.765 114.175C163.635 113.965 162.895 112.885 163.105 111.755C163.315 110.625 164.395 109.885 165.525 110.095C166.645 110.305 167.385 111.385 167.185 112.515Z" fill="#005AEE"/>
<path d="M183.246 112.515C183.036 113.645 181.955 114.385 180.825 114.175C179.695 113.965 178.955 112.885 179.165 111.755C179.375 110.625 180.456 109.885 181.586 110.095C182.706 110.305 183.456 111.385 183.246 112.515Z" fill="#005AEE"/>
<path d="M199.306 112.515C199.096 113.645 198.016 114.385 196.886 114.175C195.756 113.965 195.016 112.885 195.226 111.755C195.436 110.625 196.516 109.885 197.646 110.095C198.766 110.305 199.516 111.385 199.306 112.515Z" fill="#005AEE"/>
<path d="M215.366 112.515C215.156 113.645 214.076 114.385 212.946 114.175C211.816 113.965 211.076 112.885 211.286 111.755C211.496 110.625 212.576 109.885 213.706 110.095C214.836 110.305 215.576 111.385 215.366 112.515Z" fill="#005AEE"/>
<path d="M151.116 126.045C150.906 127.175 149.826 127.915 148.696 127.705C147.566 127.495 146.826 126.415 147.036 125.285C147.246 124.155 148.326 123.415 149.456 123.625C150.586 123.835 151.326 124.915 151.116 126.045Z" fill="#005AEE"/>
<path d="M167.185 126.045C166.975 127.175 165.895 127.915 164.765 127.705C163.635 127.495 162.895 126.415 163.105 125.285C163.315 124.155 164.395 123.415 165.525 123.625C166.645 123.835 167.385 124.915 167.185 126.045Z" fill="#005AEE"/>
<path d="M183.246 126.045C183.036 127.175 181.955 127.915 180.825 127.705C179.695 127.495 178.955 126.415 179.165 125.285C179.375 124.155 180.456 123.415 181.586 123.625C182.706 123.835 183.456 124.915 183.246 126.045Z" fill="#005AEE"/>
<path d="M199.306 126.045C199.096 127.175 198.016 127.915 196.886 127.705C195.756 127.495 195.016 126.415 195.226 125.285C195.436 124.155 196.516 123.415 197.646 123.625C198.766 123.835 199.516 124.915 199.306 126.045Z" fill="#005AEE"/>
<path d="M215.366 126.045C215.156 127.175 214.076 127.915 212.946 127.705C211.816 127.495 211.076 126.415 211.286 125.285C211.496 124.155 212.576 123.415 213.706 123.625C214.836 123.835 215.576 124.915 215.366 126.045Z" fill="#005AEE"/>
<path d="M151.116 139.576C150.906 140.706 149.826 141.446 148.696 141.236C147.566 141.026 146.826 139.946 147.036 138.816C147.246 137.686 148.326 136.946 149.456 137.156C150.586 137.366 151.326 138.446 151.116 139.576Z" fill="#005AEE"/>
<path d="M167.185 139.576C166.975 140.706 165.895 141.446 164.765 141.236C163.635 141.026 162.895 139.946 163.105 138.816C163.315 137.686 164.395 136.946 165.525 137.156C166.655 137.366 167.385 138.446 167.185 139.576Z" fill="#005AEE"/>
<path d="M183.246 139.576C183.036 140.706 181.955 141.446 180.825 141.236C179.695 141.026 178.955 139.946 179.165 138.816C179.375 137.686 180.456 136.946 181.586 137.156C182.706 137.366 183.456 138.446 183.246 139.576Z" fill="#005AEE"/>
<path d="M199.306 139.576C199.096 140.706 198.016 141.446 196.886 141.236C195.756 141.026 195.016 139.946 195.226 138.816C195.436 137.686 196.516 136.946 197.646 137.156C198.766 137.366 199.516 138.446 199.306 139.576Z" fill="#005AEE"/>
<path d="M215.366 139.576C215.156 140.706 214.076 141.446 212.946 141.236C211.816 141.026 211.076 139.946 211.286 138.816C211.496 137.686 212.576 136.946 213.706 137.156C214.836 137.366 215.576 138.446 215.366 139.576Z" fill="#005AEE"/>
<path d="M151.116 153.106C150.906 154.236 149.826 154.976 148.696 154.766C147.566 154.556 146.826 153.476 147.036 152.346C147.246 151.216 148.326 150.476 149.456 150.686C150.586 150.896 151.326 151.976 151.116 153.106Z" fill="#005AEE"/>
<path d="M167.185 153.106C166.975 154.236 165.895 154.976 164.765 154.766C163.635 154.556 162.895 153.476 163.105 152.346C163.315 151.216 164.395 150.476 165.525 150.686C166.655 150.896 167.385 151.976 167.185 153.106Z" fill="#005AEE"/>
<path d="M183.246 153.106C183.036 154.236 181.955 154.976 180.825 154.766C179.695 154.556 178.955 153.476 179.165 152.346C179.375 151.216 180.456 150.476 181.586 150.686C182.706 150.896 183.456 151.976 183.246 153.106Z" fill="#005AEE"/>
<path d="M199.306 153.106C199.096 154.236 198.016 154.976 196.886 154.766C195.756 154.556 195.016 153.476 195.226 152.346C195.436 151.216 196.516 150.476 197.646 150.686C198.766 150.896 199.516 151.976 199.306 153.106Z" fill="#005AEE"/>
<path d="M215.366 153.106C215.156 154.236 214.076 154.976 212.946 154.766C211.816 154.556 211.076 153.476 211.286 152.346C211.496 151.216 212.576 150.476 213.706 150.686C214.836 150.896 215.576 151.976 215.366 153.106Z" fill="#005AEE"/>
<path d="M151.116 166.635C150.906 167.765 149.826 168.505 148.696 168.295C147.566 168.085 146.826 167.005 147.036 165.875C147.246 164.745 148.326 164.005 149.456 164.215C150.586 164.425 151.326 165.505 151.116 166.635Z" fill="#005AEE"/>
<path d="M167.185 166.635C166.975 167.765 165.895 168.505 164.765 168.295C163.635 168.085 162.895 167.005 163.105 165.875C163.315 164.745 164.395 164.005 165.525 164.215C166.645 164.425 167.385 165.505 167.185 166.635Z" fill="#005AEE"/>
<path d="M183.246 166.635C183.036 167.765 181.955 168.505 180.825 168.295C179.695 168.085 178.955 167.005 179.165 165.875C179.375 164.745 180.456 164.005 181.586 164.215C182.706 164.425 183.456 165.505 183.246 166.635Z" fill="#005AEE"/>
<path d="M199.306 166.635C199.096 167.765 198.016 168.505 196.886 168.295C195.756 168.085 195.016 167.005 195.226 165.875C195.436 164.745 196.516 164.005 197.646 164.215C198.766 164.425 199.516 165.505 199.306 166.635Z" fill="#005AEE"/>
<path d="M215.366 166.635C215.156 167.765 214.076 168.505 212.946 168.295C211.816 168.085 211.076 167.005 211.286 165.875C211.496 164.745 212.576 164.005 213.706 164.215C214.836 164.425 215.576 165.505 215.366 166.635Z" fill="#005AEE"/>
<path d="M151.116 180.166C150.906 181.296 149.826 182.036 148.696 181.826C147.566 181.616 146.826 180.536 147.036 179.406C147.246 178.276 148.326 177.536 149.456 177.746C150.586 177.956 151.326 179.036 151.116 180.166Z" fill="#005AEE"/>
<path d="M167.185 180.166C166.975 181.296 165.895 182.036 164.765 181.826C163.635 181.616 162.895 180.536 163.105 179.406C163.315 178.276 164.395 177.536 165.525 177.746C166.645 177.956 167.385 179.036 167.185 180.166Z" fill="#005AEE"/>
<path d="M183.246 180.166C183.036 181.296 181.955 182.036 180.825 181.826C179.695 181.616 178.955 180.536 179.165 179.406C179.375 178.276 180.456 177.536 181.586 177.746C182.706 177.956 183.456 179.036 183.246 180.166Z" fill="#005AEE"/>
<path d="M199.306 180.166C199.096 181.296 198.016 182.036 196.886 181.826C195.756 181.616 195.016 180.536 195.226 179.406C195.436 178.276 196.516 177.536 197.646 177.746C198.766 177.956 199.516 179.036 199.306 180.166Z" fill="#005AEE"/>
<path d="M215.366 180.166C215.156 181.296 214.076 182.036 212.946 181.826C211.816 181.616 211.076 180.536 211.286 179.406C211.496 178.276 212.576 177.536 213.706 177.746C214.836 177.956 215.576 179.036 215.366 180.166Z" fill="#005AEE"/>
<path d="M151.116 193.696C150.906 194.826 149.826 195.566 148.696 195.356C147.566 195.146 146.826 194.066 147.036 192.936C147.246 191.806 148.326 191.066 149.456 191.276C150.586 191.486 151.326 192.566 151.116 193.696Z" fill="#005AEE"/>
<path d="M167.185 193.696C166.975 194.826 165.895 195.566 164.765 195.356C163.635 195.146 162.895 194.066 163.105 192.936C163.315 191.806 164.395 191.066 165.525 191.276C166.645 191.486 167.385 192.566 167.185 193.696Z" fill="#005AEE"/>
<path d="M183.246 193.696C183.036 194.826 181.955 195.566 180.825 195.356C179.695 195.146 178.955 194.066 179.165 192.936C179.375 191.806 180.456 191.066 181.586 191.276C182.706 191.486 183.456 192.566 183.246 193.696Z" fill="#005AEE"/>
<path d="M199.306 193.696C199.096 194.826 198.016 195.566 196.886 195.356C195.756 195.146 195.016 194.066 195.226 192.936C195.436 191.806 196.516 191.066 197.646 191.276C198.766 191.486 199.516 192.566 199.306 193.696Z" fill="#005AEE"/>
<path d="M215.366 193.696C215.156 194.826 214.076 195.566 212.946 195.356C211.816 195.146 211.076 194.066 211.286 192.936C211.496 191.806 212.576 191.066 213.706 191.276C214.836 191.486 215.576 192.566 215.366 193.696Z" fill="#005AEE"/>
<path d="M151.116 207.225C150.906 208.355 149.826 209.095 148.696 208.885C147.566 208.675 146.826 207.595 147.036 206.465C147.246 205.335 148.326 204.595 149.456 204.805C150.586 205.015 151.326 206.095 151.116 207.225Z" fill="#005AEE"/>
<path d="M167.185 207.225C166.975 208.355 165.895 209.095 164.765 208.885C163.635 208.675 162.895 207.595 163.105 206.465C163.315 205.335 164.395 204.595 165.525 204.805C166.645 205.015 167.385 206.095 167.185 207.225Z" fill="#005AEE"/>
<path d="M183.246 207.225C183.036 208.355 181.955 209.095 180.825 208.885C179.695 208.675 178.955 207.595 179.165 206.465C179.375 205.335 180.456 204.595 181.586 204.805C182.706 205.015 183.456 206.095 183.246 207.225Z" fill="#005AEE"/>
<path d="M199.306 207.225C199.096 208.355 198.016 209.095 196.886 208.885C195.756 208.675 195.016 207.595 195.226 206.465C195.436 205.335 196.516 204.595 197.646 204.805C198.766 205.015 199.516 206.095 199.306 207.225Z" fill="#005AEE"/>
<path d="M215.366 207.225C215.156 208.355 214.076 209.095 212.946 208.885C211.816 208.675 211.076 207.595 211.286 206.465C211.496 205.335 212.576 204.595 213.706 204.805C214.836 205.015 215.576 206.095 215.366 207.225Z" fill="#005AEE"/>
<path d="M151.116 220.755C150.906 221.885 149.826 222.625 148.696 222.415C147.566 222.205 146.826 221.125 147.036 219.995C147.246 218.865 148.326 218.125 149.456 218.335C150.586 218.545 151.326 219.625 151.116 220.755Z" fill="#005AEE"/>
<path d="M167.185 220.755C166.975 221.885 165.895 222.625 164.765 222.415C163.635 222.205 162.895 221.125 163.105 219.995C163.315 218.865 164.395 218.125 165.525 218.335C166.645 218.545 167.385 219.625 167.185 220.755Z" fill="#005AEE"/>
<path d="M183.246 220.755C183.036 221.885 181.955 222.625 180.825 222.415C179.695 222.205 178.955 221.125 179.165 219.995C179.375 218.865 180.456 218.125 181.586 218.335C182.706 218.545 183.456 219.625 183.246 220.755Z" fill="#005AEE"/>
<path d="M199.306 220.755C199.096 221.885 198.016 222.625 196.886 222.415C195.756 222.205 195.016 221.125 195.226 219.995C195.436 218.865 196.516 218.125 197.646 218.335C198.766 218.545 199.516 219.625 199.306 220.755Z" fill="#005AEE"/>
<path d="M215.366 220.755C215.156 221.885 214.076 222.625 212.946 222.415C211.816 222.205 211.076 221.125 211.286 219.995C211.496 218.865 212.576 218.125 213.706 218.335C214.836 218.545 215.576 219.625 215.366 220.755Z" fill="#005AEE"/>
<g filter="url(#filter0_d_380_452)">
<rect x="87" y="35" width="270.495" height="174.217" rx="6.877" fill="white"/>
</g>
<path d="M306.456 67.6328H303.626V58.4635H306.581C307.47 58.4635 308.232 58.647 308.864 59.0142C309.497 59.3783 309.982 59.9022 310.319 60.5857C310.657 61.2662 310.825 62.0811 310.825 63.0302C310.825 63.9854 310.655 64.8077 310.315 65.4972C309.975 66.1837 309.479 66.712 308.828 67.0821C308.178 67.4492 307.387 67.6328 306.456 67.6328ZM304.736 66.6478H306.384C307.142 66.6478 307.77 66.5016 308.269 66.2091C308.767 65.9165 309.139 65.5002 309.384 64.9599C309.628 64.4197 309.751 63.7764 309.751 63.0302C309.751 62.29 309.63 61.6527 309.388 61.1185C309.146 60.5812 308.785 60.1693 308.305 59.8828C307.824 59.5932 307.226 59.4485 306.509 59.4485H304.736V66.6478ZM314.568 67.794C314.133 67.794 313.737 67.7119 313.382 67.5477C313.027 67.3806 312.745 67.1403 312.536 66.8269C312.327 66.5105 312.222 66.1285 312.222 65.6807C312.222 65.2868 312.3 64.9674 312.455 64.7226C312.61 64.4749 312.818 64.2809 313.077 64.1406C313.337 64.0003 313.624 63.8958 313.937 63.8272C314.253 63.7555 314.571 63.6988 314.891 63.657C315.309 63.6033 315.647 63.563 315.907 63.5362C316.17 63.5063 316.361 63.4571 316.48 63.3884C316.602 63.3198 316.664 63.2004 316.664 63.0302V62.9944C316.664 62.5527 316.543 62.2094 316.301 61.9647C316.062 61.7199 315.7 61.5975 315.213 61.5975C314.709 61.5975 314.313 61.708 314.027 61.9288C313.74 62.1497 313.539 62.3855 313.422 62.6362L312.419 62.2781C312.598 61.8602 312.837 61.5348 313.136 61.302C313.437 61.0662 313.765 60.9021 314.121 60.8095C314.479 60.714 314.831 60.6663 315.177 60.6663C315.398 60.6663 315.652 60.6931 315.938 60.7469C316.228 60.7976 316.507 60.9036 316.776 61.0647C317.047 61.2259 317.273 61.4692 317.452 61.7945C317.631 62.1199 317.72 62.5557 317.72 63.1019V67.6328H316.664V66.7016H316.61C316.538 66.8508 316.419 67.0105 316.252 67.1806C316.085 67.3507 315.862 67.4955 315.585 67.6149C315.307 67.7343 314.968 67.794 314.568 67.794ZM314.729 66.8448C315.147 66.8448 315.5 66.7627 315.786 66.5986C316.076 66.4344 316.294 66.2225 316.44 65.9628C316.589 65.7031 316.664 65.43 316.664 65.1435V64.1764C316.619 64.2301 316.52 64.2794 316.368 64.3242C316.219 64.3659 316.046 64.4032 315.849 64.4361C315.655 64.4659 315.465 64.4928 315.28 64.5167C315.098 64.5376 314.95 64.5555 314.837 64.5704C314.562 64.6062 314.306 64.6644 314.067 64.745C313.831 64.8226 313.64 64.9405 313.494 65.0987C313.35 65.2539 313.279 65.4658 313.279 65.7345C313.279 66.1016 313.415 66.3792 313.686 66.5672C313.961 66.7523 314.309 66.8448 314.729 66.8448ZM319.649 67.6328V60.7558H320.705V67.6328H319.649ZM320.186 59.6096C319.98 59.6096 319.803 59.5395 319.653 59.3992C319.507 59.2589 319.434 59.0903 319.434 58.8933C319.434 58.6963 319.507 58.5277 319.653 58.3874C319.803 58.2471 319.98 58.1769 320.186 58.1769C320.392 58.1769 320.568 58.2471 320.714 58.3874C320.864 58.5277 320.938 58.6963 320.938 58.8933C320.938 59.0903 320.864 59.2589 320.714 59.3992C320.568 59.5395 320.392 59.6096 320.186 59.6096ZM323.697 58.4635V67.6328H322.641V58.4635H323.697ZM326.313 70.2117C326.134 70.2117 325.974 70.1968 325.834 70.1669C325.694 70.1401 325.597 70.1132 325.543 70.0863L325.812 69.1551C326.068 69.2207 326.295 69.2446 326.492 69.2267C326.689 69.2088 326.864 69.1207 327.016 68.9625C327.171 68.8073 327.313 68.5551 327.441 68.2059L327.638 67.6686L325.095 60.7558H326.241L328.14 66.2359H328.211L330.11 60.7558H331.256L328.337 68.6357C328.206 68.9909 328.043 69.2849 327.849 69.5177C327.655 69.7535 327.429 69.9281 327.173 70.0416C326.919 70.155 326.633 70.2117 326.313 70.2117Z" fill="#5D6180"/>
<path d="M106.53 69.6328V57.9628H111.134C112.015 57.9628 112.768 58.1204 113.391 58.4357C114.017 58.7472 114.494 59.1898 114.821 59.7634C115.151 60.3332 115.317 61.0037 115.317 61.7749C115.317 62.5499 115.15 63.2166 114.815 63.775C114.481 64.3296 113.997 64.7551 113.362 65.0514C112.732 65.3477 111.968 65.4959 111.071 65.4959H107.989V63.5129H110.673C111.144 63.5129 111.535 63.4483 111.846 63.3191C112.158 63.19 112.39 62.9962 112.542 62.7379C112.697 62.4796 112.775 62.1586 112.775 61.7749C112.775 61.3874 112.697 61.0607 112.542 60.7948C112.39 60.5289 112.156 60.3275 111.841 60.1908C111.529 60.0502 111.136 59.9799 110.661 59.9799H108.997V69.6328H106.53ZM112.832 64.322L115.733 69.6328H113.009L110.171 64.322H112.832ZM120.862 69.8038C119.962 69.8038 119.187 69.6214 118.538 69.2567C117.892 68.8882 117.394 68.3678 117.045 67.6954C116.695 67.0192 116.52 66.2195 116.52 65.2964C116.52 64.3961 116.695 63.6059 117.045 62.9259C117.394 62.246 117.886 61.716 118.521 61.3361C119.159 60.9562 119.907 60.7663 120.766 60.7663C121.343 60.7663 121.881 60.8594 122.378 61.0455C122.88 61.2279 123.317 61.5033 123.689 61.8718C124.065 62.2403 124.357 62.7037 124.566 63.2621C124.775 63.8168 124.88 64.4664 124.88 65.211V65.8777H117.489V64.3733H122.595C122.595 64.0238 122.519 63.7142 122.367 63.4445C122.215 63.1748 122.004 62.9639 121.734 62.812C121.468 62.6562 121.159 62.5784 120.806 62.5784C120.437 62.5784 120.11 62.6638 119.825 62.8348C119.544 63.0019 119.324 63.228 119.164 63.5129C119.005 63.794 118.923 64.1074 118.919 64.4531V65.8833C118.919 66.3164 118.999 66.6906 119.159 67.0059C119.322 67.3212 119.552 67.5643 119.848 67.7353C120.145 67.9062 120.496 67.9917 120.902 67.9917C121.172 67.9917 121.419 67.9537 121.643 67.8777C121.867 67.8018 122.059 67.6878 122.219 67.5358C122.378 67.3839 122.5 67.1978 122.583 66.9774L124.828 67.1256C124.715 67.665 124.481 68.1361 124.128 68.5387C123.778 68.9376 123.326 69.2491 122.771 69.4733C122.221 69.6936 121.584 69.8038 120.862 69.8038ZM134.389 60.8803L131.329 69.6328H128.594L125.534 60.8803H128.098L129.916 67.1427H130.007L131.819 60.8803H134.389ZM139.338 69.8038C138.437 69.8038 137.662 69.6214 137.013 69.2567C136.367 68.8882 135.869 68.3678 135.52 67.6954C135.17 67.0192 134.996 66.2195 134.996 65.2964C134.996 64.3961 135.17 63.6059 135.52 62.9259C135.869 62.246 136.361 61.716 136.996 61.3361C137.634 60.9562 138.382 60.7663 139.241 60.7663C139.818 60.7663 140.356 60.8594 140.853 61.0455C141.355 61.2279 141.792 61.5033 142.164 61.8718C142.54 62.2403 142.833 62.7037 143.042 63.2621C143.251 63.8168 143.355 64.4664 143.355 65.211V65.8777H135.964V64.3733H141.07C141.07 64.0238 140.994 63.7142 140.842 63.4445C140.69 63.1748 140.479 62.9639 140.21 62.812C139.944 62.6562 139.634 62.5784 139.281 62.5784C138.912 62.5784 138.586 62.6638 138.301 62.8348C138.02 63.0019 137.799 63.228 137.64 63.5129C137.48 63.794 137.398 64.1074 137.395 64.4531V65.8833C137.395 66.3164 137.474 66.6906 137.634 67.0059C137.797 67.3212 138.027 67.5643 138.323 67.7353C138.62 67.9062 138.971 67.9917 139.378 67.9917C139.647 67.9917 139.894 67.9537 140.118 67.8777C140.343 67.8018 140.534 67.6878 140.694 67.5358C140.853 67.3839 140.975 67.1978 141.059 66.9774L143.304 67.1256C143.19 67.665 142.956 68.1361 142.603 68.5387C142.253 68.9376 141.801 69.2491 141.247 69.4733C140.696 69.6936 140.059 69.8038 139.338 69.8038ZM147.367 64.5727V69.6328H144.939V60.8803H147.253V62.4245H147.355C147.549 61.9155 147.874 61.5128 148.33 61.2165C148.785 60.9164 149.338 60.7663 149.988 60.7663C150.596 60.7663 151.126 60.8993 151.578 61.1652C152.03 61.4311 152.381 61.811 152.632 62.3048C152.883 62.7949 153.008 63.3799 153.008 64.0599V69.6328H150.58V64.493C150.584 63.9573 150.447 63.5395 150.17 63.2394C149.893 62.9354 149.511 62.7835 149.025 62.7835C148.698 62.7835 148.409 62.8538 148.159 62.9943C147.912 63.1349 147.718 63.34 147.577 63.6097C147.441 63.8757 147.37 64.1967 147.367 64.5727ZM160.534 65.9061V60.8803H162.961V69.6328H160.631V68.043H160.54C160.342 68.5558 160.013 68.968 159.554 69.2795C159.098 69.591 158.541 69.7468 157.884 69.7468C157.299 69.7468 156.784 69.6138 156.34 69.3479C155.895 69.082 155.548 68.704 155.297 68.2139C155.05 67.7239 154.925 67.137 154.921 66.4532V60.8803H157.349V66.0201C157.352 66.5368 157.491 66.9451 157.765 67.2452C158.038 67.5453 158.405 67.6954 158.864 67.6954C159.157 67.6954 159.43 67.6289 159.685 67.496C159.939 67.3592 160.144 67.1579 160.3 66.8919C160.46 66.626 160.538 66.2974 160.534 65.9061ZM168.892 69.8038C167.991 69.8038 167.217 69.6214 166.567 69.2567C165.921 68.8882 165.423 68.3678 165.074 67.6954C164.724 67.0192 164.55 66.2195 164.55 65.2964C164.55 64.3961 164.724 63.6059 165.074 62.9259C165.423 62.246 165.915 61.716 166.55 61.3361C167.188 60.9562 167.936 60.7663 168.795 60.7663C169.372 60.7663 169.91 60.8594 170.408 61.0455C170.909 61.2279 171.346 61.5033 171.718 61.8718C172.094 62.2403 172.387 62.7037 172.596 63.2621C172.805 63.8168 172.909 64.4664 172.909 65.211V65.8777H165.518V64.3733H170.624C170.624 64.0238 170.548 63.7142 170.396 63.4445C170.244 63.1748 170.033 62.9639 169.764 62.812C169.498 62.6562 169.188 62.5784 168.835 62.5784C168.466 62.5784 168.14 62.6638 167.855 62.8348C167.574 63.0019 167.353 63.228 167.194 63.5129C167.034 63.794 166.952 64.1074 166.949 64.4531V65.8833C166.949 66.3164 167.028 66.6906 167.188 67.0059C167.351 67.3212 167.581 67.5643 167.878 67.7353C168.174 67.9062 168.525 67.9917 168.932 67.9917C169.201 67.9917 169.448 67.9537 169.672 67.8777C169.897 67.8018 170.088 67.6878 170.248 67.5358C170.408 67.3839 170.529 67.1978 170.613 66.9774L172.858 67.1256C172.744 67.665 172.51 68.1361 172.157 68.5387C171.807 68.9376 171.355 69.2491 170.801 69.4733C170.25 69.6936 169.614 69.8038 168.892 69.8038ZM185.991 61.735C185.911 61.4577 185.799 61.2127 185.655 60.9999C185.51 60.7834 185.334 60.6011 185.125 60.4529C184.92 60.3009 184.684 60.1851 184.418 60.1053C184.156 60.0255 183.865 59.9856 183.546 59.9856C182.95 59.9856 182.426 60.1338 181.974 60.4301C181.525 60.7264 181.176 61.1576 180.925 61.7236C180.674 62.2858 180.549 62.9734 180.549 63.7864C180.549 64.5993 180.673 65.2907 180.919 65.8606C181.166 66.4304 181.516 66.8654 181.968 67.1655C182.42 67.4618 182.954 67.6099 183.569 67.6099C184.128 67.6099 184.604 67.5112 184.999 67.3136C185.398 67.1123 185.702 66.8293 185.911 66.4646C186.124 66.0999 186.23 65.6687 186.23 65.1711L186.732 65.2451H183.723V63.3875H188.606V64.8577C188.606 65.8833 188.39 66.7647 187.957 67.5017C187.524 68.2348 186.927 68.8009 186.168 69.1997C185.408 69.5948 184.538 69.7924 183.558 69.7924C182.464 69.7924 181.503 69.5511 180.674 69.0687C179.846 68.5824 179.2 67.8929 178.737 67.0002C178.277 66.1037 178.048 65.04 178.048 63.8092C178.048 62.8633 178.184 62.0199 178.458 61.2791C178.735 60.5346 179.123 59.904 179.62 59.3873C180.118 58.8707 180.697 58.4775 181.358 58.2078C182.019 57.9381 182.735 57.8032 183.506 57.8032C184.167 57.8032 184.783 57.9001 185.353 58.0938C185.923 58.2838 186.428 58.5535 186.868 58.903C187.313 59.2525 187.676 59.6684 187.957 60.1509C188.238 60.6295 188.418 61.1576 188.498 61.735H185.991ZM190.414 69.6328V60.8803H192.768V62.4074H192.859C193.018 61.8642 193.286 61.4539 193.662 61.1766C194.038 60.8955 194.471 60.7549 194.961 60.7549C195.083 60.7549 195.214 60.7625 195.355 60.7777C195.495 60.7929 195.619 60.8138 195.725 60.8404V62.9943C195.611 62.9601 195.453 62.9297 195.252 62.9032C195.051 62.8766 194.866 62.8633 194.699 62.8633C194.342 62.8633 194.023 62.9411 193.742 63.0969C193.465 63.2488 193.244 63.4616 193.081 63.7351C192.921 64.0086 192.842 64.3239 192.842 64.681V69.6328H190.414ZM200.527 69.8038C199.642 69.8038 198.877 69.6157 198.231 69.2396C197.589 68.8597 197.093 68.3317 196.744 67.6555C196.394 66.9755 196.219 66.1873 196.219 65.2907C196.219 64.3866 196.394 63.5964 196.744 62.9202C197.093 62.2403 197.589 61.7122 198.231 61.3361C198.877 60.9562 199.642 60.7663 200.527 60.7663C201.412 60.7663 202.176 60.9562 202.818 61.3361C203.464 61.7122 203.961 62.2403 204.311 62.9202C204.66 63.5964 204.835 64.3866 204.835 65.2907C204.835 66.1873 204.66 66.9755 204.311 67.6555C203.961 68.3317 203.464 68.8597 202.818 69.2396C202.176 69.6157 201.412 69.8038 200.527 69.8038ZM200.539 67.9233C200.941 67.9233 201.277 67.8094 201.547 67.5814C201.817 67.3497 202.02 67.0344 202.157 66.6355C202.297 66.2366 202.368 65.7827 202.368 65.2736C202.368 64.7646 202.297 64.3106 202.157 63.9117C202.02 63.5129 201.817 63.1976 201.547 62.9658C201.277 62.7341 200.941 62.6182 200.539 62.6182C200.132 62.6182 199.79 62.7341 199.513 62.9658C199.239 63.1976 199.032 63.5129 198.892 63.9117C198.755 64.3106 198.687 64.7646 198.687 65.2736C198.687 65.7827 198.755 66.2366 198.892 66.6355C199.032 67.0344 199.239 67.3497 199.513 67.5814C199.79 67.8094 200.132 67.9233 200.539 67.9233ZM207.921 69.6328L205.539 60.8803H207.995L209.351 66.7609H209.431L210.844 60.8803H213.254L214.69 66.7267H214.764L216.098 60.8803H218.548L216.172 69.6328H213.602L212.098 64.1283H211.989L210.485 69.6328H207.921ZM224.498 60.8803V62.7037H219.227V60.8803H224.498ZM220.424 58.7833H222.852V66.9432C222.852 67.1674 222.886 67.3421 222.954 67.4675C223.023 67.589 223.118 67.6745 223.239 67.7239C223.364 67.7733 223.509 67.798 223.672 67.798C223.786 67.798 223.9 67.7885 224.014 67.7695C224.128 67.7467 224.215 67.7296 224.276 67.7182L224.658 69.5245C224.536 69.5625 224.365 69.6062 224.145 69.6556C223.925 69.7088 223.657 69.7411 223.342 69.7525C222.757 69.7753 222.244 69.6974 221.803 69.5188C221.366 69.3403 221.026 69.063 220.783 68.6869C220.54 68.3108 220.42 67.836 220.424 67.2623V58.7833ZM228.695 64.5727V69.6328H226.268V57.9628H228.627V62.4245H228.729C228.927 61.9079 229.246 61.5033 229.687 61.2108C230.127 60.9145 230.68 60.7663 231.345 60.7663C231.953 60.7663 232.483 60.8993 232.935 61.1652C233.391 61.4273 233.744 61.8053 233.995 62.2991C234.249 62.7892 234.374 63.3761 234.371 64.0599V69.6328H231.943V64.493C231.947 63.9535 231.81 63.5338 231.533 63.2337C231.259 62.9335 230.876 62.7835 230.382 62.7835C230.051 62.7835 229.759 62.8538 229.504 62.9943C229.254 63.1349 229.056 63.34 228.912 63.6097C228.771 63.8757 228.699 64.1967 228.695 64.5727Z" fill="#060C3C"/>
<path d="M114.508 135.277C114.508 133.068 116.299 131.277 118.508 131.277H131.139C133.348 131.277 135.139 133.068 135.139 135.277V186.878C135.139 189.087 133.348 190.878 131.139 190.878H118.508C116.299 190.878 114.508 189.087 114.508 186.878V135.277Z" fill="#005AEE"/>
<path d="M153.478 103.186C153.478 100.976 155.269 99.1855 157.478 99.1855H170.109C172.318 99.1855 174.109 100.976 174.109 103.186V186.879C174.109 189.088 172.318 190.879 170.109 190.879H157.478C155.269 190.879 153.478 189.088 153.478 186.879V103.186Z" fill="#005AEE"/>
<path d="M192.448 147.886C192.448 145.677 194.239 143.886 196.448 143.886H209.079C211.288 143.886 213.079 145.677 213.079 147.886V186.879C213.079 189.088 211.288 190.879 209.079 190.879H196.448C194.239 190.879 192.448 189.088 192.448 186.879V147.886Z" fill="#005AEE"/>
<path d="M231.417 126.108C231.417 123.899 233.208 122.108 235.417 122.108H248.048C250.258 122.108 252.048 123.899 252.048 126.108V186.878C252.048 189.088 250.258 190.878 248.048 190.878H235.417C233.208 190.878 231.417 189.088 231.417 186.878V126.108Z" fill="#508AFF"/>
<path d="M270.387 167.371C270.387 165.162 272.178 163.371 274.387 163.371H287.018C289.227 163.371 291.018 165.162 291.018 167.371V186.879C291.018 189.088 289.227 190.879 287.018 190.879H274.387C272.178 190.879 270.387 189.088 270.387 186.879V167.371Z" fill="#005AEE"/>
<path d="M309.356 115.794C309.356 113.585 311.147 111.794 313.356 111.794H325.987C328.197 111.794 329.987 113.585 329.987 115.794V186.879C329.987 189.089 328.197 190.879 325.987 190.879H313.356C311.147 190.879 309.356 189.089 309.356 186.879V115.794Z" fill="#005AEE"/>
<defs>
<filter id="filter0_d_380_452" x="43.4457" y="0.614999" width="357.604" height="261.326" filterUnits="userSpaceOnUse" color-interpolation-filters="sRGB">
<feFlood flood-opacity="0" result="BackgroundImageFix"/>
<feColorMatrix in="SourceAlpha" type="matrix" values="0 0 0 0 0 0 0 0 0 0 0 0 0 0 0 0 0 0 127 0" result="hardAlpha"/>
<feMorphology radius="2.29233" operator="erode" in="SourceAlpha" result="effect1_dropShadow_380_452"/>
<feOffset dy="9.16933"/>
<feGaussianBlur stdDeviation="22.9233"/>
<feColorMatrix type="matrix" values="0 0 0 0 0.0235294 0 0 0 0 0.0470588 0 0 0 0 0.231373 0 0 0 0.08 0"/>
<feBlend mode="normal" in2="BackgroundImageFix" result="effect1_dropShadow_380_452"/>
<feBlend mode="normal" in="SourceGraphic" in2="effect1_dropShadow_380_452" result="shape"/>
</filter>
</defs>
</svg>
