<svg width="405" height="302" viewBox="0 0 405 302" fill="none" xmlns="http://www.w3.org/2000/svg">
<rect x="25.4019" y="17.3076" width="354" height="251" rx="12" fill="#005AEE" fill-opacity="0.2"/>
<g filter="url(#filter0_d_380_451)">
<rect x="41" y="33" width="322.511" height="219.307" rx="6.45022" fill="white"/>
</g>
<line opacity="0.2" x1="90.9892" y1="206.619" x2="342.548" y2="206.619" stroke="#B4B6C4" stroke-width="1.07504" stroke-linecap="round"/>
<line opacity="0.2" x1="90.9892" y1="177.592" x2="342.548" y2="177.592" stroke="#B4B6C4" stroke-width="1.07504" stroke-linecap="round"/>
<line opacity="0.2" x1="90.9892" y1="148.566" x2="342.548" y2="148.566" stroke="#B4B6C4" stroke-width="1.07504" stroke-linecap="round"/>
<line opacity="0.2" x1="90.9892" y1="119.541" x2="342.548" y2="119.541" stroke="#B4B6C4" stroke-width="1.07504" stroke-linecap="round"/>
<line opacity="0.2" x1="90.9892" y1="90.5152" x2="342.548" y2="90.5152" stroke="#B4B6C4" stroke-width="1.07504" stroke-linecap="round"/>
<path d="M61.6065 123.736C61.2858 123.731 60.9651 123.67 60.6444 123.553C60.3238 123.435 60.0311 123.238 59.7664 122.961C59.5017 122.681 59.2892 122.303 59.1288 121.827C58.9685 121.349 58.8883 120.748 58.8883 120.025C58.8883 119.333 58.9532 118.719 59.083 118.185C59.2128 117.648 59.4012 117.196 59.648 116.83C59.8949 116.461 60.1927 116.181 60.5414 115.99C60.8926 115.799 61.2883 115.704 61.7286 115.704C62.1664 115.704 62.5558 115.791 62.8968 115.967C63.2404 116.14 63.5204 116.382 63.7367 116.692C63.953 117.003 64.093 117.36 64.1566 117.765H63.2251C63.1386 117.414 62.9706 117.122 62.7212 116.891C62.4718 116.659 62.1409 116.543 61.7286 116.543C61.1229 116.543 60.6457 116.807 60.297 117.334C59.9509 117.861 59.7766 118.6 59.774 119.552H59.8351C59.9776 119.335 60.1469 119.151 60.3428 118.998C60.5414 118.843 60.7602 118.723 60.9995 118.639C61.2387 118.555 61.4919 118.513 61.7592 118.513C62.2071 118.513 62.6169 118.625 62.9884 118.849C63.36 119.071 63.6578 119.377 63.8818 119.769C64.1057 120.159 64.2177 120.605 64.2177 121.109C64.2177 121.593 64.1095 122.036 63.8932 122.438C63.6769 122.837 63.3727 123.156 62.9808 123.392C62.5914 123.626 62.1333 123.741 61.6065 123.736ZM61.6065 122.896C61.9272 122.896 62.2147 122.816 62.4693 122.655C62.7263 122.495 62.9286 122.28 63.0762 122.01C63.2264 121.74 63.3015 121.44 63.3015 121.109C63.3015 120.786 63.229 120.492 63.0839 120.227C62.9414 119.96 62.7441 119.748 62.4922 119.59C62.2427 119.432 61.9577 119.353 61.637 119.353C61.3952 119.353 61.17 119.402 60.9613 119.498C60.7526 119.592 60.5694 119.722 60.4116 119.888C60.2563 120.053 60.1342 120.243 60.0451 120.456C59.956 120.668 59.9115 120.89 59.9115 121.125C59.9115 121.435 59.984 121.725 60.1291 121.995C60.2767 122.265 60.4777 122.482 60.7322 122.648C60.9893 122.813 61.2807 122.896 61.6065 122.896ZM68.2691 123.736C67.694 123.736 67.204 123.579 66.7994 123.266C66.3947 122.951 66.0855 122.494 65.8717 121.896C65.6579 121.295 65.551 120.57 65.551 119.72C65.551 118.875 65.6579 118.153 65.8717 117.555C66.088 116.954 66.3985 116.496 66.8032 116.181C67.2104 115.863 67.699 115.704 68.2691 115.704C68.8392 115.704 69.3266 115.863 69.7313 116.181C70.1385 116.496 70.449 116.954 70.6628 117.555C70.8791 118.153 70.9873 118.875 70.9873 119.72C70.9873 120.57 70.8804 121.295 70.6666 121.896C70.4528 122.494 70.1436 122.951 69.7389 123.266C69.3343 123.579 68.8443 123.736 68.2691 123.736ZM68.2691 122.896C68.8392 122.896 69.2821 122.621 69.5977 122.071C69.9133 121.522 70.071 120.738 70.071 119.72C70.071 119.043 69.9985 118.466 69.8534 117.99C69.7109 117.514 69.5048 117.152 69.235 116.902C68.9678 116.653 68.6458 116.528 68.2691 116.528C67.7041 116.528 67.2626 116.807 66.9444 117.364C66.6263 117.919 66.4672 118.704 66.4672 119.72C66.4672 120.397 66.5385 120.972 66.681 121.445C66.8235 121.919 67.0284 122.279 67.2957 122.526C67.5654 122.772 67.8899 122.896 68.2691 122.896ZM73.2931 121.491L73.2778 120.376H73.4611L76.0265 117.765H77.1412L74.4078 120.529H74.3315L73.2931 121.491ZM72.4532 123.629V115.81H73.3542V123.629H72.4532ZM76.1792 123.629L73.8886 120.728L74.53 120.101L77.3245 123.629H76.1792Z" fill="#005AEE"/>
<path d="M61.6523 152.762C61.1484 152.762 60.6992 152.676 60.3047 152.503C59.9127 152.33 59.601 152.089 59.3694 151.781C59.1403 151.471 59.0156 151.11 58.9952 150.701H59.9573C59.9776 150.953 60.0642 151.17 60.2169 151.353C60.3696 151.534 60.5694 151.674 60.8162 151.773C61.0631 151.873 61.3367 151.922 61.637 151.922C61.973 151.922 62.2707 151.864 62.5303 151.747C62.7899 151.63 62.9935 151.467 63.1411 151.258C63.2888 151.049 63.3626 150.808 63.3626 150.533C63.3626 150.245 63.2913 149.992 63.1488 149.773C63.0063 149.552 62.7976 149.378 62.5227 149.254C62.2478 149.129 61.9119 149.067 61.5149 149.067H60.8888V148.227H61.5149C61.8253 148.227 62.0977 148.171 62.3318 148.059C62.5685 147.947 62.753 147.789 62.8854 147.585C63.0203 147.382 63.0877 147.143 63.0877 146.868C63.0877 146.603 63.0292 146.373 62.9121 146.177C62.795 145.981 62.6296 145.828 62.4158 145.719C62.2046 145.609 61.9551 145.555 61.6676 145.555C61.3978 145.555 61.1433 145.604 60.904 145.703C60.6673 145.8 60.4739 145.941 60.3238 146.127C60.1736 146.31 60.0922 146.532 60.0794 146.791H59.1632C59.1785 146.382 59.3019 146.023 59.5335 145.715C59.7651 145.404 60.068 145.163 60.4421 144.99C60.8188 144.816 61.2323 144.73 61.6828 144.73C62.1664 144.73 62.5812 144.828 62.9274 145.024C63.2735 145.217 63.5395 145.473 63.7252 145.791C63.911 146.109 64.0039 146.453 64.0039 146.822C64.0039 147.262 63.8881 147.638 63.6565 147.948C63.4275 148.259 63.1157 148.474 62.7212 148.593V148.654C63.215 148.736 63.6005 148.946 63.8779 149.284C64.1554 149.62 64.2941 150.036 64.2941 150.533C64.2941 150.958 64.1783 151.339 63.9467 151.678C63.7176 152.014 63.4046 152.279 63.0075 152.472C62.6105 152.665 62.1588 152.762 61.6523 152.762ZM68.4056 152.762C67.8304 152.762 67.3405 152.606 66.9358 152.293C66.5312 151.977 66.222 151.52 66.0082 150.922C65.7944 150.321 65.6875 149.596 65.6875 148.746C65.6875 147.901 65.7944 147.18 66.0082 146.581C66.2245 145.981 66.535 145.523 66.9397 145.207C67.3469 144.889 67.8355 144.73 68.4056 144.73C68.9757 144.73 69.4631 144.889 69.8678 145.207C70.275 145.523 70.5855 145.981 70.7993 146.581C71.0156 147.18 71.1238 147.901 71.1238 148.746C71.1238 149.596 71.0169 150.321 70.8031 150.922C70.5893 151.52 70.2801 151.977 69.8754 152.293C69.4707 152.606 68.9808 152.762 68.4056 152.762ZM68.4056 151.922C68.9757 151.922 69.4186 151.647 69.7341 151.098C70.0497 150.548 70.2075 149.764 70.2075 148.746C70.2075 148.069 70.135 147.493 69.9899 147.017C69.8474 146.541 69.6413 146.178 69.3715 145.929C69.1042 145.679 68.7823 145.555 68.4056 145.555C67.8406 145.555 67.399 145.833 67.0809 146.391C66.7628 146.945 66.6037 147.731 66.6037 148.746C66.6037 149.423 66.675 149.998 66.8175 150.472C66.96 150.945 67.1649 151.305 67.4321 151.552C67.7019 151.799 68.0264 151.922 68.4056 151.922ZM73.4296 150.517L73.4143 149.403H73.5976L76.163 146.791H77.2777L74.5443 149.555H74.468L73.4296 150.517ZM72.5897 152.655V144.837H73.4907V152.655H72.5897ZM76.3157 152.655L74.0251 149.754L74.6665 149.128L77.461 152.655H76.3157Z" fill="#005AEE"/>
<path d="M61.7592 173.861V181.68H60.8124V174.854H60.7666L58.8578 176.121V175.159L60.8124 173.861H61.7592ZM66.5579 181.787C65.9827 181.787 65.4928 181.63 65.0881 181.317C64.6835 181.001 64.3742 180.545 64.1604 179.946C63.9467 179.346 63.8398 178.621 63.8398 177.77C63.8398 176.926 63.9467 176.204 64.1604 175.606C64.3768 175.005 64.6873 174.547 65.0919 174.232C65.4992 173.913 65.9878 173.754 66.5579 173.754C67.128 173.754 67.6154 173.913 68.02 174.232C68.4273 174.547 68.7378 175.005 68.9515 175.606C69.1679 176.204 69.276 176.926 69.276 177.77C69.276 178.621 69.1691 179.346 68.9554 179.946C68.7416 180.545 68.4323 181.001 68.0277 181.317C67.623 181.63 67.1331 181.787 66.5579 181.787ZM66.5579 180.947C67.128 180.947 67.5708 180.672 67.8864 180.122C68.202 179.572 68.3598 178.788 68.3598 177.77C68.3598 177.093 68.2873 176.517 68.1422 176.041C67.9997 175.565 67.7935 175.202 67.5238 174.953C67.2565 174.704 66.9346 174.579 66.5579 174.579C65.9929 174.579 65.5513 174.858 65.2332 175.415C64.9151 175.97 64.756 176.755 64.756 177.77C64.756 178.447 64.8273 179.023 64.9698 179.496C65.1123 179.969 65.3172 180.33 65.5844 180.576C65.8542 180.823 66.1787 180.947 66.5579 180.947ZM71.5819 179.542L71.5666 178.427H71.7498L74.3153 175.816H75.43L72.6966 178.58H72.6203L71.5819 179.542ZM70.742 181.68V173.861H71.6429V181.68H70.742ZM74.468 181.68L72.1774 178.778L72.8188 178.152L75.6133 181.68H74.468Z" fill="#005AEE"/>
<path d="M61.5607 210.813C60.9855 210.813 60.4956 210.656 60.0909 210.343C59.6862 210.028 59.377 209.571 59.1632 208.973C58.9494 208.372 58.8425 207.647 58.8425 206.797C58.8425 205.952 58.9494 205.23 59.1632 204.632C59.3795 204.032 59.69 203.574 60.0947 203.258C60.5019 202.94 60.9906 202.781 61.5607 202.781C62.1308 202.781 62.6181 202.94 63.0228 203.258C63.43 203.574 63.7405 204.032 63.9543 204.632C64.1706 205.23 64.2788 205.952 64.2788 206.797C64.2788 207.647 64.1719 208.372 63.9581 208.973C63.7443 209.571 63.4351 210.028 63.0304 210.343C62.6258 210.656 62.1358 210.813 61.5607 210.813ZM61.5607 209.973C62.1308 209.973 62.5736 209.698 62.8892 209.148C63.2048 208.599 63.3626 207.815 63.3626 206.797C63.3626 206.12 63.29 205.543 63.145 205.067C63.0024 204.592 62.7963 204.229 62.5265 203.979C62.2593 203.73 61.9373 203.605 61.5607 203.605C60.9957 203.605 60.5541 203.884 60.236 204.441C59.9178 204.996 59.7588 205.781 59.7588 206.797C59.7588 207.474 59.83 208.049 59.9725 208.522C60.1151 208.996 60.3199 209.356 60.5872 209.603C60.8569 209.85 61.1814 209.973 61.5607 209.973Z" fill="#005AEE"/>
<path d="M61.4996 86.6772C61.8203 86.6797 62.1409 86.7408 62.4616 86.8604C62.7823 86.9801 63.075 87.1786 63.3397 87.456C63.6044 87.7309 63.8169 88.1063 63.9772 88.5822C64.1375 89.0581 64.2177 89.6549 64.2177 90.3726C64.2177 91.0674 64.1515 91.6846 64.0192 92.2242C63.8894 92.7612 63.7011 93.2142 63.4542 93.5832C63.2099 93.9523 62.9121 94.2322 62.5609 94.4231C62.2122 94.614 61.8177 94.7094 61.3774 94.7094C60.9397 94.7094 60.549 94.6229 60.2054 94.4498C59.8644 94.2742 59.5844 94.0312 59.3655 93.7207C59.1492 93.4076 59.0105 93.045 58.9494 92.6327H59.8809C59.9649 92.9915 60.1316 93.288 60.381 93.5222C60.633 93.7538 60.9651 93.8696 61.3774 93.8696C61.9806 93.8696 62.4565 93.6061 62.8052 93.0793C63.1564 92.5525 63.332 91.8081 63.332 90.846H63.2709C63.1284 91.0598 62.9592 91.2443 62.7632 91.3996C62.5672 91.5548 62.3496 91.6744 62.1104 91.7584C61.8712 91.8424 61.6167 91.8844 61.3469 91.8844C60.8989 91.8844 60.4879 91.7737 60.1138 91.5523C59.7422 91.3283 59.4444 91.0216 59.2205 90.6322C58.9991 90.2403 58.8883 89.7924 58.8883 89.2884C58.8883 88.81 58.9952 88.3722 59.209 87.9752C59.4253 87.5756 59.7282 87.2575 60.1176 87.0208C60.5095 86.7841 60.9702 86.6696 61.4996 86.6772ZM61.4996 87.5171C61.1789 87.5171 60.89 87.5972 60.633 87.7576C60.3785 87.9154 60.1761 88.1292 60.026 88.3989C59.8784 88.6662 59.8046 88.9627 59.8046 89.2884C59.8046 89.6142 59.8758 89.9107 60.0184 90.1779C60.1634 90.4426 60.3607 90.6539 60.6101 90.8117C60.862 90.9669 61.1484 91.0445 61.469 91.0445C61.7108 91.0445 61.9361 90.9975 62.1448 90.9033C62.3534 90.8066 62.5354 90.6755 62.6907 90.5101C62.8485 90.3421 62.9719 90.1525 63.061 89.9412C63.1501 89.7275 63.1946 89.5048 63.1946 89.2732C63.1946 88.9678 63.1208 88.6814 62.9732 88.4142C62.8281 88.147 62.627 87.9306 62.37 87.7652C62.1155 87.5998 61.8253 87.5171 61.4996 87.5171ZM68.2691 94.7094C67.694 94.7094 67.204 94.5529 66.7994 94.2399C66.3947 93.9243 66.0855 93.4674 65.8717 92.8693C65.6579 92.2687 65.551 91.5434 65.551 90.6933C65.551 89.8484 65.6579 89.1268 65.8717 88.5287C66.088 87.9281 66.3985 87.47 66.8032 87.1544C67.2104 86.8363 67.699 86.6772 68.2691 86.6772C68.8392 86.6772 69.3266 86.8363 69.7313 87.1544C70.1385 87.47 70.449 87.9281 70.6628 88.5287C70.8791 89.1268 70.9873 89.8484 70.9873 90.6933C70.9873 91.5434 70.8804 92.2687 70.6666 92.8693C70.4528 93.4674 70.1436 93.9243 69.7389 94.2399C69.3343 94.5529 68.8443 94.7094 68.2691 94.7094ZM68.2691 93.8696C68.8392 93.8696 69.2821 93.5947 69.5977 93.045C69.9133 92.4952 70.071 91.7113 70.071 90.6933C70.071 90.0163 69.9985 89.4399 69.8534 88.9639C69.7109 88.488 69.5048 88.1253 69.235 87.8759C68.9678 87.6265 68.6458 87.5018 68.2691 87.5018C67.7041 87.5018 67.2626 87.7805 66.9444 88.3379C66.6263 88.8927 66.4672 89.6778 66.4672 90.6933C66.4672 91.3703 66.5385 91.9455 66.681 92.4189C66.8235 92.8923 67.0284 93.2524 67.2957 93.4993C67.5654 93.7461 67.8899 93.8696 68.2691 93.8696ZM73.2931 92.4647L73.2778 91.3499H73.4611L76.0265 88.7387H77.1412L74.4078 91.5026H74.3315L73.2931 92.4647ZM72.4532 94.6025V86.7841H73.3542V94.6025H72.4532ZM76.1792 94.6025L73.8886 91.7012L74.53 91.0751L77.3245 94.6025H76.1792Z" fill="#005AEE"/>
<path d="M91.3984 224.388H92.5284L95.1855 230.878H95.2771L97.9342 224.388H99.0642V232.206H98.1785V226.266H98.1021L95.6589 232.206H94.8037L92.3605 226.266H92.2841V232.206H91.3984V224.388ZM102.566 232.343C102.194 232.343 101.857 232.273 101.554 232.134C101.251 231.991 101.011 231.786 100.833 231.519C100.655 231.249 100.565 230.923 100.565 230.542C100.565 230.206 100.632 229.933 100.764 229.725C100.896 229.513 101.073 229.348 101.295 229.228C101.516 229.109 101.76 229.02 102.028 228.961C102.297 228.9 102.568 228.852 102.841 228.816C103.197 228.77 103.486 228.736 103.707 228.713C103.931 228.687 104.094 228.646 104.196 228.587C104.3 228.528 104.353 228.427 104.353 228.282V228.251C104.353 227.874 104.249 227.582 104.043 227.373C103.84 227.164 103.53 227.06 103.116 227.06C102.685 227.06 102.348 227.154 102.104 227.342C101.86 227.531 101.688 227.732 101.589 227.946L100.733 227.64C100.886 227.284 101.09 227.006 101.344 226.808C101.601 226.607 101.881 226.467 102.184 226.388C102.49 226.307 102.79 226.266 103.085 226.266C103.273 226.266 103.49 226.289 103.734 226.335C103.981 226.378 104.219 226.468 104.448 226.606C104.68 226.743 104.872 226.95 105.024 227.228C105.177 227.505 105.253 227.877 105.253 228.343V232.206H104.353V231.412H104.307C104.246 231.539 104.144 231.675 104.001 231.82C103.859 231.966 103.669 232.089 103.432 232.191C103.196 232.293 102.907 232.343 102.566 232.343ZM102.703 231.534C103.06 231.534 103.36 231.464 103.604 231.324C103.851 231.184 104.037 231.004 104.162 230.782C104.289 230.561 104.353 230.328 104.353 230.083V229.259C104.314 229.305 104.23 229.347 104.101 229.385C103.973 229.42 103.826 229.452 103.658 229.48C103.492 229.506 103.331 229.529 103.173 229.549C103.018 229.567 102.892 229.582 102.795 229.595C102.561 229.625 102.342 229.675 102.138 229.744C101.937 229.81 101.774 229.91 101.65 230.045C101.527 230.178 101.466 230.358 101.466 230.587C101.466 230.9 101.582 231.137 101.814 231.297C102.048 231.455 102.344 231.534 102.703 231.534ZM106.898 232.206V226.342H107.768V227.228H107.829C107.936 226.938 108.13 226.702 108.41 226.522C108.69 226.341 109.005 226.251 109.356 226.251C109.423 226.251 109.505 226.252 109.605 226.254C109.704 226.257 109.779 226.261 109.83 226.266V227.182C109.799 227.174 109.729 227.163 109.62 227.148C109.513 227.13 109.4 227.121 109.28 227.121C108.995 227.121 108.741 227.181 108.517 227.3C108.295 227.418 108.12 227.58 107.99 227.789C107.862 227.995 107.799 228.231 107.799 228.495V232.206H106.898Z" fill="#005AEE"/>
<path d="M150.846 232.206H149.853L152.724 224.388H153.702L156.572 232.206H155.58L153.244 225.625H153.182L150.846 232.206ZM151.213 229.152H155.213V229.992H151.213V229.152ZM157.668 234.405V226.342H158.539V227.274H158.645C158.712 227.172 158.803 227.042 158.92 226.884C159.04 226.724 159.21 226.581 159.432 226.457C159.656 226.329 159.959 226.266 160.34 226.266C160.834 226.266 161.269 226.389 161.646 226.636C162.023 226.883 162.317 227.233 162.528 227.686C162.739 228.139 162.845 228.674 162.845 229.289C162.845 229.91 162.739 230.449 162.528 230.904C162.317 231.357 162.024 231.708 161.65 231.958C161.276 232.205 160.844 232.328 160.356 232.328C159.979 232.328 159.677 232.266 159.451 232.141C159.224 232.014 159.05 231.87 158.928 231.71C158.806 231.547 158.712 231.412 158.645 231.305H158.569V234.405H157.668ZM158.554 229.274C158.554 229.717 158.619 230.108 158.748 230.446C158.878 230.782 159.068 231.046 159.317 231.236C159.567 231.425 159.872 231.519 160.234 231.519C160.61 231.519 160.925 231.42 161.176 231.221C161.431 231.02 161.622 230.75 161.749 230.412C161.879 230.071 161.944 229.692 161.944 229.274C161.944 228.862 161.88 228.49 161.753 228.159C161.628 227.826 161.439 227.563 161.184 227.369C160.932 227.173 160.615 227.075 160.234 227.075C159.867 227.075 159.559 227.168 159.31 227.354C159.06 227.537 158.872 227.794 158.745 228.125C158.617 228.453 158.554 228.836 158.554 229.274ZM164.219 232.206V226.342H165.09V227.228H165.151C165.258 226.938 165.451 226.702 165.731 226.522C166.011 226.341 166.326 226.251 166.678 226.251C166.744 226.251 166.827 226.252 166.926 226.254C167.025 226.257 167.1 226.261 167.151 226.266V227.182C167.12 227.174 167.051 227.163 166.941 227.148C166.834 227.13 166.721 227.121 166.601 227.121C166.316 227.121 166.062 227.181 165.838 227.3C165.616 227.418 165.441 227.58 165.311 227.789C165.184 227.995 165.12 228.231 165.12 228.495V232.206H164.219Z" fill="#005AEE"/>
<path d="M206.427 224.388H207.557L210.214 230.878H210.306L212.963 224.388H214.093V232.206H213.207V226.266H213.131L210.688 232.206H209.833L207.389 226.266H207.313V232.206H206.427V224.388ZM217.595 232.343C217.223 232.343 216.886 232.273 216.583 232.134C216.28 231.991 216.04 231.786 215.861 231.519C215.683 231.249 215.594 230.923 215.594 230.542C215.594 230.206 215.66 229.933 215.793 229.725C215.925 229.513 216.102 229.348 216.323 229.228C216.545 229.109 216.789 229.02 217.056 228.961C217.326 228.9 217.597 228.852 217.87 228.816C218.226 228.77 218.515 228.736 218.736 228.713C218.96 228.687 219.123 228.646 219.225 228.587C219.329 228.528 219.381 228.427 219.381 228.282V228.251C219.381 227.874 219.278 227.582 219.072 227.373C218.868 227.164 218.559 227.06 218.144 227.06C217.714 227.06 217.377 227.154 217.133 227.342C216.888 227.531 216.717 227.732 216.617 227.946L215.762 227.64C215.915 227.284 216.119 227.006 216.373 226.808C216.63 226.607 216.91 226.467 217.213 226.388C217.518 226.307 217.819 226.266 218.114 226.266C218.302 226.266 218.519 226.289 218.763 226.335C219.01 226.378 219.248 226.468 219.477 226.606C219.708 226.743 219.901 226.95 220.053 227.228C220.206 227.505 220.282 227.877 220.282 228.343V232.206H219.381V231.412H219.335C219.274 231.539 219.173 231.675 219.03 231.82C218.888 231.966 218.698 232.089 218.461 232.191C218.225 232.293 217.936 232.343 217.595 232.343ZM217.732 231.534C218.088 231.534 218.389 231.464 218.633 231.324C218.88 231.184 219.066 231.004 219.19 230.782C219.318 230.561 219.381 230.328 219.381 230.083V229.259C219.343 229.305 219.259 229.347 219.129 229.385C219.002 229.42 218.854 229.452 218.687 229.48C218.521 229.506 218.359 229.529 218.202 229.549C218.046 229.567 217.92 229.582 217.824 229.595C217.59 229.625 217.371 229.675 217.167 229.744C216.966 229.81 216.803 229.91 216.678 230.045C216.556 230.178 216.495 230.358 216.495 230.587C216.495 230.9 216.611 231.137 216.843 231.297C217.077 231.455 217.373 231.534 217.732 231.534ZM222.297 234.405C222.144 234.405 222.008 234.392 221.889 234.367C221.769 234.344 221.686 234.321 221.64 234.298L221.869 233.504C222.088 233.56 222.282 233.58 222.45 233.565C222.618 233.55 222.767 233.475 222.896 233.34C223.029 233.208 223.15 232.992 223.259 232.695L223.427 232.237L221.259 226.342H222.236L223.855 231.015H223.916L225.534 226.342H226.512L224.023 233.061C223.911 233.364 223.772 233.615 223.606 233.813C223.441 234.014 223.249 234.163 223.03 234.26C222.814 234.357 222.569 234.405 222.297 234.405Z" fill="#005AEE"/>
<path d="M268.548 224.388H269.494V229.977C269.494 230.475 269.403 230.899 269.22 231.248C269.036 231.597 268.778 231.861 268.445 232.042C268.111 232.223 267.718 232.313 267.265 232.313C266.837 232.313 266.457 232.235 266.123 232.08C265.79 231.922 265.528 231.698 265.337 231.408C265.146 231.118 265.051 230.773 265.051 230.374H265.982C265.982 230.595 266.037 230.788 266.146 230.954C266.258 231.117 266.411 231.244 266.605 231.336C266.798 231.427 267.018 231.473 267.265 231.473C267.537 231.473 267.769 231.416 267.96 231.301C268.151 231.187 268.296 231.019 268.395 230.797C268.497 230.573 268.548 230.3 268.548 229.977V224.388ZM274.965 229.809V226.342H275.866V232.206H274.965V231.213H274.904C274.767 231.511 274.553 231.764 274.263 231.973C273.972 232.179 273.606 232.282 273.163 232.282C272.797 232.282 272.471 232.202 272.186 232.042C271.901 231.879 271.677 231.635 271.514 231.309C271.351 230.981 271.27 230.567 271.27 230.068V226.342H272.171V230.007C272.171 230.435 272.29 230.776 272.529 231.03C272.771 231.285 273.079 231.412 273.453 231.412C273.677 231.412 273.905 231.355 274.137 231.24C274.371 231.126 274.567 230.95 274.725 230.713C274.885 230.477 274.965 230.175 274.965 229.809ZM278.417 228.679V232.206H277.516V226.342H278.387V227.258H278.463C278.6 226.961 278.809 226.721 279.089 226.541C279.369 226.357 279.73 226.266 280.173 226.266C280.57 226.266 280.918 226.347 281.215 226.51C281.513 226.671 281.745 226.915 281.91 227.243C282.076 227.569 282.158 227.981 282.158 228.48V232.206H281.257V228.541C281.257 228.081 281.138 227.722 280.899 227.465C280.659 227.205 280.331 227.075 279.914 227.075C279.626 227.075 279.369 227.138 279.142 227.262C278.919 227.387 278.742 227.569 278.612 227.808C278.482 228.047 278.417 228.338 278.417 228.679Z" fill="#005AEE"/>
<path d="M324.45 224.388H325.396V229.977C325.396 230.475 325.305 230.899 325.121 231.248C324.938 231.597 324.68 231.861 324.346 232.042C324.013 232.223 323.62 232.313 323.167 232.313C322.739 232.313 322.359 232.235 322.025 232.08C321.692 231.922 321.43 231.698 321.239 231.408C321.048 231.118 320.953 230.773 320.953 230.374H321.884C321.884 230.595 321.939 230.788 322.048 230.954C322.16 231.117 322.313 231.244 322.506 231.336C322.7 231.427 322.92 231.473 323.167 231.473C323.439 231.473 323.671 231.416 323.862 231.301C324.052 231.187 324.198 231.019 324.297 230.797C324.399 230.573 324.45 230.3 324.45 229.977V224.388ZM330.867 229.809V226.342H331.768V232.206H330.867V231.213H330.806C330.668 231.511 330.455 231.764 330.164 231.973C329.874 232.179 329.508 232.282 329.065 232.282C328.699 232.282 328.373 232.202 328.088 232.042C327.803 231.879 327.579 231.635 327.416 231.309C327.253 230.981 327.171 230.567 327.171 230.068V226.342H328.072V230.007C328.072 230.435 328.192 230.776 328.431 231.03C328.673 231.285 328.981 231.412 329.355 231.412C329.579 231.412 329.807 231.355 330.038 231.24C330.273 231.126 330.469 230.95 330.626 230.713C330.787 230.477 330.867 230.175 330.867 229.809ZM334.319 224.388V232.206H333.418V224.388H334.319Z" fill="#005AEE"/>
<path d="M63.2334 65.3076H59.3532V54.3618H63.2655C64.3665 54.3618 65.3143 54.5809 66.1088 55.0192C66.9034 55.4539 67.5145 56.0792 67.942 56.8952C68.3732 57.7111 68.5887 58.6874 68.5887 59.824C68.5887 60.9642 68.3732 61.9441 67.942 62.7636C67.5145 63.5831 66.8998 64.212 66.0981 64.6502C65.3 65.0885 64.3451 65.3076 63.2334 65.3076ZM61.6674 63.3248H63.1372C63.8213 63.3248 64.3968 63.2036 64.8635 62.9613C65.3339 62.7155 65.6866 62.336 65.9218 61.8229C66.1605 61.3063 66.2799 60.64 66.2799 59.824C66.2799 59.0152 66.1605 58.3542 65.9218 57.8412C65.6866 57.3281 65.3356 56.9504 64.8689 56.7081C64.4021 56.4658 63.8267 56.3447 63.1426 56.3447H61.6674V63.3248ZM72.6012 65.4626C72.0775 65.4626 71.6107 65.3718 71.2009 65.19C70.7912 65.0048 70.4669 64.7322 70.2282 64.3723C69.993 64.0089 69.8755 63.5564 69.8755 63.0148C69.8755 62.5587 69.9592 62.1757 70.1267 61.8657C70.2941 61.5557 70.5222 61.3063 70.8108 61.1174C71.0994 60.9286 71.4272 60.7861 71.7942 60.6898C72.1648 60.5936 72.5531 60.5259 72.9593 60.4868C73.4368 60.4369 73.8216 60.3905 74.1138 60.3478C74.4059 60.3015 74.6179 60.2338 74.7498 60.1447C74.8816 60.0556 74.9475 59.9238 74.9475 59.7492V59.7171C74.9475 59.3786 74.8406 59.1167 74.6269 58.9315C74.4166 58.7462 74.1173 58.6535 73.729 58.6535C73.3192 58.6535 72.9932 58.7444 72.7509 58.9261C72.5086 59.1043 72.3483 59.3287 72.2699 59.5995L70.1641 59.4285C70.271 58.9297 70.4812 58.4985 70.7947 58.1351C71.1083 57.7681 71.5127 57.4866 72.008 57.2907C72.5068 57.0911 73.084 56.9914 73.7396 56.9914C74.1957 56.9914 74.6322 57.0448 75.0491 57.1517C75.4695 57.2586 75.8419 57.4243 76.1661 57.6487C76.4939 57.8732 76.7522 58.1618 76.9411 58.5146C77.1299 58.8638 77.2243 59.2824 77.2243 59.7706V65.3076H75.0651V64.1692H75.001C74.8691 64.4258 74.6928 64.652 74.4719 64.848C74.2509 65.0404 73.9855 65.1918 73.6755 65.3023C73.3655 65.4092 73.0074 65.4626 72.6012 65.4626ZM73.2533 63.8913C73.5882 63.8913 73.8839 63.8254 74.1405 63.6935C74.397 63.5581 74.5983 63.3764 74.7444 63.1484C74.8905 62.9203 74.9636 62.662 74.9636 62.3734V61.5022C74.8923 61.5486 74.7943 61.5913 74.6696 61.6305C74.5485 61.6661 74.4113 61.7 74.2581 61.7321C74.1049 61.7606 73.9516 61.7873 73.7984 61.8122C73.6452 61.8336 73.5063 61.8532 73.3816 61.871C73.1143 61.9102 72.8809 61.9726 72.6814 62.0581C72.4819 62.1436 72.3269 62.2594 72.2164 62.4055C72.106 62.548 72.0507 62.7262 72.0507 62.9399C72.0507 63.2499 72.163 63.4869 72.3874 63.6508C72.6155 63.8111 72.9041 63.8913 73.2533 63.8913ZM83.3573 57.0982V58.8085H78.4135V57.0982H83.3573ZM79.5359 55.1314H81.8127V62.7849C81.8127 62.9952 81.8448 63.1591 81.9089 63.2767C81.9731 63.3907 82.0621 63.4708 82.1762 63.5172C82.2937 63.5635 82.4291 63.5866 82.5824 63.5866C82.6892 63.5866 82.7961 63.5777 82.903 63.5599C83.0099 63.5385 83.0919 63.5225 83.1489 63.5118L83.507 65.2061C83.393 65.2417 83.2326 65.2827 83.026 65.329C82.8193 65.3789 82.5681 65.4092 82.2724 65.4199C81.7236 65.4412 81.2426 65.3682 80.8293 65.2007C80.4196 65.0333 80.1007 64.7732 79.8726 64.4204C79.6446 64.0677 79.5323 63.6223 79.5359 63.0842V55.1314ZM87.1814 65.4626C86.6576 65.4626 86.1909 65.3718 85.7811 65.19C85.3714 65.0048 85.0471 64.7322 84.8084 64.3723C84.5732 64.0089 84.4556 63.5564 84.4556 63.0148C84.4556 62.5587 84.5394 62.1757 84.7068 61.8657C84.8743 61.5557 85.1023 61.3063 85.391 61.1174C85.6796 60.9286 86.0074 60.7861 86.3744 60.6898C86.7449 60.5936 87.1333 60.5259 87.5395 60.4868C88.017 60.4369 88.4018 60.3905 88.6939 60.3478C88.9861 60.3015 89.1981 60.2338 89.33 60.1447C89.4618 60.0556 89.5277 59.9238 89.5277 59.7492V59.7171C89.5277 59.3786 89.4208 59.1167 89.207 58.9315C88.9968 58.7462 88.6975 58.6535 88.3091 58.6535C87.8994 58.6535 87.5734 58.7444 87.3311 58.9261C87.0888 59.1043 86.9284 59.3287 86.85 59.5995L84.7443 59.4285C84.8512 58.9297 85.0614 58.4985 85.3749 58.1351C85.6885 57.7681 86.0929 57.4866 86.5882 57.2907C87.087 57.0911 87.6642 56.9914 88.3198 56.9914C88.7759 56.9914 89.2124 57.0448 89.6293 57.1517C90.0497 57.2586 90.4221 57.4243 90.7463 57.6487C91.0741 57.8732 91.3324 58.1618 91.5213 58.5146C91.7101 58.8638 91.8045 59.2824 91.8045 59.7706V65.3076H89.6453V64.1692H89.5812C89.4493 64.4258 89.273 64.652 89.052 64.848C88.8311 65.0404 88.5657 65.1918 88.2557 65.3023C87.9457 65.4092 87.5876 65.4626 87.1814 65.4626ZM87.8335 63.8913C88.1684 63.8913 88.4641 63.8254 88.7207 63.6935C88.9772 63.5581 89.1785 63.3764 89.3246 63.1484C89.4707 62.9203 89.5437 62.662 89.5437 62.3734V61.5022C89.4725 61.5486 89.3745 61.5913 89.2498 61.6305C89.1286 61.6661 88.9915 61.7 88.8383 61.7321C88.685 61.7606 88.5318 61.7873 88.3786 61.8122C88.2254 61.8336 88.0864 61.8532 87.9617 61.871C87.6945 61.9102 87.4611 61.9726 87.2616 62.0581C87.0621 62.1436 86.9071 62.2594 86.7966 62.4055C86.6861 62.548 86.6309 62.7262 86.6309 62.9399C86.6309 63.2499 86.7432 63.4869 86.9676 63.6508C87.1957 63.8111 87.4843 63.8913 87.8335 63.8913ZM98.9837 65.3076H96.5038L100.282 54.3618H103.265L107.038 65.3076H104.558L101.816 56.8631H101.731L98.9837 65.3076ZM98.8287 61.0052H104.686V62.8117H98.8287V61.0052ZM110.59 60.5616V65.3076H108.313V57.0982H110.483V58.5466H110.579C110.761 58.0692 111.065 57.6915 111.493 57.4136C111.92 57.1321 112.439 56.9914 113.048 56.9914C113.618 56.9914 114.115 57.1161 114.539 57.3655C114.963 57.6149 115.293 57.9712 115.528 58.4344C115.763 58.894 115.881 59.4428 115.881 60.0806V65.3076H113.604V60.4868C113.608 59.9844 113.479 59.5924 113.219 59.3109C112.959 59.0259 112.601 58.8834 112.145 58.8834C111.838 58.8834 111.568 58.9493 111.333 59.0811C111.101 59.2129 110.919 59.4054 110.787 59.6583C110.659 59.9077 110.593 60.2088 110.59 60.5616ZM120.016 65.4626C119.492 65.4626 119.026 65.3718 118.616 65.19C118.206 65.0048 117.882 64.7322 117.643 64.3723C117.408 64.0089 117.29 63.5564 117.29 63.0148C117.29 62.5587 117.374 62.1757 117.542 61.8657C117.709 61.5557 117.937 61.3063 118.226 61.1174C118.514 60.9286 118.842 60.7861 119.209 60.6898C119.58 60.5936 119.968 60.5259 120.374 60.4868C120.852 60.4369 121.237 60.3905 121.529 60.3478C121.821 60.3015 122.033 60.2338 122.165 60.1447C122.297 60.0556 122.363 59.9238 122.363 59.7492V59.7171C122.363 59.3786 122.256 59.1167 122.042 58.9315C121.832 58.7462 121.532 58.6535 121.144 58.6535C120.734 58.6535 120.408 58.7444 120.166 58.9261C119.924 59.1043 119.763 59.3287 119.685 59.5995L117.579 59.4285C117.686 58.9297 117.896 58.4985 118.21 58.1351C118.523 57.7681 118.928 57.4866 119.423 57.2907C119.922 57.0911 120.499 56.9914 121.155 56.9914C121.611 56.9914 122.047 57.0448 122.464 57.1517C122.885 57.2586 123.257 57.4243 123.581 57.6487C123.909 57.8732 124.167 58.1618 124.356 58.5146C124.545 58.8638 124.639 59.2824 124.639 59.7706V65.3076H122.48V64.1692H122.416C122.284 64.4258 122.108 64.652 121.887 64.848C121.666 65.0404 121.4 65.1918 121.09 65.3023C120.781 65.4092 120.422 65.4626 120.016 65.4626ZM120.668 63.8913C121.003 63.8913 121.299 63.8254 121.555 63.6935C121.812 63.5581 122.013 63.3764 122.159 63.1484C122.306 62.9203 122.379 62.662 122.379 62.3734V61.5022C122.307 61.5486 122.209 61.5913 122.085 61.6305C121.963 61.6661 121.826 61.7 121.673 61.7321C121.52 61.7606 121.367 61.7873 121.213 61.8122C121.06 61.8336 120.921 61.8532 120.797 61.871C120.529 61.9102 120.296 61.9726 120.096 62.0581C119.897 62.1436 119.742 62.2594 119.631 62.4055C119.521 62.548 119.466 62.7262 119.466 62.9399C119.466 63.2499 119.578 63.4869 119.802 63.6508C120.03 63.8111 120.319 63.8913 120.668 63.8913ZM128.683 54.3618V65.3076H126.406V54.3618H128.683ZM131.912 68.3861C131.623 68.3861 131.353 68.363 131.1 68.3167C130.85 68.2739 130.644 68.2187 130.48 68.151L130.993 66.4514C131.26 66.5333 131.501 66.5779 131.714 66.585C131.932 66.5921 132.119 66.5422 132.275 66.4353C132.436 66.3284 132.566 66.1467 132.666 65.8902L132.799 65.5428L129.854 57.0982H132.249L133.948 63.127H134.034L135.75 57.0982H138.16L134.969 66.1948C134.816 66.6367 134.608 67.0215 134.344 67.3493C134.084 67.6806 133.754 67.9354 133.355 68.1136C132.956 68.2953 132.475 68.3861 131.912 68.3861ZM143.692 57.0982V58.8085H138.748V57.0982H143.692ZM139.87 55.1314H142.147V62.7849C142.147 62.9952 142.179 63.1591 142.243 63.2767C142.307 63.3907 142.396 63.4708 142.51 63.5172C142.628 63.5635 142.763 63.5866 142.917 63.5866C143.024 63.5866 143.13 63.5777 143.237 63.5599C143.344 63.5385 143.426 63.5225 143.483 63.5118L143.841 65.2061C143.727 65.2417 143.567 65.2827 143.36 65.329C143.154 65.3789 142.902 65.4092 142.607 65.4199C142.058 65.4412 141.577 65.3682 141.164 65.2007C140.754 65.0333 140.435 64.7732 140.207 64.4204C139.979 64.0677 139.867 63.6223 139.87 63.0842V55.1314ZM145.175 65.3076V57.0982H147.452V65.3076H145.175ZM146.319 56.04C145.98 56.04 145.69 55.9278 145.447 55.7033C145.209 55.4753 145.089 55.2027 145.089 54.8856C145.089 54.572 145.209 54.303 145.447 54.0785C145.69 53.8505 145.98 53.7365 146.319 53.7365C146.657 53.7365 146.946 53.8505 147.184 54.0785C147.427 54.303 147.548 54.572 147.548 54.8856C147.548 55.2027 147.427 55.4753 147.184 55.7033C146.946 55.9278 146.657 56.04 146.319 56.04ZM152.985 65.468C152.144 65.468 151.42 65.2898 150.815 64.9335C150.213 64.5736 149.749 64.0748 149.425 63.437C149.104 62.7992 148.944 62.0652 148.944 61.235C148.944 60.3941 149.106 59.6565 149.43 59.0223C149.758 58.3845 150.223 57.8875 150.825 57.5312C151.428 57.1713 152.144 56.9914 152.974 56.9914C153.69 56.9914 154.317 57.1214 154.855 57.3815C155.393 57.6416 155.819 58.0068 156.133 58.4772C156.446 58.9475 156.619 59.4998 156.651 60.134H154.503C154.442 59.7242 154.282 59.3947 154.022 59.1452C153.765 58.8923 153.428 58.7658 153.011 58.7658C152.659 58.7658 152.35 58.862 152.087 59.0544C151.827 59.2432 151.624 59.5194 151.477 59.8828C151.331 60.2462 151.258 60.6863 151.258 61.2029C151.258 61.7267 151.33 62.1721 151.472 62.5391C151.618 62.9061 151.823 63.1858 152.087 63.3782C152.35 63.5706 152.659 63.6668 153.011 63.6668C153.271 63.6668 153.505 63.6134 153.712 63.5065C153.922 63.3996 154.095 63.2446 154.23 63.0415C154.369 62.8348 154.46 62.5872 154.503 62.2986H156.651C156.615 62.9257 156.444 63.478 156.138 63.9554C155.835 64.4293 155.416 64.7999 154.882 65.0671C154.348 65.3343 153.715 65.468 152.985 65.468ZM164.939 59.4392L162.855 59.5675C162.819 59.3893 162.743 59.229 162.625 59.0865C162.507 58.9404 162.352 58.8246 162.16 58.7391C161.971 58.65 161.745 58.6054 161.481 58.6054C161.129 58.6054 160.831 58.6803 160.589 58.8299C160.346 58.976 160.225 59.172 160.225 59.4178C160.225 59.6138 160.304 59.7795 160.46 59.9149C160.617 60.0503 160.886 60.1589 161.268 60.2409L162.753 60.5402C163.551 60.7041 164.146 60.9678 164.538 61.3312C164.93 61.6946 165.126 62.1721 165.126 62.7636C165.126 63.3016 164.968 63.7737 164.651 64.1799C164.337 64.5861 163.906 64.9032 163.357 65.1312C162.812 65.3557 162.183 65.468 161.471 65.468C160.384 65.468 159.518 65.2417 158.873 64.7892C158.232 64.3331 157.856 63.7131 157.745 62.9293L159.985 62.8117C160.052 63.143 160.216 63.396 160.476 63.5706C160.737 63.7416 161.07 63.8272 161.476 63.8272C161.875 63.8272 162.196 63.7505 162.438 63.5973C162.684 63.4406 162.809 63.2392 162.812 62.9934C162.809 62.7867 162.721 62.6175 162.55 62.4856C162.379 62.3502 162.116 62.2469 161.759 62.1757L160.338 61.8924C159.536 61.7321 158.939 61.4541 158.547 61.0586C158.159 60.6631 157.965 60.1589 157.965 59.5461C157.965 59.0188 158.107 58.5645 158.392 58.1832C158.681 57.802 159.085 57.508 159.605 57.3013C160.129 57.0947 160.742 56.9914 161.444 56.9914C162.481 56.9914 163.297 57.2105 163.892 57.6487C164.49 58.087 164.84 58.6838 164.939 59.4392Z" fill="#060C3C"/>
<path opacity="0.4" d="M124.522 183.743C113.111 183.743 102.691 189.917 93.6772 213.607H346.311V105.028C335.365 105.028 324.975 125.093 313.354 125.093C302.648 125.093 299.594 137.539 295.205 137.539C291.236 137.539 289.251 134.868 286.274 134.868C283.297 134.868 283.297 148.759 277.343 148.759C273.374 148.759 269.404 144.643 262.954 144.643C256.504 144.643 252.499 155.961 247.077 155.961C232.688 155.961 239.138 132.81 229.711 132.81C221.772 132.81 220.283 146.701 211.352 146.701C199.94 146.701 202.917 127.665 195.475 127.665C186.048 127.665 191.507 160.077 176.124 160.077C163.72 160.077 162.95 170.299 156.277 170.367C149.605 170.434 142.881 164.212 136.927 164.212C127.996 164.212 134.446 183.743 124.522 183.743Z" fill="url(#paint0_linear_380_451)"/>
<path d="M93.6772 213.607C102.691 189.917 113.111 183.743 124.522 183.743C134.446 183.743 127.996 164.212 136.927 164.212C142.881 164.212 149.605 170.434 156.277 170.367C162.95 170.299 163.72 160.077 176.124 160.077C191.507 160.077 186.048 127.665 195.475 127.665C202.917 127.665 199.94 146.701 211.352 146.701C220.283 146.701 221.772 132.81 229.711 132.81C239.138 132.81 232.688 155.961 247.077 155.961C252.499 155.961 256.504 144.643 262.954 144.643C269.404 144.643 273.374 148.759 277.343 148.759C283.297 148.759 283.297 134.868 286.274 134.868C289.251 134.868 291.236 137.539 295.205 137.539C299.594 137.539 302.648 125.093 313.354 125.093C324.975 125.093 335.365 105.028 346.311 105.028" stroke="#005AEE" stroke-width="2.15007" stroke-linecap="round" stroke-linejoin="round"/>
<path d="M93.6772 213.606C102.691 189.916 113.845 193.959 125.256 193.959C135.18 193.959 134.872 177.93 143.803 177.93C149.757 177.93 156.679 180.583 163.352 180.516C170.025 180.448 171.499 165.521 183.904 165.521C199.287 165.521 192.522 147.425 201.949 147.425C209.391 147.425 207.078 151.561 218.49 151.561C227.421 151.561 233.609 134.867 241.548 134.867C250.975 134.867 239.691 165.521 254.08 165.521C259.502 165.521 265.675 180.516 272.125 180.516C278.575 180.516 277.178 158.283 281.147 158.283C287.101 158.283 284.656 145.357 290.671 145.357C296.686 145.357 297.228 145.357 301.198 145.357C305.587 145.357 303.524 141.221 314.23 141.221C325.852 141.221 334.864 151.561 345.81 151.561" stroke="#005AEE" stroke-width="2.15007" stroke-linecap="round" stroke-linejoin="round"/>
<path d="M228.745 123.805C228.347 124.138 227.768 124.138 227.369 123.805L219.719 117.43C218.174 116.143 219.084 113.629 221.095 113.629L235.019 113.629C237.03 113.629 237.94 116.143 236.395 117.43L228.745 123.805Z" fill="#005AEE"/>
<rect x="190.431" y="84.6025" width="75.2526" height="35.4762" rx="4.30015" fill="#005AEE"/>
<path d="M200.107 100.475V99.3299L204.162 92.9255H205.064V94.6113H204.491L201.592 99.2016V99.2749H207.149V100.475H200.107ZM204.556 102.308V100.127L204.565 99.6048V92.9255H205.907V102.308H204.556ZM211.915 102.436C211.259 102.436 210.678 102.323 210.174 102.097C209.673 101.871 209.281 101.559 208.997 101.162C208.713 100.765 208.572 100.313 208.576 99.8063C208.572 99.4093 208.653 99.0443 208.818 98.7114C208.986 98.3755 209.214 98.096 209.501 97.8731C209.788 97.6471 210.109 97.5035 210.463 97.4425V97.3875C209.996 97.2745 209.622 97.0241 209.341 96.6362C209.06 96.2483 208.921 95.8024 208.924 95.2985C208.921 94.819 209.047 94.3914 209.304 94.0158C209.564 93.6371 209.919 93.3393 210.371 93.1225C210.823 92.9056 211.338 92.7972 211.915 92.7972C212.486 92.7972 212.996 92.9072 213.445 93.127C213.897 93.3439 214.253 93.6417 214.513 94.0204C214.772 94.396 214.904 94.8221 214.907 95.2985C214.904 95.8024 214.76 96.2483 214.476 96.6362C214.192 97.0241 213.822 97.2745 213.367 97.3875V97.4425C213.719 97.5035 214.035 97.6471 214.316 97.8731C214.6 98.096 214.826 98.3755 214.994 98.7114C215.165 99.0443 215.252 99.4093 215.255 99.8063C215.252 100.313 215.108 100.765 214.824 101.162C214.54 101.559 214.146 101.871 213.642 102.097C213.141 102.323 212.566 102.436 211.915 102.436ZM211.915 101.277C212.303 101.277 212.639 101.213 212.923 101.084C213.207 100.953 213.427 100.771 213.583 100.539C213.738 100.304 213.818 100.029 213.821 99.7147C213.818 99.3879 213.732 99.0993 213.564 98.8489C213.399 98.5984 213.175 98.4014 212.891 98.2579C212.607 98.1144 212.282 98.0426 211.915 98.0426C211.546 98.0426 211.217 98.1144 210.93 98.2579C210.643 98.4014 210.417 98.5984 210.252 98.8489C210.087 99.0993 210.006 99.3879 210.009 99.7147C210.006 100.029 210.081 100.304 210.234 100.539C210.39 100.771 210.611 100.953 210.898 101.084C211.185 101.213 211.524 101.277 211.915 101.277ZM211.915 96.9111C212.227 96.9111 212.503 96.8484 212.744 96.7232C212.986 96.598 213.175 96.4239 213.312 96.201C213.453 95.978 213.525 95.7169 213.528 95.4176C213.525 95.1244 213.454 94.8679 213.317 94.648C213.183 94.4281 212.995 94.2586 212.754 94.1395C212.512 94.0173 212.233 93.9562 211.915 93.9562C211.591 93.9562 211.307 94.0173 211.063 94.1395C210.822 94.2586 210.634 94.4281 210.5 94.648C210.365 94.8679 210.3 95.1244 210.303 95.4176C210.3 95.7169 210.367 95.978 210.504 96.201C210.642 96.4239 210.831 96.598 211.072 96.7232C211.317 96.8484 211.598 96.9111 211.915 96.9111ZM218.174 99.9209L218.165 98.2487H218.403L221.207 95.271H222.847L219.649 98.661H219.434L218.174 99.9209ZM216.914 102.308V92.9255H218.284V102.308H216.914ZM221.358 102.308L218.838 98.9634L219.782 98.0059L223.039 102.308H221.358Z" fill="white"/>
<path opacity="0.8" d="M200.045 106.773L201.902 112.038H201.975L203.832 106.773H204.626L202.33 113.027H201.548L199.251 106.773H200.045ZM205.503 113.027V108.336H206.224V113.027H205.503ZM205.869 107.554C205.729 107.554 205.608 107.507 205.506 107.411C205.406 107.315 205.356 107.2 205.356 107.066C205.356 106.931 205.406 106.816 205.506 106.721C205.608 106.625 205.729 106.577 205.869 106.577C206.01 106.577 206.13 106.625 206.23 106.721C206.332 106.816 206.382 106.931 206.382 107.066C206.382 107.2 206.332 107.315 206.23 107.411C206.13 107.507 206.01 107.554 205.869 107.554ZM210.867 109.387L210.219 109.57C210.178 109.462 210.118 109.357 210.039 109.256C209.962 109.152 209.856 109.066 209.721 108.999C209.587 108.932 209.415 108.898 209.205 108.898C208.918 108.898 208.679 108.964 208.487 109.097C208.298 109.227 208.203 109.393 208.203 109.595C208.203 109.774 208.269 109.915 208.399 110.019C208.529 110.123 208.733 110.209 209.01 110.279L209.706 110.45C210.125 110.552 210.438 110.707 210.644 110.917C210.849 111.125 210.952 111.392 210.952 111.72C210.952 111.989 210.875 112.229 210.72 112.441C210.567 112.653 210.353 112.82 210.079 112.942C209.804 113.064 209.484 113.125 209.12 113.125C208.641 113.125 208.245 113.021 207.932 112.814C207.618 112.606 207.42 112.303 207.336 111.903L208.02 111.732C208.085 111.985 208.209 112.174 208.39 112.3C208.573 112.427 208.812 112.49 209.107 112.49C209.443 112.49 209.71 112.419 209.908 112.276C210.107 112.131 210.207 111.958 210.207 111.757C210.207 111.594 210.15 111.458 210.036 111.348C209.922 111.236 209.747 111.152 209.511 111.097L208.729 110.914C208.299 110.812 207.984 110.654 207.782 110.441C207.582 110.225 207.483 109.955 207.483 109.631C207.483 109.367 207.557 109.132 207.706 108.929C207.856 108.725 208.061 108.565 208.319 108.449C208.58 108.333 208.875 108.275 209.205 108.275C209.669 108.275 210.034 108.377 210.299 108.581C210.565 108.784 210.755 109.053 210.867 109.387ZM212.037 113.027V108.336H212.758V113.027H212.037ZM212.404 107.554C212.263 107.554 212.142 107.507 212.04 107.411C211.94 107.315 211.89 107.2 211.89 107.066C211.89 106.931 211.94 106.816 212.04 106.721C212.142 106.625 212.263 106.577 212.404 106.577C212.544 106.577 212.664 106.625 212.764 106.721C212.866 106.816 212.917 106.931 212.917 107.066C212.917 107.2 212.866 107.315 212.764 107.411C212.664 107.507 212.544 107.554 212.404 107.554ZM216.118 108.336V108.947H213.687V108.336H216.118ZM214.396 107.212H215.116V111.684C215.116 111.887 215.146 112.04 215.205 112.142C215.266 112.241 215.343 112.309 215.437 112.343C215.533 112.376 215.633 112.392 215.739 112.392C215.819 112.392 215.884 112.388 215.935 112.38C215.986 112.37 216.026 112.362 216.057 112.355L216.204 113.003C216.155 113.021 216.087 113.04 215.999 113.058C215.911 113.078 215.8 113.088 215.666 113.088C215.462 113.088 215.263 113.045 215.067 112.957C214.874 112.87 214.713 112.736 214.585 112.557C214.459 112.378 214.396 112.152 214.396 111.879V107.212ZM219.058 113.125C218.634 113.125 218.263 113.024 217.943 112.823C217.625 112.621 217.377 112.339 217.198 111.977C217.021 111.614 216.932 111.191 216.932 110.706C216.932 110.218 217.021 109.791 217.198 109.427C217.377 109.062 217.625 108.779 217.943 108.578C218.263 108.376 218.634 108.275 219.058 108.275C219.481 108.275 219.852 108.376 220.169 108.578C220.489 108.779 220.737 109.062 220.915 109.427C221.094 109.791 221.183 110.218 221.183 110.706C221.183 111.191 221.094 111.614 220.915 111.977C220.737 112.339 220.489 112.621 220.169 112.823C219.852 113.024 219.481 113.125 219.058 113.125ZM219.058 112.478C219.379 112.478 219.644 112.395 219.852 112.23C220.059 112.065 220.213 111.848 220.313 111.58C220.413 111.311 220.463 111.02 220.463 110.706C220.463 110.393 220.413 110.101 220.313 109.83C220.213 109.559 220.059 109.34 219.852 109.173C219.644 109.006 219.379 108.923 219.058 108.923C218.736 108.923 218.471 109.006 218.264 109.173C218.056 109.34 217.902 109.559 217.802 109.83C217.703 110.101 217.653 110.393 217.653 110.706C217.653 111.02 217.703 111.311 217.802 111.58C217.902 111.848 218.056 112.065 218.264 112.23C218.471 112.395 218.736 112.478 219.058 112.478ZM222.283 113.027V108.336H222.98V109.045H223.029C223.114 108.813 223.269 108.624 223.493 108.48C223.717 108.335 223.969 108.263 224.25 108.263C224.303 108.263 224.369 108.264 224.449 108.266C224.528 108.268 224.588 108.271 224.629 108.275V109.008C224.605 109.002 224.549 108.993 224.461 108.981C224.376 108.966 224.285 108.959 224.189 108.959C223.961 108.959 223.758 109.007 223.578 109.103C223.401 109.197 223.261 109.327 223.157 109.494C223.055 109.659 223.004 109.847 223.004 110.059V113.027H222.283Z" fill="white"/>
<circle cx="249.557" cy="101.804" r="7.52526" fill="white"/>
<path d="M250.109 99.916C249.825 99.6126 249.289 99.6126 249.005 99.916L246.189 102.924C245.814 103.324 246.144 103.921 246.741 103.921L252.374 103.921C252.97 103.921 253.301 103.324 252.926 102.924L250.109 99.916Z" fill="#005AEE"/>
<circle cx="228.057" cy="132.979" r="3.76263" fill="#005AEE" stroke="#005AEE" stroke-width="1.07504"/>
<defs>
<filter id="filter0_d_380_451" x="0.148612" y="0.748904" width="404.214" height="301.01" filterUnits="userSpaceOnUse" color-interpolation-filters="sRGB">
<feFlood flood-opacity="0" result="BackgroundImageFix"/>
<feColorMatrix in="SourceAlpha" type="matrix" values="0 0 0 0 0 0 0 0 0 0 0 0 0 0 0 0 0 0 127 0" result="hardAlpha"/>
<feMorphology radius="2.15007" operator="erode" in="SourceAlpha" result="effect1_dropShadow_380_451"/>
<feOffset dy="8.60029"/>
<feGaussianBlur stdDeviation="21.5007"/>
<feColorMatrix type="matrix" values="0 0 0 0 0.0235294 0 0 0 0 0.0470588 0 0 0 0 0.231373 0 0 0 0.08 0"/>
<feBlend mode="normal" in2="BackgroundImageFix" result="effect1_dropShadow_380_451"/>
<feBlend mode="normal" in="SourceGraphic" in2="effect1_dropShadow_380_451" result="shape"/>
</filter>
<linearGradient id="paint0_linear_380_451" x1="219.994" y1="72.9718" x2="219.994" y2="213.607" gradientUnits="userSpaceOnUse">
<stop stop-color="#005AEE"/>
<stop offset="1" stop-color="#005AEE" stop-opacity="0"/>
</linearGradient>
</defs>
</svg>
