<svg width="387" height="269" viewBox="0 0 387 269" fill="none" xmlns="http://www.w3.org/2000/svg">
<path opacity="0.4" d="M343.496 183.452L315.427 175.931C314.644 175.721 314.379 174.739 314.956 174.169L335.506 153.618L356.055 133.066C356.632 132.496 357.608 132.757 357.823 133.54L365.343 161.612L372.864 189.685C373.079 190.468 372.358 191.186 371.576 190.976L343.496 183.452Z" fill="#005AEE"/>
<path d="M326.088 187.256L298.018 179.735C297.236 179.525 296.971 178.543 297.548 177.973L318.098 157.421L338.647 136.87C339.224 136.3 340.2 136.561 340.415 137.343L347.935 165.416L355.456 193.489C355.67 194.271 354.95 194.99 354.168 194.78L326.088 187.256Z" stroke="#005AEE" stroke-width="1.4268" stroke-miterlimit="10"/>
<g opacity="0.2">
<path d="M113.116 104.456C112.906 105.586 111.826 106.326 110.696 106.116C109.566 105.906 108.826 104.826 109.036 103.696C109.246 102.566 110.326 101.826 111.456 102.036C112.586 102.246 113.326 103.326 113.116 104.456Z" fill="#005AEE"/>
<path d="M129.185 104.456C128.975 105.586 127.895 106.326 126.765 106.116C125.635 105.906 124.895 104.826 125.105 103.696C125.315 102.566 126.395 101.826 127.525 102.036C128.645 102.246 129.385 103.326 129.185 104.456Z" fill="#005AEE"/>
<path d="M145.246 104.456C145.036 105.586 143.955 106.326 142.825 106.116C141.695 105.906 140.955 104.826 141.165 103.696C141.375 102.566 142.456 101.826 143.586 102.036C144.706 102.246 145.456 103.326 145.246 104.456Z" fill="#005AEE"/>
<path d="M161.306 104.456C161.096 105.586 160.016 106.326 158.886 106.116C157.756 105.906 157.016 104.826 157.226 103.696C157.436 102.566 158.516 101.826 159.646 102.036C160.766 102.246 161.516 103.326 161.306 104.456Z" fill="#005AEE"/>
<path d="M177.366 104.456C177.156 105.586 176.076 106.326 174.946 106.116C173.816 105.906 173.076 104.826 173.286 103.696C173.496 102.566 174.576 101.826 175.706 102.036C176.836 102.246 177.576 103.326 177.366 104.456Z" fill="#005AEE"/>
<path d="M113.116 117.986C112.906 119.116 111.826 119.856 110.696 119.646C109.566 119.436 108.826 118.356 109.036 117.226C109.246 116.096 110.326 115.356 111.456 115.566C112.586 115.776 113.326 116.856 113.116 117.986Z" fill="#005AEE"/>
<path d="M129.185 117.986C128.975 119.116 127.895 119.856 126.765 119.646C125.635 119.436 124.895 118.356 125.105 117.226C125.315 116.096 126.395 115.356 127.525 115.566C128.645 115.776 129.385 116.856 129.185 117.986Z" fill="#005AEE"/>
<path d="M145.246 117.986C145.036 119.116 143.955 119.856 142.825 119.646C141.695 119.436 140.955 118.356 141.165 117.226C141.375 116.096 142.456 115.356 143.586 115.566C144.706 115.776 145.456 116.856 145.246 117.986Z" fill="#005AEE"/>
<path d="M161.306 117.986C161.096 119.116 160.016 119.856 158.886 119.646C157.756 119.436 157.016 118.356 157.226 117.226C157.436 116.096 158.516 115.356 159.646 115.566C160.766 115.776 161.516 116.856 161.306 117.986Z" fill="#005AEE"/>
<path d="M177.366 117.986C177.156 119.116 176.076 119.856 174.946 119.646C173.816 119.436 173.076 118.356 173.286 117.226C173.496 116.096 174.576 115.356 175.706 115.566C176.836 115.776 177.576 116.856 177.366 117.986Z" fill="#005AEE"/>
<path d="M113.116 131.515C112.906 132.645 111.826 133.385 110.696 133.175C109.566 132.965 108.826 131.885 109.036 130.755C109.246 129.625 110.326 128.885 111.456 129.095C112.586 129.305 113.326 130.385 113.116 131.515Z" fill="#005AEE"/>
<path d="M129.185 131.515C128.975 132.645 127.895 133.385 126.765 133.175C125.635 132.965 124.895 131.885 125.105 130.755C125.315 129.625 126.395 128.885 127.525 129.095C128.645 129.305 129.385 130.385 129.185 131.515Z" fill="#005AEE"/>
<path d="M145.246 131.515C145.036 132.645 143.955 133.385 142.825 133.175C141.695 132.965 140.955 131.885 141.165 130.755C141.375 129.625 142.456 128.885 143.586 129.095C144.706 129.305 145.456 130.385 145.246 131.515Z" fill="#005AEE"/>
<path d="M161.306 131.515C161.096 132.645 160.016 133.385 158.886 133.175C157.756 132.965 157.016 131.885 157.226 130.755C157.436 129.625 158.516 128.885 159.646 129.095C160.766 129.305 161.516 130.385 161.306 131.515Z" fill="#005AEE"/>
<path d="M177.366 131.515C177.156 132.645 176.076 133.385 174.946 133.175C173.816 132.965 173.076 131.885 173.286 130.755C173.496 129.625 174.576 128.885 175.706 129.095C176.836 129.305 177.576 130.385 177.366 131.515Z" fill="#005AEE"/>
<path d="M113.116 145.045C112.906 146.175 111.826 146.915 110.696 146.705C109.566 146.495 108.826 145.415 109.036 144.285C109.246 143.155 110.326 142.415 111.456 142.625C112.586 142.835 113.326 143.915 113.116 145.045Z" fill="#005AEE"/>
<path d="M129.185 145.045C128.975 146.175 127.895 146.915 126.765 146.705C125.635 146.495 124.895 145.415 125.105 144.285C125.315 143.155 126.395 142.415 127.525 142.625C128.645 142.835 129.385 143.915 129.185 145.045Z" fill="#005AEE"/>
<path d="M145.246 145.045C145.036 146.175 143.955 146.915 142.825 146.705C141.695 146.495 140.955 145.415 141.165 144.285C141.375 143.155 142.456 142.415 143.586 142.625C144.706 142.835 145.456 143.915 145.246 145.045Z" fill="#005AEE"/>
<path d="M161.306 145.045C161.096 146.175 160.016 146.915 158.886 146.705C157.756 146.495 157.016 145.415 157.226 144.285C157.436 143.155 158.516 142.415 159.646 142.625C160.766 142.835 161.516 143.915 161.306 145.045Z" fill="#005AEE"/>
<path d="M177.366 145.045C177.156 146.175 176.076 146.915 174.946 146.705C173.816 146.495 173.076 145.415 173.286 144.285C173.496 143.155 174.576 142.415 175.706 142.625C176.836 142.835 177.576 143.915 177.366 145.045Z" fill="#005AEE"/>
<path d="M113.116 158.576C112.906 159.706 111.826 160.446 110.696 160.236C109.566 160.026 108.826 158.946 109.036 157.816C109.246 156.686 110.326 155.946 111.456 156.156C112.586 156.366 113.326 157.446 113.116 158.576Z" fill="#005AEE"/>
<path d="M129.185 158.576C128.975 159.706 127.895 160.446 126.765 160.236C125.635 160.026 124.895 158.946 125.105 157.816C125.315 156.686 126.395 155.946 127.525 156.156C128.655 156.366 129.385 157.446 129.185 158.576Z" fill="#005AEE"/>
<path d="M145.246 158.576C145.036 159.706 143.955 160.446 142.825 160.236C141.695 160.026 140.955 158.946 141.165 157.816C141.375 156.686 142.456 155.946 143.586 156.156C144.706 156.366 145.456 157.446 145.246 158.576Z" fill="#005AEE"/>
<path d="M161.306 158.576C161.096 159.706 160.016 160.446 158.886 160.236C157.756 160.026 157.016 158.946 157.226 157.816C157.436 156.686 158.516 155.946 159.646 156.156C160.766 156.366 161.516 157.446 161.306 158.576Z" fill="#005AEE"/>
<path d="M177.366 158.576C177.156 159.706 176.076 160.446 174.946 160.236C173.816 160.026 173.076 158.946 173.286 157.816C173.496 156.686 174.576 155.946 175.706 156.156C176.836 156.366 177.576 157.446 177.366 158.576Z" fill="#005AEE"/>
<path d="M113.116 172.106C112.906 173.236 111.826 173.976 110.696 173.766C109.566 173.556 108.826 172.476 109.036 171.346C109.246 170.216 110.326 169.476 111.456 169.686C112.586 169.896 113.326 170.976 113.116 172.106Z" fill="#005AEE"/>
<path d="M129.185 172.106C128.975 173.236 127.895 173.976 126.765 173.766C125.635 173.556 124.895 172.476 125.105 171.346C125.315 170.216 126.395 169.476 127.525 169.686C128.655 169.896 129.385 170.976 129.185 172.106Z" fill="#005AEE"/>
<path d="M145.246 172.106C145.036 173.236 143.955 173.976 142.825 173.766C141.695 173.556 140.955 172.476 141.165 171.346C141.375 170.216 142.456 169.476 143.586 169.686C144.706 169.896 145.456 170.976 145.246 172.106Z" fill="#005AEE"/>
<path d="M161.306 172.106C161.096 173.236 160.016 173.976 158.886 173.766C157.756 173.556 157.016 172.476 157.226 171.346C157.436 170.216 158.516 169.476 159.646 169.686C160.766 169.896 161.516 170.976 161.306 172.106Z" fill="#005AEE"/>
<path d="M177.366 172.106C177.156 173.236 176.076 173.976 174.946 173.766C173.816 173.556 173.076 172.476 173.286 171.346C173.496 170.216 174.576 169.476 175.706 169.686C176.836 169.896 177.576 170.976 177.366 172.106Z" fill="#005AEE"/>
<path d="M113.116 185.635C112.906 186.765 111.826 187.505 110.696 187.295C109.566 187.085 108.826 186.005 109.036 184.875C109.246 183.745 110.326 183.005 111.456 183.215C112.586 183.425 113.326 184.505 113.116 185.635Z" fill="#005AEE"/>
<path d="M129.185 185.635C128.975 186.765 127.895 187.505 126.765 187.295C125.635 187.085 124.895 186.005 125.105 184.875C125.315 183.745 126.395 183.005 127.525 183.215C128.645 183.425 129.385 184.505 129.185 185.635Z" fill="#005AEE"/>
<path d="M145.246 185.635C145.036 186.765 143.955 187.505 142.825 187.295C141.695 187.085 140.955 186.005 141.165 184.875C141.375 183.745 142.456 183.005 143.586 183.215C144.706 183.425 145.456 184.505 145.246 185.635Z" fill="#005AEE"/>
<path d="M161.306 185.635C161.096 186.765 160.016 187.505 158.886 187.295C157.756 187.085 157.016 186.005 157.226 184.875C157.436 183.745 158.516 183.005 159.646 183.215C160.766 183.425 161.516 184.505 161.306 185.635Z" fill="#005AEE"/>
<path d="M177.366 185.635C177.156 186.765 176.076 187.505 174.946 187.295C173.816 187.085 173.076 186.005 173.286 184.875C173.496 183.745 174.576 183.005 175.706 183.215C176.836 183.425 177.576 184.505 177.366 185.635Z" fill="#005AEE"/>
<path d="M113.116 199.166C112.906 200.296 111.826 201.036 110.696 200.826C109.566 200.616 108.826 199.536 109.036 198.406C109.246 197.276 110.326 196.536 111.456 196.746C112.586 196.956 113.326 198.036 113.116 199.166Z" fill="#005AEE"/>
<path d="M129.185 199.166C128.975 200.296 127.895 201.036 126.765 200.826C125.635 200.616 124.895 199.536 125.105 198.406C125.315 197.276 126.395 196.536 127.525 196.746C128.645 196.956 129.385 198.036 129.185 199.166Z" fill="#005AEE"/>
<path d="M145.246 199.166C145.036 200.296 143.955 201.036 142.825 200.826C141.695 200.616 140.955 199.536 141.165 198.406C141.375 197.276 142.456 196.536 143.586 196.746C144.706 196.956 145.456 198.036 145.246 199.166Z" fill="#005AEE"/>
<path d="M161.306 199.166C161.096 200.296 160.016 201.036 158.886 200.826C157.756 200.616 157.016 199.536 157.226 198.406C157.436 197.276 158.516 196.536 159.646 196.746C160.766 196.956 161.516 198.036 161.306 199.166Z" fill="#005AEE"/>
<path d="M177.366 199.166C177.156 200.296 176.076 201.036 174.946 200.826C173.816 200.616 173.076 199.536 173.286 198.406C173.496 197.276 174.576 196.536 175.706 196.746C176.836 196.956 177.576 198.036 177.366 199.166Z" fill="#005AEE"/>
<path d="M113.116 212.696C112.906 213.826 111.826 214.566 110.696 214.356C109.566 214.146 108.826 213.066 109.036 211.936C109.246 210.806 110.326 210.066 111.456 210.276C112.586 210.486 113.326 211.566 113.116 212.696Z" fill="#005AEE"/>
<path d="M129.185 212.696C128.975 213.826 127.895 214.566 126.765 214.356C125.635 214.146 124.895 213.066 125.105 211.936C125.315 210.806 126.395 210.066 127.525 210.276C128.645 210.486 129.385 211.566 129.185 212.696Z" fill="#005AEE"/>
<path d="M145.246 212.696C145.036 213.826 143.955 214.566 142.825 214.356C141.695 214.146 140.955 213.066 141.165 211.936C141.375 210.806 142.456 210.066 143.586 210.276C144.706 210.486 145.456 211.566 145.246 212.696Z" fill="#005AEE"/>
<path d="M161.306 212.696C161.096 213.826 160.016 214.566 158.886 214.356C157.756 214.146 157.016 213.066 157.226 211.936C157.436 210.806 158.516 210.066 159.646 210.276C160.766 210.486 161.516 211.566 161.306 212.696Z" fill="#005AEE"/>
<path d="M177.366 212.696C177.156 213.826 176.076 214.566 174.946 214.356C173.816 214.146 173.076 213.066 173.286 211.936C173.496 210.806 174.576 210.066 175.706 210.276C176.836 210.486 177.576 211.566 177.366 212.696Z" fill="#005AEE"/>
<path d="M113.116 226.225C112.906 227.355 111.826 228.095 110.696 227.885C109.566 227.675 108.826 226.595 109.036 225.465C109.246 224.335 110.326 223.595 111.456 223.805C112.586 224.015 113.326 225.095 113.116 226.225Z" fill="#005AEE"/>
<path d="M129.185 226.225C128.975 227.355 127.895 228.095 126.765 227.885C125.635 227.675 124.895 226.595 125.105 225.465C125.315 224.335 126.395 223.595 127.525 223.805C128.645 224.015 129.385 225.095 129.185 226.225Z" fill="#005AEE"/>
<path d="M145.246 226.225C145.036 227.355 143.955 228.095 142.825 227.885C141.695 227.675 140.955 226.595 141.165 225.465C141.375 224.335 142.456 223.595 143.586 223.805C144.706 224.015 145.456 225.095 145.246 226.225Z" fill="#005AEE"/>
<path d="M161.306 226.225C161.096 227.355 160.016 228.095 158.886 227.885C157.756 227.675 157.016 226.595 157.226 225.465C157.436 224.335 158.516 223.595 159.646 223.805C160.766 224.015 161.516 225.095 161.306 226.225Z" fill="#005AEE"/>
<path d="M177.366 226.225C177.156 227.355 176.076 228.095 174.946 227.885C173.816 227.675 173.076 226.595 173.286 225.465C173.496 224.335 174.576 223.595 175.706 223.805C176.836 224.015 177.576 225.095 177.366 226.225Z" fill="#005AEE"/>
<path d="M113.116 239.755C112.906 240.885 111.826 241.625 110.696 241.415C109.566 241.205 108.826 240.125 109.036 238.995C109.246 237.865 110.326 237.125 111.456 237.335C112.586 237.545 113.326 238.625 113.116 239.755Z" fill="#005AEE"/>
<path d="M129.185 239.755C128.975 240.885 127.895 241.625 126.765 241.415C125.635 241.205 124.895 240.125 125.105 238.995C125.315 237.865 126.395 237.125 127.525 237.335C128.645 237.545 129.385 238.625 129.185 239.755Z" fill="#005AEE"/>
<path d="M145.246 239.755C145.036 240.885 143.955 241.625 142.825 241.415C141.695 241.205 140.955 240.125 141.165 238.995C141.375 237.865 142.456 237.125 143.586 237.335C144.706 237.545 145.456 238.625 145.246 239.755Z" fill="#005AEE"/>
<path d="M161.306 239.755C161.096 240.885 160.016 241.625 158.886 241.415C157.756 241.205 157.016 240.125 157.226 238.995C157.436 237.865 158.516 237.125 159.646 237.335C160.766 237.545 161.516 238.625 161.306 239.755Z" fill="#005AEE"/>
<path d="M177.366 239.755C177.156 240.885 176.076 241.625 174.946 241.415C173.816 241.205 173.076 240.125 173.286 238.995C173.496 237.865 174.576 237.125 175.706 237.335C176.836 237.545 177.576 238.625 177.366 239.755Z" fill="#005AEE"/>
<path d="M193.116 104.456C192.906 105.586 191.826 106.326 190.696 106.116C189.566 105.906 188.826 104.826 189.036 103.696C189.246 102.566 190.326 101.826 191.456 102.036C192.586 102.246 193.326 103.326 193.116 104.456Z" fill="#005AEE"/>
<path d="M209.185 104.456C208.975 105.586 207.895 106.326 206.765 106.116C205.635 105.906 204.895 104.826 205.105 103.696C205.315 102.566 206.395 101.826 207.525 102.036C208.645 102.246 209.385 103.326 209.185 104.456Z" fill="#005AEE"/>
<path d="M225.246 104.456C225.036 105.586 223.955 106.326 222.825 106.116C221.695 105.906 220.955 104.826 221.165 103.696C221.375 102.566 222.456 101.826 223.586 102.036C224.706 102.246 225.456 103.326 225.246 104.456Z" fill="#005AEE"/>
<path d="M241.306 104.456C241.096 105.586 240.016 106.326 238.886 106.116C237.756 105.906 237.016 104.826 237.226 103.696C237.436 102.566 238.516 101.826 239.646 102.036C240.766 102.246 241.516 103.326 241.306 104.456Z" fill="#005AEE"/>
<path d="M257.366 104.456C257.156 105.586 256.076 106.326 254.946 106.116C253.816 105.906 253.076 104.826 253.286 103.696C253.496 102.566 254.576 101.826 255.706 102.036C256.836 102.246 257.576 103.326 257.366 104.456Z" fill="#005AEE"/>
<path d="M193.116 117.986C192.906 119.116 191.826 119.856 190.696 119.646C189.566 119.436 188.826 118.356 189.036 117.226C189.246 116.096 190.326 115.356 191.456 115.566C192.586 115.776 193.326 116.856 193.116 117.986Z" fill="#005AEE"/>
<path d="M209.185 117.986C208.975 119.116 207.895 119.856 206.765 119.646C205.635 119.436 204.895 118.356 205.105 117.226C205.315 116.096 206.395 115.356 207.525 115.566C208.645 115.776 209.385 116.856 209.185 117.986Z" fill="#005AEE"/>
<path d="M225.246 117.986C225.036 119.116 223.955 119.856 222.825 119.646C221.695 119.436 220.955 118.356 221.165 117.226C221.375 116.096 222.456 115.356 223.586 115.566C224.706 115.776 225.456 116.856 225.246 117.986Z" fill="#005AEE"/>
<path d="M241.306 117.986C241.096 119.116 240.016 119.856 238.886 119.646C237.756 119.436 237.016 118.356 237.226 117.226C237.436 116.096 238.516 115.356 239.646 115.566C240.766 115.776 241.516 116.856 241.306 117.986Z" fill="#005AEE"/>
<path d="M257.366 117.986C257.156 119.116 256.076 119.856 254.946 119.646C253.816 119.436 253.076 118.356 253.286 117.226C253.496 116.096 254.576 115.356 255.706 115.566C256.836 115.776 257.576 116.856 257.366 117.986Z" fill="#005AEE"/>
<path d="M193.116 131.515C192.906 132.645 191.826 133.385 190.696 133.175C189.566 132.965 188.826 131.885 189.036 130.755C189.246 129.625 190.326 128.885 191.456 129.095C192.586 129.305 193.326 130.385 193.116 131.515Z" fill="#005AEE"/>
<path d="M209.185 131.515C208.975 132.645 207.895 133.385 206.765 133.175C205.635 132.965 204.895 131.885 205.105 130.755C205.315 129.625 206.395 128.885 207.525 129.095C208.645 129.305 209.385 130.385 209.185 131.515Z" fill="#005AEE"/>
<path d="M225.246 131.515C225.036 132.645 223.955 133.385 222.825 133.175C221.695 132.965 220.955 131.885 221.165 130.755C221.375 129.625 222.456 128.885 223.586 129.095C224.706 129.305 225.456 130.385 225.246 131.515Z" fill="#005AEE"/>
<path d="M241.306 131.515C241.096 132.645 240.016 133.385 238.886 133.175C237.756 132.965 237.016 131.885 237.226 130.755C237.436 129.625 238.516 128.885 239.646 129.095C240.766 129.305 241.516 130.385 241.306 131.515Z" fill="#005AEE"/>
<path d="M257.366 131.515C257.156 132.645 256.076 133.385 254.946 133.175C253.816 132.965 253.076 131.885 253.286 130.755C253.496 129.625 254.576 128.885 255.706 129.095C256.836 129.305 257.576 130.385 257.366 131.515Z" fill="#005AEE"/>
<path d="M193.116 145.045C192.906 146.175 191.826 146.915 190.696 146.705C189.566 146.495 188.826 145.415 189.036 144.285C189.246 143.155 190.326 142.415 191.456 142.625C192.586 142.835 193.326 143.915 193.116 145.045Z" fill="#005AEE"/>
<path d="M209.185 145.045C208.975 146.175 207.895 146.915 206.765 146.705C205.635 146.495 204.895 145.415 205.105 144.285C205.315 143.155 206.395 142.415 207.525 142.625C208.645 142.835 209.385 143.915 209.185 145.045Z" fill="#005AEE"/>
<path d="M225.246 145.045C225.036 146.175 223.955 146.915 222.825 146.705C221.695 146.495 220.955 145.415 221.165 144.285C221.375 143.155 222.456 142.415 223.586 142.625C224.706 142.835 225.456 143.915 225.246 145.045Z" fill="#005AEE"/>
<path d="M241.306 145.045C241.096 146.175 240.016 146.915 238.886 146.705C237.756 146.495 237.016 145.415 237.226 144.285C237.436 143.155 238.516 142.415 239.646 142.625C240.766 142.835 241.516 143.915 241.306 145.045Z" fill="#005AEE"/>
<path d="M257.366 145.045C257.156 146.175 256.076 146.915 254.946 146.705C253.816 146.495 253.076 145.415 253.286 144.285C253.496 143.155 254.576 142.415 255.706 142.625C256.836 142.835 257.576 143.915 257.366 145.045Z" fill="#005AEE"/>
<path d="M193.116 158.576C192.906 159.706 191.826 160.446 190.696 160.236C189.566 160.026 188.826 158.946 189.036 157.816C189.246 156.686 190.326 155.946 191.456 156.156C192.586 156.366 193.326 157.446 193.116 158.576Z" fill="#005AEE"/>
<path d="M209.185 158.576C208.975 159.706 207.895 160.446 206.765 160.236C205.635 160.026 204.895 158.946 205.105 157.816C205.315 156.686 206.395 155.946 207.525 156.156C208.655 156.366 209.385 157.446 209.185 158.576Z" fill="#005AEE"/>
<path d="M225.246 158.576C225.036 159.706 223.955 160.446 222.825 160.236C221.695 160.026 220.955 158.946 221.165 157.816C221.375 156.686 222.456 155.946 223.586 156.156C224.706 156.366 225.456 157.446 225.246 158.576Z" fill="#005AEE"/>
<path d="M241.306 158.576C241.096 159.706 240.016 160.446 238.886 160.236C237.756 160.026 237.016 158.946 237.226 157.816C237.436 156.686 238.516 155.946 239.646 156.156C240.766 156.366 241.516 157.446 241.306 158.576Z" fill="#005AEE"/>
<path d="M257.366 158.576C257.156 159.706 256.076 160.446 254.946 160.236C253.816 160.026 253.076 158.946 253.286 157.816C253.496 156.686 254.576 155.946 255.706 156.156C256.836 156.366 257.576 157.446 257.366 158.576Z" fill="#005AEE"/>
<path d="M193.116 172.106C192.906 173.236 191.826 173.976 190.696 173.766C189.566 173.556 188.826 172.476 189.036 171.346C189.246 170.216 190.326 169.476 191.456 169.686C192.586 169.896 193.326 170.976 193.116 172.106Z" fill="#005AEE"/>
<path d="M209.185 172.106C208.975 173.236 207.895 173.976 206.765 173.766C205.635 173.556 204.895 172.476 205.105 171.346C205.315 170.216 206.395 169.476 207.525 169.686C208.655 169.896 209.385 170.976 209.185 172.106Z" fill="#005AEE"/>
<path d="M225.246 172.106C225.036 173.236 223.955 173.976 222.825 173.766C221.695 173.556 220.955 172.476 221.165 171.346C221.375 170.216 222.456 169.476 223.586 169.686C224.706 169.896 225.456 170.976 225.246 172.106Z" fill="#005AEE"/>
<path d="M241.306 172.106C241.096 173.236 240.016 173.976 238.886 173.766C237.756 173.556 237.016 172.476 237.226 171.346C237.436 170.216 238.516 169.476 239.646 169.686C240.766 169.896 241.516 170.976 241.306 172.106Z" fill="#005AEE"/>
<path d="M257.366 172.106C257.156 173.236 256.076 173.976 254.946 173.766C253.816 173.556 253.076 172.476 253.286 171.346C253.496 170.216 254.576 169.476 255.706 169.686C256.836 169.896 257.576 170.976 257.366 172.106Z" fill="#005AEE"/>
<path d="M193.116 185.635C192.906 186.765 191.826 187.505 190.696 187.295C189.566 187.085 188.826 186.005 189.036 184.875C189.246 183.745 190.326 183.005 191.456 183.215C192.586 183.425 193.326 184.505 193.116 185.635Z" fill="#005AEE"/>
<path d="M209.185 185.635C208.975 186.765 207.895 187.505 206.765 187.295C205.635 187.085 204.895 186.005 205.105 184.875C205.315 183.745 206.395 183.005 207.525 183.215C208.645 183.425 209.385 184.505 209.185 185.635Z" fill="#005AEE"/>
<path d="M225.246 185.635C225.036 186.765 223.955 187.505 222.825 187.295C221.695 187.085 220.955 186.005 221.165 184.875C221.375 183.745 222.456 183.005 223.586 183.215C224.706 183.425 225.456 184.505 225.246 185.635Z" fill="#005AEE"/>
<path d="M241.306 185.635C241.096 186.765 240.016 187.505 238.886 187.295C237.756 187.085 237.016 186.005 237.226 184.875C237.436 183.745 238.516 183.005 239.646 183.215C240.766 183.425 241.516 184.505 241.306 185.635Z" fill="#005AEE"/>
<path d="M257.366 185.635C257.156 186.765 256.076 187.505 254.946 187.295C253.816 187.085 253.076 186.005 253.286 184.875C253.496 183.745 254.576 183.005 255.706 183.215C256.836 183.425 257.576 184.505 257.366 185.635Z" fill="#005AEE"/>
<path d="M193.116 199.166C192.906 200.296 191.826 201.036 190.696 200.826C189.566 200.616 188.826 199.536 189.036 198.406C189.246 197.276 190.326 196.536 191.456 196.746C192.586 196.956 193.326 198.036 193.116 199.166Z" fill="#005AEE"/>
<path d="M209.185 199.166C208.975 200.296 207.895 201.036 206.765 200.826C205.635 200.616 204.895 199.536 205.105 198.406C205.315 197.276 206.395 196.536 207.525 196.746C208.645 196.956 209.385 198.036 209.185 199.166Z" fill="#005AEE"/>
<path d="M225.246 199.166C225.036 200.296 223.955 201.036 222.825 200.826C221.695 200.616 220.955 199.536 221.165 198.406C221.375 197.276 222.456 196.536 223.586 196.746C224.706 196.956 225.456 198.036 225.246 199.166Z" fill="#005AEE"/>
<path d="M241.306 199.166C241.096 200.296 240.016 201.036 238.886 200.826C237.756 200.616 237.016 199.536 237.226 198.406C237.436 197.276 238.516 196.536 239.646 196.746C240.766 196.956 241.516 198.036 241.306 199.166Z" fill="#005AEE"/>
<path d="M257.366 199.166C257.156 200.296 256.076 201.036 254.946 200.826C253.816 200.616 253.076 199.536 253.286 198.406C253.496 197.276 254.576 196.536 255.706 196.746C256.836 196.956 257.576 198.036 257.366 199.166Z" fill="#005AEE"/>
<path d="M193.116 212.696C192.906 213.826 191.826 214.566 190.696 214.356C189.566 214.146 188.826 213.066 189.036 211.936C189.246 210.806 190.326 210.066 191.456 210.276C192.586 210.486 193.326 211.566 193.116 212.696Z" fill="#005AEE"/>
<path d="M209.185 212.696C208.975 213.826 207.895 214.566 206.765 214.356C205.635 214.146 204.895 213.066 205.105 211.936C205.315 210.806 206.395 210.066 207.525 210.276C208.645 210.486 209.385 211.566 209.185 212.696Z" fill="#005AEE"/>
<path d="M225.246 212.696C225.036 213.826 223.955 214.566 222.825 214.356C221.695 214.146 220.955 213.066 221.165 211.936C221.375 210.806 222.456 210.066 223.586 210.276C224.706 210.486 225.456 211.566 225.246 212.696Z" fill="#005AEE"/>
<path d="M241.306 212.696C241.096 213.826 240.016 214.566 238.886 214.356C237.756 214.146 237.016 213.066 237.226 211.936C237.436 210.806 238.516 210.066 239.646 210.276C240.766 210.486 241.516 211.566 241.306 212.696Z" fill="#005AEE"/>
<path d="M257.366 212.696C257.156 213.826 256.076 214.566 254.946 214.356C253.816 214.146 253.076 213.066 253.286 211.936C253.496 210.806 254.576 210.066 255.706 210.276C256.836 210.486 257.576 211.566 257.366 212.696Z" fill="#005AEE"/>
<path d="M193.116 226.225C192.906 227.355 191.826 228.095 190.696 227.885C189.566 227.675 188.826 226.595 189.036 225.465C189.246 224.335 190.326 223.595 191.456 223.805C192.586 224.015 193.326 225.095 193.116 226.225Z" fill="#005AEE"/>
<path d="M209.185 226.225C208.975 227.355 207.895 228.095 206.765 227.885C205.635 227.675 204.895 226.595 205.105 225.465C205.315 224.335 206.395 223.595 207.525 223.805C208.645 224.015 209.385 225.095 209.185 226.225Z" fill="#005AEE"/>
<path d="M225.246 226.225C225.036 227.355 223.955 228.095 222.825 227.885C221.695 227.675 220.955 226.595 221.165 225.465C221.375 224.335 222.456 223.595 223.586 223.805C224.706 224.015 225.456 225.095 225.246 226.225Z" fill="#005AEE"/>
<path d="M241.306 226.225C241.096 227.355 240.016 228.095 238.886 227.885C237.756 227.675 237.016 226.595 237.226 225.465C237.436 224.335 238.516 223.595 239.646 223.805C240.766 224.015 241.516 225.095 241.306 226.225Z" fill="#005AEE"/>
<path d="M257.366 226.225C257.156 227.355 256.076 228.095 254.946 227.885C253.816 227.675 253.076 226.595 253.286 225.465C253.496 224.335 254.576 223.595 255.706 223.805C256.836 224.015 257.576 225.095 257.366 226.225Z" fill="#005AEE"/>
<path d="M193.116 239.755C192.906 240.885 191.826 241.625 190.696 241.415C189.566 241.205 188.826 240.125 189.036 238.995C189.246 237.865 190.326 237.125 191.456 237.335C192.586 237.545 193.326 238.625 193.116 239.755Z" fill="#005AEE"/>
<path d="M209.185 239.755C208.975 240.885 207.895 241.625 206.765 241.415C205.635 241.205 204.895 240.125 205.105 238.995C205.315 237.865 206.395 237.125 207.525 237.335C208.645 237.545 209.385 238.625 209.185 239.755Z" fill="#005AEE"/>
<path d="M225.246 239.755C225.036 240.885 223.955 241.625 222.825 241.415C221.695 241.205 220.955 240.125 221.165 238.995C221.375 237.865 222.456 237.125 223.586 237.335C224.706 237.545 225.456 238.625 225.246 239.755Z" fill="#005AEE"/>
<path d="M241.306 239.755C241.096 240.885 240.016 241.625 238.886 241.415C237.756 241.205 237.016 240.125 237.226 238.995C237.436 237.865 238.516 237.125 239.646 237.335C240.766 237.545 241.516 238.625 241.306 239.755Z" fill="#005AEE"/>
<path d="M257.366 239.755C257.156 240.885 256.076 241.625 254.946 241.415C253.816 241.205 253.076 240.125 253.286 238.995C253.496 237.865 254.576 237.125 255.706 237.335C256.836 237.545 257.576 238.625 257.366 239.755Z" fill="#005AEE"/>
</g>
<g filter="url(#filter0_d_380_453)">
<rect x="36" y="61" width="168.597" height="164.851" rx="5.61991" fill="white"/>
</g>
<path d="M56.9018 81.7265C56.8646 81.3508 56.7047 81.059 56.4222 80.851C56.1397 80.643 55.7563 80.539 55.272 80.539C54.9429 80.539 54.6651 80.5856 54.4385 80.6787C54.2118 80.7687 54.038 80.8945 53.9169 81.0559C53.799 81.2173 53.74 81.4005 53.74 81.6054C53.7338 81.7761 53.7695 81.9251 53.8471 82.0524C53.9278 82.1797 54.038 82.2899 54.1777 82.383C54.3174 82.4731 54.4788 82.5522 54.662 82.6205C54.8452 82.6857 55.0407 82.7416 55.2487 82.7882L56.1056 82.9931C56.5215 83.0862 56.9034 83.2104 57.2511 83.3656C57.5988 83.5208 57.8999 83.7117 58.1545 83.9384C58.409 84.165 58.6062 84.432 58.7459 84.7393C58.8887 85.0466 58.9616 85.399 58.9647 85.7964C58.9616 86.38 58.8126 86.886 58.5177 87.3144C58.2259 87.7397 57.8037 88.0704 57.2511 88.3063C56.7016 88.5391 56.0388 88.6556 55.2627 88.6556C54.4928 88.6556 53.8222 88.5376 53.251 88.3016C52.6829 88.0657 52.239 87.7165 51.9192 87.2539C51.6026 86.7882 51.4365 86.2124 51.421 85.5263H53.3721C53.3938 85.846 53.4854 86.113 53.6468 86.3272C53.8114 86.5383 54.0302 86.6982 54.3034 86.8069C54.5797 86.9124 54.8917 86.9652 55.2394 86.9652C55.5809 86.9652 55.8774 86.9155 56.1288 86.8162C56.3834 86.7168 56.5805 86.5787 56.7202 86.4017C56.8599 86.2248 56.9298 86.0214 56.9298 85.7917C56.9298 85.5775 56.8661 85.3974 56.7389 85.2515C56.6147 85.1056 56.4315 84.9815 56.1894 84.879C55.9503 84.7766 55.657 84.6834 55.3093 84.5996L54.2708 84.3388C53.4668 84.1433 52.8319 83.8375 52.3663 83.4215C51.9006 83.0055 51.6693 82.4451 51.6724 81.7404C51.6693 81.163 51.823 80.6585 52.1334 80.227C52.447 79.7955 52.8769 79.4587 53.4233 79.2165C53.9697 78.9744 54.5906 78.8533 55.286 78.8533C55.9938 78.8533 56.6116 78.9744 57.1393 79.2165C57.6702 79.4587 58.0831 79.7955 58.378 80.227C58.6729 80.6585 58.825 81.1583 58.8343 81.7265H56.9018ZM62.3233 88.6556C61.867 88.6556 61.4603 88.5764 61.1033 88.4181C60.7463 88.2566 60.4638 88.0191 60.2558 87.7056C60.0509 87.3889 59.9485 86.9947 59.9485 86.5228C59.9485 86.1254 60.0214 85.7917 60.1673 85.5216C60.3132 85.2515 60.5119 85.0342 60.7634 84.8697C61.0148 84.7052 61.3004 84.581 61.6202 84.4972C61.9431 84.4133 62.2814 84.3544 62.6353 84.3202C63.0513 84.2767 63.3866 84.2364 63.6412 84.1991C63.8957 84.1588 64.0805 84.0998 64.1953 84.0222C64.3102 83.9446 64.3676 83.8297 64.3676 83.6776V83.6496C64.3676 83.3547 64.2745 83.1266 64.0882 82.9651C63.9051 82.8037 63.6443 82.723 63.3059 82.723C62.9489 82.723 62.6648 82.8021 62.4537 82.9605C62.2426 83.1157 62.1029 83.3113 62.0346 83.5472L60.1999 83.3982C60.293 82.9636 60.4762 82.5879 60.7494 82.2713C61.0226 81.9515 61.3749 81.7063 61.8065 81.5355C62.2411 81.3617 62.744 81.2748 63.3152 81.2748C63.7126 81.2748 64.0929 81.3213 64.4561 81.4145C64.8224 81.5076 65.1468 81.6519 65.4293 81.8475C65.7149 82.0431 65.94 82.2946 66.1045 82.6019C66.2691 82.9061 66.3514 83.2709 66.3514 83.6962V88.5205H64.4701V87.5286H64.4142C64.2993 87.7522 64.1456 87.9493 63.9532 88.12C63.7607 88.2877 63.5294 88.4196 63.2593 88.5159C62.9892 88.609 62.6773 88.6556 62.3233 88.6556ZM62.8915 87.2865C63.1833 87.2865 63.4409 87.2291 63.6645 87.1142C63.888 86.9962 64.0634 86.8379 64.1907 86.6392C64.3179 86.4405 64.3816 86.2155 64.3816 85.964V85.205C64.3195 85.2453 64.2341 85.2826 64.1255 85.3167C64.0199 85.3478 63.9004 85.3773 63.7669 85.4052C63.6334 85.43 63.4999 85.4533 63.3664 85.4751C63.2329 85.4937 63.1119 85.5108 63.0032 85.5263C62.7704 85.5604 62.567 85.6148 62.3932 85.6893C62.2193 85.7638 62.0843 85.8647 61.9881 85.9919C61.8918 86.1161 61.8437 86.2713 61.8437 86.4576C61.8437 86.7277 61.9415 86.9341 62.1371 87.0769C62.3358 87.2166 62.5872 87.2865 62.8915 87.2865ZM69.8741 78.9837V88.5205H67.8904V78.9837H69.8741ZM74.7228 88.6602C73.9871 88.6602 73.3538 88.5112 72.8229 88.2132C72.2952 87.912 71.8885 87.4867 71.6029 86.9372C71.3173 86.3847 71.1745 85.7312 71.1745 84.9768C71.1745 84.241 71.3173 83.5953 71.6029 83.0396C71.8885 82.4839 72.2905 82.0509 72.809 81.7404C73.3305 81.43 73.9421 81.2748 74.6437 81.2748C75.1156 81.2748 75.5548 81.3508 75.9615 81.5029C76.3713 81.6519 76.7283 81.877 77.0325 82.1781C77.3399 82.4793 77.5789 82.858 77.7497 83.3144C77.9204 83.7676 78.0058 84.2985 78.0058 84.9069V85.4518H71.9661V84.2224H76.1385C76.1385 83.9368 76.0764 83.6838 75.9522 83.4634C75.828 83.243 75.6557 83.0707 75.4353 82.9465C75.218 82.8192 74.965 82.7556 74.6763 82.7556C74.3752 82.7556 74.1082 82.8254 73.8753 82.9651C73.6456 83.1017 73.4656 83.2864 73.3352 83.5193C73.2048 83.749 73.138 84.0051 73.1349 84.2876V85.4564C73.1349 85.8103 73.2001 86.1161 73.3305 86.3738C73.464 86.6315 73.6518 86.8301 73.894 86.9698C74.1361 87.1095 74.4233 87.1794 74.7554 87.1794C74.9759 87.1794 75.1776 87.1483 75.3608 87.0863C75.544 87.0242 75.7007 86.931 75.8311 86.8069C75.9615 86.6827 76.0609 86.5306 76.1292 86.3505L77.9639 86.4716C77.8707 86.9124 77.6798 87.2974 77.3911 87.6264C77.1055 87.9524 76.7361 88.207 76.2828 88.3901C75.8327 88.5702 75.3127 88.6602 74.7228 88.6602ZM85.2515 83.4075L83.4354 83.5193C83.4044 83.364 83.3377 83.2243 83.2352 83.1002C83.1328 82.9729 82.9977 82.872 82.8301 82.7975C82.6655 82.7199 82.4684 82.6811 82.2387 82.6811C81.9313 82.6811 81.6721 82.7463 81.461 82.8766C81.2499 83.0039 81.1444 83.1747 81.1444 83.3889C81.1444 83.5596 81.2127 83.704 81.3493 83.8219C81.4859 83.9399 81.7202 84.0346 82.0524 84.106L83.347 84.3668C84.0424 84.5096 84.5608 84.7393 84.9023 85.056C85.2438 85.3726 85.4145 85.7886 85.4145 86.3039C85.4145 86.7727 85.2764 87.184 85.0001 87.538C84.7269 87.8919 84.3513 88.1682 83.8732 88.3668C83.3982 88.5624 82.8503 88.6602 82.2294 88.6602C81.2825 88.6602 80.5281 88.4631 79.9662 88.0688C79.4074 87.6714 79.0799 87.1313 78.9837 86.4483L80.9348 86.3459C80.9938 86.6346 81.1366 86.855 81.3632 87.0071C81.5899 87.1561 81.8801 87.2306 82.234 87.2306C82.5817 87.2306 82.8611 87.1639 83.0722 87.0304C83.2864 86.8938 83.3951 86.7184 83.3982 86.5042C83.3951 86.3241 83.319 86.1767 83.17 86.0618C83.021 85.9438 82.7913 85.8538 82.4808 85.7917L81.2422 85.5449C80.5437 85.4052 80.0237 85.1631 79.6822 84.8185C79.3438 84.4739 79.1746 84.0346 79.1746 83.5006C79.1746 83.0412 79.2988 82.6454 79.5471 82.3132C79.7986 81.981 80.151 81.7249 80.6042 81.5448C81.0606 81.3648 81.5945 81.2748 82.2061 81.2748C83.1095 81.2748 83.8204 81.4657 84.3388 81.8475C84.8604 82.2294 85.1646 82.7494 85.2515 83.4075ZM94.9094 81.7265C94.8722 81.3508 94.7123 81.059 94.4298 80.851C94.1473 80.643 93.7639 80.539 93.2796 80.539C92.9505 80.539 92.6727 80.5856 92.4461 80.6787C92.2194 80.7687 92.0456 80.8945 91.9245 81.0559C91.8066 81.2173 91.7476 81.4005 91.7476 81.6054C91.7414 81.7761 91.7771 81.9251 91.8547 82.0524C91.9354 82.1797 92.0456 82.2899 92.1853 82.383C92.325 82.4731 92.4864 82.5522 92.6696 82.6205C92.8527 82.6857 93.0483 82.7416 93.2563 82.7882L94.1132 82.9931C94.5291 83.0862 94.911 83.2104 95.2587 83.3656C95.6064 83.5208 95.9075 83.7117 96.1621 83.9384C96.4166 84.165 96.6138 84.432 96.7535 84.7393C96.8963 85.0466 96.9692 85.399 96.9723 85.7964C96.9692 86.38 96.8202 86.886 96.5253 87.3144C96.2335 87.7397 95.8113 88.0704 95.2587 88.3063C94.7092 88.5391 94.0464 88.6556 93.2703 88.6556C92.5004 88.6556 91.8298 88.5376 91.2586 88.3016C90.6905 88.0657 90.2466 87.7165 89.9268 87.2539C89.6102 86.7882 89.4441 86.2124 89.4286 85.5263H91.3797C91.4014 85.846 91.493 86.113 91.6544 86.3272C91.819 86.5383 92.0378 86.6982 92.311 86.8069C92.5873 86.9124 92.8993 86.9652 93.247 86.9652C93.5885 86.9652 93.885 86.9155 94.1364 86.8162C94.391 86.7168 94.5881 86.5787 94.7278 86.4017C94.8675 86.2248 94.9374 86.0214 94.9374 85.7917C94.9374 85.5775 94.8737 85.3974 94.7465 85.2515C94.6223 85.1056 94.4391 84.9815 94.197 84.879C93.9579 84.7766 93.6646 84.6834 93.3169 84.5996L92.2784 84.3388C91.4744 84.1433 90.8395 83.8375 90.3739 83.4215C89.9082 83.0055 89.6769 82.4451 89.68 81.7404C89.6769 81.163 89.8306 80.6585 90.141 80.227C90.4546 79.7955 90.8845 79.4587 91.4309 79.2165C91.9773 78.9744 92.5982 78.8533 93.2936 78.8533C94.0014 78.8533 94.6192 78.9744 95.1469 79.2165C95.6778 79.4587 96.0907 79.7955 96.3856 80.227C96.6805 80.6585 96.8326 81.1583 96.8419 81.7265H94.9094ZM102.096 81.3679V82.858H97.7884V81.3679H102.096ZM98.7663 79.6542H100.75V86.3226C100.75 86.5057 100.778 86.6485 100.834 86.751C100.89 86.8503 100.967 86.9202 101.067 86.9605C101.169 87.0009 101.287 87.0211 101.421 87.0211C101.514 87.0211 101.607 87.0133 101.7 86.9978C101.793 86.9792 101.865 86.9652 101.914 86.9559L102.226 88.432C102.127 88.4631 101.987 88.4988 101.807 88.5391C101.627 88.5826 101.408 88.609 101.151 88.6183C100.672 88.6369 100.253 88.5733 99.8932 88.4274C99.5362 88.2815 99.2584 88.0548 99.0597 87.7475C98.861 87.4402 98.7632 87.0521 98.7663 86.5833V79.6542ZM105.428 88.6556C104.971 88.6556 104.565 88.5764 104.208 88.4181C103.851 88.2566 103.568 88.0191 103.36 87.7056C103.155 87.3889 103.053 86.9947 103.053 86.5228C103.053 86.1254 103.126 85.7917 103.272 85.5216C103.418 85.2515 103.616 85.0342 103.868 84.8697C104.119 84.7052 104.405 84.581 104.724 84.4972C105.047 84.4133 105.386 84.3544 105.74 84.3202C106.156 84.2767 106.491 84.2364 106.745 84.1991C107 84.1588 107.185 84.0998 107.3 84.0222C107.414 83.9446 107.472 83.8297 107.472 83.6776V83.6496C107.472 83.3547 107.379 83.1266 107.193 82.9651C107.009 82.8037 106.749 82.723 106.41 82.723C106.053 82.723 105.769 82.8021 105.558 82.9605C105.347 83.1157 105.207 83.3113 105.139 83.5472L103.304 83.3982C103.397 82.9636 103.581 82.5879 103.854 82.2713C104.127 81.9515 104.479 81.7063 104.911 81.5355C105.345 81.3617 105.848 81.2748 106.42 81.2748C106.817 81.2748 107.197 81.3213 107.56 81.4145C107.927 81.5076 108.251 81.6519 108.534 81.8475C108.819 82.0431 109.044 82.2946 109.209 82.6019C109.373 82.9061 109.456 83.2709 109.456 83.6962V88.5205H107.574V87.5286H107.518C107.404 87.7522 107.25 87.9493 107.057 88.12C106.865 88.2877 106.634 88.4196 106.364 88.5159C106.094 88.609 105.782 88.6556 105.428 88.6556ZM105.996 87.2865C106.288 87.2865 106.545 87.2291 106.769 87.1142C106.992 86.9962 107.168 86.8379 107.295 86.6392C107.422 86.4405 107.486 86.2155 107.486 85.964V85.205C107.424 85.2453 107.338 85.2826 107.23 85.3167C107.124 85.3478 107.005 85.3773 106.871 85.4052C106.738 85.43 106.604 85.4533 106.471 85.4751C106.337 85.4937 106.216 85.5108 106.108 85.5263C105.875 85.5604 105.671 85.6148 105.497 85.6893C105.324 85.7638 105.189 85.8647 105.092 85.9919C104.996 86.1161 104.948 86.2713 104.948 86.4576C104.948 86.7277 105.046 86.9341 105.241 87.0769C105.44 87.2166 105.692 87.2865 105.996 87.2865ZM114.799 81.3679V82.858H110.492V81.3679H114.799ZM111.47 79.6542H113.453V86.3226C113.453 86.5057 113.481 86.6485 113.537 86.751C113.593 86.8503 113.671 86.9202 113.77 86.9605C113.872 87.0009 113.99 87.0211 114.124 87.0211C114.217 87.0211 114.31 87.0133 114.403 86.9978C114.496 86.9792 114.568 86.9652 114.618 86.9559L114.93 88.432C114.83 88.4631 114.691 88.4988 114.51 88.5391C114.33 88.5826 114.112 88.609 113.854 88.6183C113.376 88.6369 112.957 88.5733 112.597 88.4274C112.24 88.2815 111.962 88.0548 111.763 87.7475C111.564 87.4402 111.467 87.0521 111.47 86.5833V79.6542ZM121.953 83.4075L120.137 83.5193C120.106 83.364 120.039 83.2243 119.937 83.1002C119.834 82.9729 119.699 82.872 119.531 82.7975C119.367 82.7199 119.17 82.6811 118.94 82.6811C118.633 82.6811 118.374 82.7463 118.162 82.8766C117.951 83.0039 117.846 83.1747 117.846 83.3889C117.846 83.5596 117.914 83.704 118.051 83.8219C118.187 83.9399 118.422 84.0346 118.754 84.106L120.048 84.3668C120.744 84.5096 121.262 84.7393 121.604 85.056C121.945 85.3726 122.116 85.7886 122.116 86.3039C122.116 86.7727 121.978 87.184 121.701 87.538C121.428 87.8919 121.053 88.1682 120.575 88.3668C120.1 88.5624 119.552 88.6602 118.931 88.6602C117.984 88.6602 117.23 88.4631 116.668 88.0688C116.109 87.6714 115.781 87.1313 115.685 86.4483L117.636 86.3459C117.695 86.6346 117.838 86.855 118.065 87.0071C118.291 87.1561 118.582 87.2306 118.935 87.2306C119.283 87.2306 119.563 87.1639 119.774 87.0304C119.988 86.8938 120.096 86.7184 120.1 86.5042C120.096 86.3241 120.02 86.1767 119.871 86.0618C119.722 85.9438 119.493 85.8538 119.182 85.7917L117.944 85.5449C117.245 85.4052 116.725 85.1631 116.384 84.8185C116.045 84.4739 115.876 84.0346 115.876 83.5006C115.876 83.0412 116 82.6454 116.249 82.3132C116.5 81.981 116.852 81.7249 117.306 81.5448C117.762 81.3648 118.296 81.2748 118.907 81.2748C119.811 81.2748 120.522 81.4657 121.04 81.8475C121.562 82.2294 121.866 82.7494 121.953 83.4075Z" fill="#060C3C"/>
<rect x="77.2129" y="186.512" width="114.272" height="5.61991" rx="2.80996" fill="#005AEE"/>
<rect x="49.1133" y="186.512" width="18.733" height="5.61991" rx="2.80996" fill="#528AFD"/>
<rect x="77.2129" y="199.625" width="114.272" height="5.61991" rx="2.80996" fill="#005AEE"/>
<rect x="49.1133" y="199.625" width="18.733" height="5.61991" rx="2.80996" fill="#005AEE"/>
<path d="M126.141 109.384C120.337 108.15 114.291 108.785 108.87 111.199C103.449 113.612 98.9309 117.68 95.9639 122.819C92.9968 127.958 91.7329 133.905 92.3532 139.806C92.9734 145.708 95.4461 151.262 99.4167 155.671C103.387 160.081 108.652 163.121 114.457 164.355C120.261 165.588 126.307 164.953 131.728 162.539C137.149 160.126 141.667 156.058 144.634 150.919C147.601 145.78 148.865 139.833 148.244 133.932L120.299 136.869L126.141 109.384Z" fill="#528BFD"/>
<path d="M131.694 102.974C137.863 104.391 143.424 107.725 147.582 112.498C151.74 117.271 154.28 123.237 154.838 129.542L124.982 132.186L131.694 102.974Z" fill="#005AEE"/>
<g filter="url(#filter1_d_380_453)">
<rect x="146" y="29" width="118.955" height="93.6652" rx="5.61991" fill="white"/>
</g>
<path d="M170.266 96.6817C168.73 96.6817 167.363 96.4323 166.165 95.9334C164.974 95.4278 164.04 94.7393 163.361 93.8678C162.683 92.9963 162.343 92.0085 162.343 90.9042C162.343 90.0527 162.536 89.271 162.922 88.5592C163.315 87.8408 163.847 87.2454 164.519 86.7731C165.191 86.2941 165.942 85.9881 166.774 85.855V85.7153C165.683 85.4958 164.798 84.9669 164.12 84.1287C163.441 83.2839 163.102 82.3027 163.102 81.1851C163.102 80.1273 163.411 79.186 164.03 78.3611C164.648 77.5296 165.497 76.8777 166.574 76.4053C167.659 75.9264 168.889 75.6869 170.266 75.6869C171.643 75.6869 172.871 75.9264 173.948 76.4053C175.033 76.8843 175.884 77.5396 176.503 78.3711C177.122 79.196 177.434 80.134 177.441 81.1851C177.434 82.3093 177.088 83.2905 176.403 84.1287C175.718 84.9669 174.84 85.4958 173.769 85.7153V85.855C174.587 85.9881 175.329 86.2941 175.994 86.7731C176.666 87.2454 177.198 87.8408 177.591 88.5592C177.99 89.271 178.193 90.0527 178.199 90.9042C178.193 92.0085 177.85 92.9963 177.172 93.8678C176.493 94.7393 175.555 95.4278 174.358 95.9334C173.167 96.4323 171.803 96.6817 170.266 96.6817ZM170.266 93.5086C170.952 93.5086 171.55 93.3855 172.063 93.1394C172.575 92.8866 172.974 92.5406 173.26 92.1016C173.553 91.6559 173.699 91.1437 173.699 90.5649C173.699 89.9728 173.549 89.4506 173.25 88.9983C172.951 88.5393 172.545 88.18 172.033 87.9206C171.52 87.6545 170.932 87.5214 170.266 87.5214C169.608 87.5214 169.019 87.6545 168.5 87.9206C167.981 88.18 167.572 88.5393 167.273 88.9983C166.98 89.4506 166.834 89.9728 166.834 90.5649C166.834 91.1437 166.977 91.6559 167.263 92.1016C167.549 92.5406 167.951 92.8866 168.47 93.1394C168.989 93.3855 169.588 93.5086 170.266 93.5086ZM170.266 84.3782C170.838 84.3782 171.347 84.2618 171.793 84.029C172.239 83.7961 172.588 83.4735 172.841 83.061C173.094 82.6486 173.22 82.1729 173.22 81.6341C173.22 81.1019 173.094 80.6362 172.841 80.2371C172.588 79.8313 172.242 79.5153 171.803 79.2891C171.364 79.0563 170.852 78.9399 170.266 78.9399C169.688 78.9399 169.175 79.0563 168.73 79.2891C168.284 79.5153 167.935 79.8313 167.682 80.2371C167.436 80.6362 167.313 81.1019 167.313 81.6341C167.313 82.1729 167.439 82.6486 167.692 83.061C167.945 83.4735 168.294 83.7961 168.74 84.029C169.185 84.2618 169.694 84.3782 170.266 84.3782ZM189.233 96.8514C187.517 96.8447 186.04 96.4223 184.803 95.5841C183.572 94.7459 182.624 93.5319 181.959 91.9419C181.3 90.352 180.974 88.4395 180.981 86.2043C180.981 83.9757 181.31 82.0765 181.969 80.5065C182.634 78.9366 183.582 77.7425 184.813 76.9242C186.05 76.0993 187.523 75.6869 189.233 75.6869C190.943 75.6869 192.413 76.0993 193.644 76.9242C194.881 77.7491 195.832 78.9465 196.497 80.5165C197.163 82.0798 197.492 83.9757 197.485 86.2043C197.485 88.4461 197.153 90.362 196.487 91.9519C195.829 93.5418 194.884 94.7559 193.654 95.5941C192.423 96.4323 190.949 96.8514 189.233 96.8514ZM189.233 93.2691C190.404 93.2691 191.339 92.6803 192.037 91.5029C192.736 90.3254 193.081 88.5592 193.075 86.2043C193.075 84.6543 192.915 83.3637 192.596 82.3326C192.283 81.3015 191.837 80.5265 191.259 80.0076C190.687 79.4887 190.011 79.2293 189.233 79.2293C188.069 79.2293 187.138 79.8114 186.439 80.9755C185.741 82.1397 185.388 83.8826 185.381 86.2043C185.381 87.7742 185.538 89.0847 185.85 90.1358C186.17 91.1802 186.619 91.9652 187.197 92.4908C187.776 93.0096 188.455 93.2691 189.233 93.2691ZM208.579 96.8514C206.863 96.8447 205.386 96.4223 204.149 95.5841C202.918 94.7459 201.97 93.5319 201.305 91.9419C200.646 90.352 200.32 88.4395 200.327 86.2043C200.327 83.9757 200.656 82.0765 201.315 80.5065C201.98 78.9366 202.928 77.7425 204.158 76.9242C205.396 76.0993 206.869 75.6869 208.579 75.6869C210.289 75.6869 211.759 76.0993 212.989 76.9242C214.227 77.7491 215.178 78.9465 215.843 80.5165C216.509 82.0798 216.838 83.9757 216.831 86.2043C216.831 88.4461 216.499 90.362 215.833 91.9519C215.175 93.5418 214.23 94.7559 212.999 95.5941C211.769 96.4323 210.295 96.8514 208.579 96.8514ZM208.579 93.2691C209.75 93.2691 210.684 92.6803 211.383 91.5029C212.081 90.3254 212.427 88.5592 212.421 86.2043C212.421 84.6543 212.261 83.3637 211.942 82.3326C211.629 81.3015 211.183 80.5265 210.605 80.0076C210.033 79.4887 209.357 79.2293 208.579 79.2293C207.415 79.2293 206.483 79.8114 205.785 80.9755C205.086 82.1397 204.734 83.8826 204.727 86.2043C204.727 87.7742 204.884 89.0847 205.196 90.1358C205.516 91.1802 205.965 91.9652 206.543 92.4908C207.122 93.0096 207.801 93.2691 208.579 93.2691ZM226.019 93.289V79.1594H229.591V93.289H226.019ZM220.74 88.0104V84.4381H234.87V88.0104H220.74Z" fill="#060C3C"/>
<path d="M165.159 57.9863H161.927V48.4495H165.224C166.171 48.4495 166.984 48.6404 167.664 49.0223C168.347 49.401 168.872 49.9458 169.238 50.6568C169.604 51.3677 169.787 52.2183 169.787 53.2086C169.787 54.202 169.603 55.0557 169.233 55.7698C168.867 56.4838 168.338 57.0317 167.645 57.4136C166.956 57.7954 166.127 57.9863 165.159 57.9863ZM163.655 56.4915H165.075C165.739 56.4915 166.293 56.3705 166.737 56.1283C167.181 55.8831 167.515 55.5183 167.738 55.034C167.962 54.5466 168.074 53.9381 168.074 53.2086C168.074 52.4791 167.962 51.8737 167.738 51.3925C167.515 50.9082 167.184 50.5465 166.747 50.3075C166.312 50.0654 165.772 49.9443 165.126 49.9443H163.655V56.4915ZM173.413 58.1307C172.959 58.1307 172.551 58.05 172.188 57.8885C171.828 57.724 171.542 57.4819 171.331 57.1621C171.123 56.8423 171.019 56.4481 171.019 55.9793C171.019 55.5757 171.094 55.242 171.243 54.9781C171.392 54.7143 171.595 54.5032 171.853 54.3448C172.11 54.1865 172.401 54.067 172.723 53.9863C173.049 53.9024 173.386 53.8419 173.734 53.8047C174.153 53.7612 174.493 53.7224 174.754 53.6882C175.014 53.651 175.204 53.5951 175.322 53.5206C175.443 53.443 175.503 53.3235 175.503 53.162V53.1341C175.503 52.7833 175.399 52.5117 175.191 52.3192C174.983 52.1267 174.684 52.0305 174.293 52.0305C173.88 52.0305 173.552 52.1205 173.31 52.3006C173.071 52.4806 172.91 52.6933 172.826 52.9385L171.252 52.715C171.376 52.2804 171.581 51.9172 171.867 51.6253C172.152 51.3304 172.501 51.11 172.914 50.9641C173.327 50.8151 173.784 50.7406 174.283 50.7406C174.628 50.7406 174.971 50.7809 175.313 50.8616C175.654 50.9424 175.966 51.0759 176.249 51.2621C176.531 51.4453 176.758 51.6952 176.928 52.0118C177.102 52.3285 177.189 52.7243 177.189 53.1993V57.9863H175.569V57.0038H175.513C175.41 57.2025 175.266 57.3887 175.08 57.5626C174.897 57.7333 174.665 57.8715 174.386 57.977C174.11 58.0795 173.785 58.1307 173.413 58.1307ZM173.85 56.892C174.189 56.892 174.482 56.8253 174.73 56.6918C174.979 56.5552 175.17 56.3751 175.303 56.1516C175.44 55.9281 175.508 55.6844 175.508 55.4205V54.5777C175.455 54.6211 175.365 54.6615 175.238 54.6987C175.114 54.736 174.974 54.7686 174.819 54.7965C174.664 54.8245 174.51 54.8493 174.358 54.871C174.206 54.8928 174.074 54.9114 173.962 54.9269C173.711 54.9611 173.486 55.0169 173.287 55.0945C173.088 55.1722 172.931 55.2808 172.817 55.4205C172.702 55.5571 172.644 55.7341 172.644 55.9514C172.644 56.2618 172.758 56.4962 172.984 56.6545C173.211 56.8129 173.5 56.892 173.85 56.892ZM178.884 57.9863V50.8337H180.57V57.9863H178.884ZM179.732 49.8186C179.465 49.8186 179.235 49.7301 179.042 49.5531C178.85 49.3731 178.754 49.1573 178.754 48.9059C178.754 48.6513 178.85 48.4355 179.042 48.2586C179.235 48.0785 179.465 47.9885 179.732 47.9885C180.002 47.9885 180.231 48.0785 180.421 48.2586C180.613 48.4355 180.71 48.6513 180.71 48.9059C180.71 49.1573 180.613 49.3731 180.421 49.5531C180.231 49.7301 180.002 49.8186 179.732 49.8186ZM183.989 48.4495V57.9863H182.303V48.4495H183.989ZM186.77 60.6686C186.54 60.6686 186.328 60.6499 186.132 60.6127C185.94 60.5785 185.786 60.5382 185.671 60.4916L186.062 59.1784C186.308 59.2498 186.527 59.284 186.719 59.2809C186.911 59.2778 187.081 59.2172 187.227 59.0993C187.376 58.9844 187.501 58.7919 187.604 58.5218L187.748 58.1353L185.154 50.8337H186.943L188.591 56.2354H188.665L190.319 50.8337H192.111L189.248 58.8525C189.114 59.2312 188.937 59.5556 188.717 59.8257C188.496 60.0989 188.226 60.3069 187.906 60.4497C187.59 60.5956 187.211 60.6686 186.77 60.6686ZM197.881 48.4495L200.363 55.956H200.461L202.938 48.4495H204.838L201.476 57.9863H199.343L195.986 48.4495H197.881ZM206.02 57.9863V50.8337H207.705V57.9863H206.02ZM206.867 49.8186C206.6 49.8186 206.37 49.7301 206.178 49.5531C205.985 49.3731 205.889 49.1573 205.889 48.9059C205.889 48.6513 205.985 48.4355 206.178 48.2586C206.37 48.0785 206.6 47.9885 206.867 47.9885C207.137 47.9885 207.367 48.0785 207.556 48.2586C207.749 48.4355 207.845 48.6513 207.845 48.9059C207.845 49.1573 207.749 49.3731 207.556 49.5531C207.367 49.7301 207.137 49.8186 206.867 49.8186ZM215.092 52.7243L213.555 52.8919C213.512 52.7367 213.436 52.5908 213.327 52.4542C213.222 52.3176 213.079 52.2074 212.899 52.1236C212.719 52.0398 212.498 51.9979 212.237 51.9979C211.887 51.9979 211.592 52.0739 211.353 52.226C211.117 52.3782 211 52.5753 211.003 52.8174C211 53.0254 211.076 53.1946 211.232 53.325C211.39 53.4554 211.651 53.5625 212.014 53.6463L213.234 53.9071C213.911 54.053 214.414 54.2843 214.743 54.6009C215.075 54.9176 215.243 55.332 215.246 55.8443C215.243 56.2944 215.111 56.6918 214.85 57.0364C214.592 57.3779 214.234 57.6448 213.774 57.8373C213.315 58.0298 212.787 58.126 212.191 58.126C211.315 58.126 210.611 57.9429 210.077 57.5765C209.543 57.2071 209.225 56.6933 209.122 56.0352L210.766 55.8769C210.84 56.1997 210.999 56.4434 211.241 56.608C211.483 56.7725 211.798 56.8548 212.186 56.8548C212.587 56.8548 212.908 56.7725 213.15 56.608C213.395 56.4434 213.518 56.2401 213.518 55.9979C213.518 55.793 213.439 55.6239 213.281 55.4904C213.125 55.3569 212.883 55.2544 212.554 55.183L211.334 54.9269C210.648 54.7841 210.14 54.5435 209.811 54.2051C209.482 53.8636 209.319 53.4321 209.322 52.9106C209.319 52.4697 209.439 52.0879 209.681 51.765C209.926 51.4391 210.266 51.1876 210.701 51.0107C211.138 50.8306 211.643 50.7406 212.214 50.7406C213.052 50.7406 213.712 50.9191 214.193 51.2761C214.678 51.6331 214.977 52.1158 215.092 52.7243ZM216.636 57.9863V50.8337H218.321V57.9863H216.636ZM217.483 49.8186C217.216 49.8186 216.986 49.7301 216.794 49.5531C216.602 49.3731 216.505 49.1573 216.505 48.9059C216.505 48.6513 216.602 48.4355 216.794 48.2586C216.986 48.0785 217.216 47.9885 217.483 47.9885C217.753 47.9885 217.983 48.0785 218.172 48.2586C218.365 48.4355 218.461 48.6513 218.461 48.9059C218.461 49.1573 218.365 49.3731 218.172 49.5531C217.983 49.7301 217.753 49.8186 217.483 49.8186ZM223.626 50.8337V52.1376H219.515V50.8337H223.626ZM220.53 49.1201H222.215V55.835C222.215 56.0616 222.25 56.2354 222.318 56.3565C222.389 56.4745 222.482 56.5552 222.597 56.5986C222.712 56.6421 222.839 56.6638 222.979 56.6638C223.085 56.6638 223.181 56.6561 223.268 56.6406C223.358 56.625 223.426 56.6111 223.473 56.5986L223.757 57.9165C223.667 57.9475 223.538 57.9817 223.37 58.0189C223.206 58.0562 223.004 58.0779 222.765 58.0841C222.343 58.0965 221.962 58.0329 221.624 57.8932C221.286 57.7504 221.017 57.53 220.818 57.232C220.623 56.9339 220.527 56.5614 220.53 56.1144V49.1201ZM228.079 58.126C227.381 58.126 226.776 57.9724 226.263 57.665C225.751 57.3577 225.354 56.9277 225.071 56.3751C224.792 55.8225 224.652 55.1768 224.652 54.438C224.652 53.6991 224.792 53.0518 225.071 52.4961C225.354 51.9404 225.751 51.5089 226.263 51.2016C226.776 50.8942 227.381 50.7406 228.079 50.7406C228.778 50.7406 229.383 50.8942 229.895 51.2016C230.408 51.5089 230.804 51.9404 231.083 52.4961C231.365 53.0518 231.507 53.6991 231.507 54.438C231.507 55.1768 231.365 55.8225 231.083 56.3751C230.804 56.9277 230.408 57.3577 229.895 57.665C229.383 57.9724 228.778 58.126 228.079 58.126ZM228.089 56.7756C228.467 56.7756 228.784 56.6716 229.039 56.4636C229.293 56.2525 229.483 55.97 229.607 55.6161C229.734 55.2622 229.798 54.8679 229.798 54.4333C229.798 53.9956 229.734 53.5998 229.607 53.2459C229.483 52.8888 229.293 52.6048 229.039 52.3937C228.784 52.1826 228.467 52.077 228.089 52.077C227.701 52.077 227.378 52.1826 227.12 52.3937C226.866 52.6048 226.675 52.8888 226.547 53.2459C226.423 53.5998 226.361 53.9956 226.361 54.4333C226.361 54.8679 226.423 55.2622 226.547 55.6161C226.675 55.97 226.866 56.2525 227.12 56.4636C227.378 56.6716 227.701 56.7756 228.089 56.7756ZM232.937 57.9863V50.8337H234.572V52.0258H234.646C234.777 51.6129 235 51.2947 235.317 51.0712C235.637 50.8446 236.002 50.7313 236.411 50.7313C236.504 50.7313 236.608 50.7359 236.723 50.7452C236.841 50.7514 236.939 50.7623 237.017 50.7778V52.3285C236.945 52.3037 236.832 52.2819 236.677 52.2633C236.525 52.2416 236.377 52.2307 236.234 52.2307C235.927 52.2307 235.651 52.2975 235.405 52.4309C235.163 52.5613 234.972 52.7429 234.833 52.9758C234.693 53.2086 234.623 53.4771 234.623 53.7814V57.9863H232.937Z" fill="#060C3C"/>
<defs>
<filter id="filter0_d_380_453" x="0.40721" y="32.9004" width="239.783" height="236.036" filterUnits="userSpaceOnUse" color-interpolation-filters="sRGB">
<feFlood flood-opacity="0" result="BackgroundImageFix"/>
<feColorMatrix in="SourceAlpha" type="matrix" values="0 0 0 0 0 0 0 0 0 0 0 0 0 0 0 0 0 0 127 0" result="hardAlpha"/>
<feMorphology radius="1.8733" operator="erode" in="SourceAlpha" result="effect1_dropShadow_380_453"/>
<feOffset dy="7.49322"/>
<feGaussianBlur stdDeviation="18.733"/>
<feColorMatrix type="matrix" values="0 0 0 0 0.0235294 0 0 0 0 0.0470588 0 0 0 0 0.231373 0 0 0 0.08 0"/>
<feBlend mode="normal" in2="BackgroundImageFix" result="effect1_dropShadow_380_453"/>
<feBlend mode="normal" in="SourceGraphic" in2="effect1_dropShadow_380_453" result="shape"/>
</filter>
<filter id="filter1_d_380_453" x="110.407" y="0.900429" width="190.14" height="164.851" filterUnits="userSpaceOnUse" color-interpolation-filters="sRGB">
<feFlood flood-opacity="0" result="BackgroundImageFix"/>
<feColorMatrix in="SourceAlpha" type="matrix" values="0 0 0 0 0 0 0 0 0 0 0 0 0 0 0 0 0 0 127 0" result="hardAlpha"/>
<feMorphology radius="1.8733" operator="erode" in="SourceAlpha" result="effect1_dropShadow_380_453"/>
<feOffset dy="7.49322"/>
<feGaussianBlur stdDeviation="18.733"/>
<feColorMatrix type="matrix" values="0 0 0 0 0.0235294 0 0 0 0 0.0470588 0 0 0 0 0.231373 0 0 0 0.08 0"/>
<feBlend mode="normal" in2="BackgroundImageFix" result="effect1_dropShadow_380_453"/>
<feBlend mode="normal" in="SourceGraphic" in2="effect1_dropShadow_380_453" result="shape"/>
</filter>
</defs>
</svg>
