<svg width="675" height="644" viewBox="0 0 675 644" fill="none" xmlns="http://www.w3.org/2000/svg">
<g filter="url(#filter0_d_301_1128)">
<rect x="60" y="56" width="552" height="512.818" rx="13" fill="#FEFFFF"/>
</g>
<g filter="url(#filter1_d_301_1128)">
<path d="M60 69C60 61.8203 65.8203 56 73 56H599C606.18 56 612 61.8203 612 69V90.572H60V69Z" fill="#F1F5F9"/>
</g>
<path d="M264.322 76.132C263.757 76.132 263.262 76.033 262.837 75.835C262.412 75.637 262.078 75.3547 261.836 74.988C261.601 74.6213 261.48 74.185 261.473 73.679H262.705C262.712 74.0897 262.855 74.438 263.134 74.724C263.413 75.01 263.805 75.153 264.311 75.153C264.758 75.153 265.107 75.0467 265.356 74.834C265.613 74.614 265.741 74.3353 265.741 73.998C265.741 73.7267 265.679 73.5067 265.554 73.338C265.437 73.1693 265.272 73.03 265.059 72.92C264.854 72.81 264.615 72.711 264.344 72.623C264.073 72.535 263.787 72.4397 263.486 72.337C262.892 72.139 262.445 71.8823 262.144 71.567C261.851 71.2517 261.704 70.8373 261.704 70.324C261.697 69.8913 261.796 69.5137 262.001 69.191C262.214 68.8683 262.507 68.619 262.881 68.443C263.262 68.2597 263.706 68.168 264.212 68.168C264.711 68.168 265.147 68.2597 265.521 68.443C265.902 68.6263 266.199 68.883 266.412 69.213C266.625 69.5357 266.735 69.9133 266.742 70.346H265.51C265.51 70.148 265.459 69.961 265.356 69.785C265.253 69.6017 265.103 69.4513 264.905 69.334C264.707 69.2167 264.465 69.158 264.179 69.158C263.812 69.1507 263.508 69.2423 263.266 69.433C263.031 69.6237 262.914 69.8877 262.914 70.225C262.914 70.5257 263.002 70.7567 263.178 70.918C263.354 71.0793 263.596 71.215 263.904 71.325C264.212 71.4277 264.564 71.5487 264.96 71.688C265.341 71.8127 265.682 71.963 265.983 72.139C266.284 72.315 266.522 72.546 266.698 72.832C266.881 73.118 266.973 73.481 266.973 73.921C266.973 74.3097 266.874 74.6727 266.676 75.01C266.478 75.34 266.181 75.6113 265.785 75.824C265.389 76.0293 264.901 76.132 264.322 76.132ZM270.756 76.132C270.22 76.132 269.744 76.0147 269.326 75.78C268.915 75.538 268.592 75.2043 268.358 74.779C268.123 74.3537 268.006 73.8587 268.006 73.294C268.006 72.722 268.119 72.2197 268.347 71.787C268.581 71.3543 268.904 71.017 269.315 70.775C269.733 70.533 270.217 70.412 270.767 70.412C271.302 70.412 271.768 70.533 272.164 70.775C272.56 71.0097 272.868 71.325 273.088 71.721C273.308 72.117 273.418 72.5533 273.418 73.03C273.418 73.1033 273.414 73.184 273.407 73.272C273.407 73.3527 273.403 73.4443 273.396 73.547H269.15C269.186 74.075 269.359 74.4783 269.667 74.757C269.982 75.0283 270.345 75.164 270.756 75.164C271.086 75.164 271.361 75.0907 271.581 74.944C271.808 74.79 271.977 74.5847 272.087 74.328H273.253C273.106 74.8413 272.813 75.2703 272.373 75.615C271.94 75.9597 271.401 76.132 270.756 76.132ZM270.756 71.369C270.367 71.369 270.022 71.4863 269.722 71.721C269.421 71.9483 269.238 72.293 269.172 72.755H272.252C272.23 72.3297 272.079 71.9923 271.801 71.743C271.522 71.4937 271.174 71.369 270.756 71.369ZM276.476 76.132C276.014 76.132 275.632 76.055 275.332 75.901C275.031 75.747 274.807 75.5453 274.661 75.296C274.514 75.0393 274.441 74.7607 274.441 74.46C274.441 73.932 274.646 73.514 275.057 73.206C275.467 72.898 276.054 72.744 276.817 72.744H278.247V72.645C278.247 72.2197 278.129 71.9007 277.895 71.688C277.667 71.4753 277.37 71.369 277.004 71.369C276.681 71.369 276.399 71.4497 276.157 71.611C275.922 71.765 275.779 71.996 275.728 72.304H274.562C274.598 71.908 274.73 71.5707 274.958 71.292C275.192 71.006 275.486 70.7897 275.838 70.643C276.197 70.489 276.589 70.412 277.015 70.412C277.777 70.412 278.368 70.6137 278.786 71.017C279.204 71.413 279.413 71.9557 279.413 72.645V76H278.401L278.302 75.065C278.148 75.3657 277.924 75.6187 277.631 75.824C277.337 76.0293 276.952 76.132 276.476 76.132ZM276.707 75.186C277.022 75.186 277.286 75.1127 277.499 74.966C277.719 74.812 277.887 74.6103 278.005 74.361C278.129 74.1117 278.206 73.8367 278.236 73.536H276.938C276.476 73.536 276.146 73.6167 275.948 73.778C275.757 73.9393 275.662 74.141 275.662 74.383C275.662 74.6323 275.753 74.8303 275.937 74.977C276.127 75.1163 276.384 75.186 276.707 75.186ZM280.772 76V70.544H281.817L281.916 71.578C282.107 71.2187 282.371 70.9363 282.708 70.731C283.053 70.5183 283.467 70.412 283.951 70.412V71.633H283.632C283.309 71.633 283.02 71.688 282.763 71.798C282.514 71.9007 282.312 72.0803 282.158 72.337C282.011 72.5863 281.938 72.9347 281.938 73.382V76H280.772ZM287.385 76.132C286.85 76.132 286.37 76.011 285.944 75.769C285.526 75.527 285.196 75.1933 284.954 74.768C284.72 74.3353 284.602 73.8367 284.602 73.272C284.602 72.7073 284.72 72.2123 284.954 71.787C285.196 71.3543 285.526 71.017 285.944 70.775C286.37 70.533 286.85 70.412 287.385 70.412C288.06 70.412 288.625 70.588 289.079 70.94C289.541 71.292 289.838 71.7687 289.97 72.37H288.749C288.676 72.0693 288.515 71.8347 288.265 71.666C288.016 71.4973 287.723 71.413 287.385 71.413C287.099 71.413 286.835 71.4863 286.593 71.633C286.351 71.7723 286.157 71.9813 286.01 72.26C285.864 72.5313 285.79 72.8687 285.79 73.272C285.79 73.6753 285.864 74.0163 286.01 74.295C286.157 74.5663 286.351 74.7753 286.593 74.922C286.835 75.0687 287.099 75.142 287.385 75.142C287.723 75.142 288.016 75.0577 288.265 74.889C288.515 74.7203 288.676 74.482 288.749 74.174H289.97C289.846 74.7607 289.552 75.2337 289.09 75.593C288.628 75.9523 288.06 76.132 287.385 76.132ZM291.235 76V68.08H292.401V71.424C292.584 71.1087 292.837 70.863 293.16 70.687C293.49 70.5037 293.853 70.412 294.249 70.412C294.902 70.412 295.415 70.6173 295.789 71.028C296.163 71.4387 296.35 72.051 296.35 72.865V76H295.195V72.986C295.195 71.93 294.773 71.402 293.93 71.402C293.49 71.402 293.123 71.556 292.83 71.864C292.544 72.172 292.401 72.612 292.401 73.184V76H291.235ZM300.539 76V68.3H305.434V69.246H301.705V71.644H305.104V72.568H301.705V75.054H305.434V76H300.539ZM306.779 76V70.544H307.813L307.901 71.501C308.07 71.1637 308.315 70.8997 308.638 70.709C308.968 70.511 309.346 70.412 309.771 70.412C310.431 70.412 310.948 70.6173 311.322 71.028C311.703 71.4387 311.894 72.051 311.894 72.865V76H310.739V72.986C310.739 71.93 310.306 71.402 309.441 71.402C309.008 71.402 308.649 71.556 308.363 71.864C308.084 72.172 307.945 72.612 307.945 73.184V76H306.779ZM315.5 74.328C315.214 74.328 314.95 74.295 314.708 74.229L314.235 74.691C314.316 74.7423 314.415 74.7863 314.532 74.823C314.65 74.8597 314.815 74.8927 315.027 74.922C315.24 74.9513 315.53 74.9807 315.896 75.01C316.622 75.076 317.147 75.252 317.469 75.538C317.792 75.8167 317.953 76.1907 317.953 76.66C317.953 76.9827 317.865 77.287 317.689 77.573C317.521 77.8663 317.253 78.101 316.886 78.277C316.527 78.4603 316.065 78.552 315.5 78.552C314.738 78.552 314.118 78.4053 313.641 78.112C313.172 77.826 312.937 77.3897 312.937 76.803C312.937 76.5757 312.996 76.3483 313.113 76.121C313.238 75.901 313.432 75.692 313.696 75.494C313.542 75.428 313.407 75.3583 313.289 75.285C313.179 75.2043 313.08 75.1237 312.992 75.043V74.779L313.938 73.811C313.513 73.4443 313.3 72.964 313.3 72.37C313.3 72.0107 313.385 71.6843 313.553 71.391C313.729 71.0903 313.982 70.852 314.312 70.676C314.642 70.5 315.038 70.412 315.5 70.412C315.808 70.412 316.094 70.456 316.358 70.544H318.393V71.314L317.425 71.369C317.601 71.6697 317.689 72.0033 317.689 72.37C317.689 72.7367 317.601 73.0667 317.425 73.36C317.257 73.6533 317.007 73.888 316.677 74.064C316.355 74.24 315.962 74.328 315.5 74.328ZM315.5 73.415C315.838 73.415 316.109 73.327 316.314 73.151C316.527 72.9677 316.633 72.711 316.633 72.381C316.633 72.0437 316.527 71.787 316.314 71.611C316.109 71.435 315.838 71.347 315.5 71.347C315.156 71.347 314.877 71.435 314.664 71.611C314.459 71.787 314.356 72.0437 314.356 72.381C314.356 72.711 314.459 72.9677 314.664 73.151C314.877 73.327 315.156 73.415 315.5 73.415ZM314.037 76.693C314.037 77.0083 314.177 77.243 314.455 77.397C314.734 77.5583 315.082 77.639 315.5 77.639C315.904 77.639 316.23 77.551 316.479 77.375C316.729 77.2063 316.853 76.979 316.853 76.693C316.853 76.4803 316.769 76.297 316.6 76.143C316.432 75.9963 316.113 75.9047 315.643 75.868C315.291 75.846 314.98 75.813 314.708 75.769C314.452 75.9083 314.276 76.0587 314.18 76.22C314.085 76.3813 314.037 76.539 314.037 76.693ZM320.093 69.51C319.873 69.51 319.69 69.444 319.543 69.312C319.404 69.1727 319.334 69.0003 319.334 68.795C319.334 68.5897 319.404 68.421 319.543 68.289C319.69 68.1497 319.873 68.08 320.093 68.08C320.313 68.08 320.493 68.1497 320.632 68.289C320.779 68.421 320.852 68.5897 320.852 68.795C320.852 69.0003 320.779 69.1727 320.632 69.312C320.493 69.444 320.313 69.51 320.093 69.51ZM319.51 76V70.544H320.676V76H319.51ZM322.216 76V70.544H323.25L323.338 71.501C323.506 71.1637 323.752 70.8997 324.075 70.709C324.405 70.511 324.782 70.412 325.208 70.412C325.868 70.412 326.385 70.6173 326.759 71.028C327.14 71.4387 327.331 72.051 327.331 72.865V76H326.176V72.986C326.176 71.93 325.743 71.402 324.878 71.402C324.445 71.402 324.086 71.556 323.8 71.864C323.521 72.172 323.382 72.612 323.382 73.184V76H322.216ZM331.256 76.132C330.72 76.132 330.244 76.0147 329.826 75.78C329.415 75.538 329.092 75.2043 328.858 74.779C328.623 74.3537 328.506 73.8587 328.506 73.294C328.506 72.722 328.619 72.2197 328.847 71.787C329.081 71.3543 329.404 71.017 329.815 70.775C330.233 70.533 330.717 70.412 331.267 70.412C331.802 70.412 332.268 70.533 332.664 70.775C333.06 71.0097 333.368 71.325 333.588 71.721C333.808 72.117 333.918 72.5533 333.918 73.03C333.918 73.1033 333.914 73.184 333.907 73.272C333.907 73.3527 333.903 73.4443 333.896 73.547H329.65C329.686 74.075 329.859 74.4783 330.167 74.757C330.482 75.0283 330.845 75.164 331.256 75.164C331.586 75.164 331.861 75.0907 332.081 74.944C332.308 74.79 332.477 74.5847 332.587 74.328H333.753C333.606 74.8413 333.313 75.2703 332.873 75.615C332.44 75.9597 331.901 76.132 331.256 76.132ZM331.256 71.369C330.867 71.369 330.522 71.4863 330.222 71.721C329.921 71.9483 329.738 72.293 329.672 72.755H332.752C332.73 72.3297 332.579 71.9923 332.301 71.743C332.022 71.4937 331.674 71.369 331.256 71.369ZM341.496 76.132C340.733 76.132 340.066 75.9633 339.494 75.626C338.922 75.2887 338.475 74.823 338.152 74.229C337.829 73.6277 337.668 72.9347 337.668 72.15C337.668 71.3653 337.829 70.676 338.152 70.082C338.475 69.4807 338.922 69.0113 339.494 68.674C340.066 68.3367 340.733 68.168 341.496 68.168C342.259 68.168 342.926 68.3367 343.498 68.674C344.07 69.0113 344.514 69.4807 344.829 70.082C345.152 70.676 345.313 71.3653 345.313 72.15C345.313 72.9347 345.152 73.6277 344.829 74.229C344.514 74.823 344.07 75.2887 343.498 75.626C342.926 75.9633 342.259 76.132 341.496 76.132ZM341.496 75.087C342.024 75.087 342.482 74.9697 342.871 74.735C343.267 74.5003 343.575 74.163 343.795 73.723C344.015 73.283 344.125 72.7587 344.125 72.15C344.125 71.5413 344.015 71.017 343.795 70.577C343.575 70.137 343.267 69.7997 342.871 69.565C342.482 69.3303 342.024 69.213 341.496 69.213C340.968 69.213 340.506 69.3303 340.11 69.565C339.714 69.7997 339.406 70.137 339.186 70.577C338.973 71.017 338.867 71.5413 338.867 72.15C338.867 72.7587 338.973 73.283 339.186 73.723C339.406 74.163 339.714 74.5003 340.11 74.735C340.506 74.9697 340.968 75.087 341.496 75.087ZM346.568 78.42V70.544H347.613L347.734 71.391C347.91 71.1343 348.152 70.907 348.46 70.709C348.768 70.511 349.164 70.412 349.648 70.412C350.176 70.412 350.642 70.5367 351.045 70.786C351.448 71.0353 351.764 71.3763 351.991 71.809C352.226 72.2417 352.343 72.733 352.343 73.283C352.343 73.833 352.226 74.3243 351.991 74.757C351.764 75.1823 351.448 75.5197 351.045 75.769C350.642 76.011 350.172 76.132 349.637 76.132C349.212 76.132 348.834 76.0477 348.504 75.879C348.181 75.7103 347.925 75.472 347.734 75.164V78.42H346.568ZM349.439 75.12C349.938 75.12 350.348 74.9513 350.671 74.614C350.994 74.2693 351.155 73.822 351.155 73.272C351.155 72.9127 351.082 72.5937 350.935 72.315C350.788 72.0363 350.587 71.82 350.33 71.666C350.073 71.5047 349.776 71.424 349.439 71.424C348.94 71.424 348.53 71.5963 348.207 71.941C347.892 72.2857 347.734 72.7293 347.734 73.272C347.734 73.822 347.892 74.2693 348.207 74.614C348.53 74.9513 348.94 75.12 349.439 75.12ZM355.677 76C355.142 76 354.717 75.8717 354.401 75.615C354.086 75.351 353.928 74.8853 353.928 74.218V71.523H352.993V70.544H353.928L354.071 69.158H355.094V70.544H356.634V71.523H355.094V74.218C355.094 74.5187 355.157 74.7277 355.281 74.845C355.413 74.955 355.637 75.01 355.952 75.01H356.579V76H355.677ZM358.497 69.51C358.277 69.51 358.093 69.444 357.947 69.312C357.807 69.1727 357.738 69.0003 357.738 68.795C357.738 68.5897 357.807 68.421 357.947 68.289C358.093 68.1497 358.277 68.08 358.497 68.08C358.717 68.08 358.896 68.1497 359.036 68.289C359.182 68.421 359.256 68.5897 359.256 68.795C359.256 69.0003 359.182 69.1727 359.036 69.312C358.896 69.444 358.717 69.51 358.497 69.51ZM357.914 76V70.544H359.08V76H357.914ZM360.619 76V70.544H361.653L361.752 71.314C361.928 71.0353 362.159 70.8153 362.445 70.654C362.738 70.4927 363.076 70.412 363.457 70.412C364.322 70.412 364.924 70.753 365.261 71.435C365.459 71.1197 365.723 70.8703 366.053 70.687C366.39 70.5037 366.753 70.412 367.142 70.412C367.824 70.412 368.359 70.6173 368.748 71.028C369.137 71.4387 369.331 72.051 369.331 72.865V76H368.165V72.986C368.165 71.93 367.762 71.402 366.955 71.402C366.544 71.402 366.207 71.556 365.943 71.864C365.686 72.172 365.558 72.612 365.558 73.184V76H364.392V72.986C364.392 71.93 363.985 71.402 363.171 71.402C362.768 71.402 362.434 71.556 362.17 71.864C361.913 72.172 361.785 72.612 361.785 73.184V76H360.619ZM371.355 69.51C371.135 69.51 370.952 69.444 370.805 69.312C370.666 69.1727 370.596 69.0003 370.596 68.795C370.596 68.5897 370.666 68.421 370.805 68.289C370.952 68.1497 371.135 68.08 371.355 68.08C371.575 68.08 371.755 68.1497 371.894 68.289C372.041 68.421 372.114 68.5897 372.114 68.795C372.114 69.0003 372.041 69.1727 371.894 69.312C371.755 69.444 371.575 69.51 371.355 69.51ZM370.772 76V70.544H371.938V76H370.772ZM373.114 76V75.054L376.029 71.512H373.158V70.544H377.349V71.49L374.412 75.032H377.404V76H373.114ZM380.449 76.132C379.987 76.132 379.606 76.055 379.305 75.901C379.005 75.747 378.781 75.5453 378.634 75.296C378.488 75.0393 378.414 74.7607 378.414 74.46C378.414 73.932 378.62 73.514 379.03 73.206C379.441 72.898 380.028 72.744 380.79 72.744H382.22V72.645C382.22 72.2197 382.103 71.9007 381.868 71.688C381.641 71.4753 381.344 71.369 380.977 71.369C380.655 71.369 380.372 71.4497 380.13 71.611C379.896 71.765 379.753 71.996 379.701 72.304H378.535C378.572 71.908 378.704 71.5707 378.931 71.292C379.166 71.006 379.459 70.7897 379.811 70.643C380.171 70.489 380.563 70.412 380.988 70.412C381.751 70.412 382.341 70.6137 382.759 71.017C383.177 71.413 383.386 71.9557 383.386 72.645V76H382.374L382.275 75.065C382.121 75.3657 381.898 75.6187 381.604 75.824C381.311 76.0293 380.926 76.132 380.449 76.132ZM380.68 75.186C380.996 75.186 381.26 75.1127 381.472 74.966C381.692 74.812 381.861 74.6103 381.978 74.361C382.103 74.1117 382.18 73.8367 382.209 73.536H380.911C380.449 73.536 380.119 73.6167 379.921 73.778C379.731 73.9393 379.635 74.141 379.635 74.383C379.635 74.6323 379.727 74.8303 379.91 74.977C380.101 75.1163 380.358 75.186 380.68 75.186ZM386.926 76C386.391 76 385.966 75.8717 385.65 75.615C385.335 75.351 385.177 74.8853 385.177 74.218V71.523H384.242V70.544H385.177L385.32 69.158H386.343V70.544H387.883V71.523H386.343V74.218C386.343 74.5187 386.406 74.7277 386.53 74.845C386.662 74.955 386.886 75.01 387.201 75.01H387.828V76H386.926ZM389.746 69.51C389.526 69.51 389.342 69.444 389.196 69.312C389.056 69.1727 388.987 69.0003 388.987 68.795C388.987 68.5897 389.056 68.421 389.196 68.289C389.342 68.1497 389.526 68.08 389.746 68.08C389.966 68.08 390.145 68.1497 390.285 68.289C390.431 68.421 390.505 68.5897 390.505 68.795C390.505 69.0003 390.431 69.1727 390.285 69.312C390.145 69.444 389.966 69.51 389.746 69.51ZM389.163 76V70.544H390.329V76H389.163ZM394.42 76.132C393.899 76.132 393.43 76.0147 393.012 75.78C392.601 75.538 392.275 75.2043 392.033 74.779C391.791 74.3463 391.67 73.844 391.67 73.272C391.67 72.7 391.791 72.2013 392.033 71.776C392.282 71.3433 392.616 71.0097 393.034 70.775C393.452 70.533 393.918 70.412 394.431 70.412C394.952 70.412 395.417 70.533 395.828 70.775C396.246 71.0097 396.576 71.3433 396.818 71.776C397.067 72.2013 397.192 72.7 397.192 73.272C397.192 73.844 397.067 74.3463 396.818 74.779C396.576 75.2043 396.246 75.538 395.828 75.78C395.41 76.0147 394.941 76.132 394.42 76.132ZM394.42 75.131C394.699 75.131 394.955 75.0613 395.19 74.922C395.432 74.7827 395.626 74.5773 395.773 74.306C395.92 74.0273 395.993 73.6827 395.993 73.272C395.993 72.8613 395.92 72.5203 395.773 72.249C395.634 71.9703 395.443 71.7613 395.201 71.622C394.966 71.4827 394.71 71.413 394.431 71.413C394.152 71.413 393.892 71.4827 393.65 71.622C393.415 71.7613 393.225 71.9703 393.078 72.249C392.931 72.5203 392.858 72.8613 392.858 73.272C392.858 73.6827 392.931 74.0273 393.078 74.306C393.225 74.5773 393.415 74.7827 393.65 74.922C393.885 75.0613 394.141 75.131 394.42 75.131ZM398.453 76V70.544H399.487L399.575 71.501C399.743 71.1637 399.989 70.8997 400.312 70.709C400.642 70.511 401.019 70.412 401.445 70.412C402.105 70.412 402.622 70.6173 402.996 71.028C403.377 71.4387 403.568 72.051 403.568 72.865V76H402.413V72.986C402.413 71.93 401.98 71.402 401.115 71.402C400.682 71.402 400.323 71.556 400.037 71.864C399.758 72.172 399.619 72.612 399.619 73.184V76H398.453Z" fill="#9CA3AF"/>
<circle cx="93.4197" cy="73.286" r="4.6096" fill="#FF4242"/>
<circle cx="111.858" cy="73.286" r="4.6096" fill="#14DC10"/>
<circle cx="130.297" cy="73.286" r="4.6096" fill="#EFD916"/>
<line x1="107.749" y1="130.906" x2="107.749" y2="408.635" stroke="#ECEFF7"/>
<line x1="504.827" y1="409.135" x2="107.248" y2="409.135" stroke="#ECEFF7"/>
<path d="M135.616 429V422H136.866L139.236 426.66L141.596 422H142.846V429H141.786V423.83L139.646 428H138.826L136.676 423.84V429H135.616ZM146.549 429.12C146.075 429.12 145.649 429.013 145.269 428.8C144.895 428.58 144.599 428.277 144.379 427.89C144.159 427.497 144.049 427.04 144.049 426.52C144.049 426 144.159 425.547 144.379 425.16C144.605 424.767 144.909 424.463 145.289 424.25C145.669 424.03 146.092 423.92 146.559 423.92C147.032 423.92 147.455 424.03 147.829 424.25C148.209 424.463 148.509 424.767 148.729 425.16C148.955 425.547 149.069 426 149.069 426.52C149.069 427.04 148.955 427.497 148.729 427.89C148.509 428.277 148.209 428.58 147.829 428.8C147.449 429.013 147.022 429.12 146.549 429.12ZM146.549 428.21C146.802 428.21 147.035 428.147 147.249 428.02C147.469 427.893 147.645 427.707 147.779 427.46C147.912 427.207 147.979 426.893 147.979 426.52C147.979 426.147 147.912 425.837 147.779 425.59C147.652 425.337 147.479 425.147 147.259 425.02C147.045 424.893 146.812 424.83 146.559 424.83C146.305 424.83 146.069 424.893 145.849 425.02C145.635 425.147 145.462 425.337 145.329 425.59C145.195 425.837 145.129 426.147 145.129 426.52C145.129 426.893 145.195 427.207 145.329 427.46C145.462 427.707 145.635 427.893 145.849 428.02C146.062 428.147 146.295 428.21 146.549 428.21ZM150.215 429V424.04H151.155L151.235 424.91C151.388 424.603 151.612 424.363 151.905 424.19C152.205 424.01 152.548 423.92 152.935 423.92C153.535 423.92 154.005 424.107 154.345 424.48C154.692 424.853 154.865 425.41 154.865 426.15V429H153.815V426.26C153.815 425.3 153.422 424.82 152.635 424.82C152.242 424.82 151.915 424.96 151.655 425.24C151.402 425.52 151.275 425.92 151.275 426.44V429H150.215Z" fill="#005AEE"/>
<path d="M193.456 429V422.86H191.386V422H196.576V422.86H194.516V429H193.456ZM198.86 429.12C198.26 429.12 197.787 428.933 197.44 428.56C197.1 428.187 196.93 427.63 196.93 426.89V424.04H197.99V426.78C197.99 427.74 198.384 428.22 199.17 428.22C199.564 428.22 199.887 428.08 200.14 427.8C200.394 427.52 200.52 427.12 200.52 426.6V424.04H201.58V429H200.64L200.56 428.13C200.407 428.437 200.18 428.68 199.88 428.86C199.587 429.033 199.247 429.12 198.86 429.12ZM205.249 429.12C204.762 429.12 204.329 429.013 203.949 428.8C203.575 428.58 203.282 428.277 203.069 427.89C202.855 427.503 202.749 427.053 202.749 426.54C202.749 426.02 202.852 425.563 203.059 425.17C203.272 424.777 203.565 424.47 203.939 424.25C204.319 424.03 204.759 423.92 205.259 423.92C205.745 423.92 206.169 424.03 206.529 424.25C206.889 424.463 207.169 424.75 207.369 425.11C207.569 425.47 207.669 425.867 207.669 426.3C207.669 426.367 207.665 426.44 207.659 426.52C207.659 426.593 207.655 426.677 207.649 426.77H203.789C203.822 427.25 203.979 427.617 204.259 427.87C204.545 428.117 204.875 428.24 205.249 428.24C205.549 428.24 205.799 428.173 205.999 428.04C206.205 427.9 206.359 427.713 206.459 427.48H207.519C207.385 427.947 207.119 428.337 206.719 428.65C206.325 428.963 205.835 429.12 205.249 429.12ZM205.249 424.79C204.895 424.79 204.582 424.897 204.309 425.11C204.035 425.317 203.869 425.63 203.809 426.05H206.609C206.589 425.663 206.452 425.357 206.199 425.13C205.945 424.903 205.629 424.79 205.249 424.79Z" fill="#005AEE"/>
<path d="M244.837 429.01L242.947 422H244.087L245.477 427.8L247.077 422H248.247L249.797 427.8L251.187 422H252.327L250.407 429H249.167L247.637 423.51L246.057 429L244.837 429.01ZM255.062 429.12C254.576 429.12 254.142 429.013 253.762 428.8C253.389 428.58 253.096 428.277 252.882 427.89C252.669 427.503 252.562 427.053 252.562 426.54C252.562 426.02 252.666 425.563 252.872 425.17C253.086 424.777 253.379 424.47 253.752 424.25C254.132 424.03 254.572 423.92 255.072 423.92C255.559 423.92 255.982 424.03 256.342 424.25C256.702 424.463 256.982 424.75 257.182 425.11C257.382 425.47 257.482 425.867 257.482 426.3C257.482 426.367 257.479 426.44 257.472 426.52C257.472 426.593 257.469 426.677 257.462 426.77H253.602C253.636 427.25 253.792 427.617 254.072 427.87C254.359 428.117 254.689 428.24 255.062 428.24C255.362 428.24 255.612 428.173 255.812 428.04C256.019 427.9 256.172 427.713 256.272 427.48H257.332C257.199 427.947 256.932 428.337 256.532 428.65C256.139 428.963 255.649 429.12 255.062 429.12ZM255.062 424.79C254.709 424.79 254.396 424.897 254.122 425.11C253.849 425.317 253.682 425.63 253.622 426.05H256.422C256.402 425.663 256.266 425.357 256.012 425.13C255.759 424.903 255.442 424.79 255.062 424.79ZM260.842 429.12C260.362 429.12 259.939 429.007 259.572 428.78C259.205 428.553 258.919 428.243 258.712 427.85C258.505 427.457 258.402 427.01 258.402 426.51C258.402 426.01 258.505 425.567 258.712 425.18C258.919 424.787 259.205 424.48 259.572 424.26C259.945 424.033 260.372 423.92 260.852 423.92C261.245 423.92 261.589 423.997 261.882 424.15C262.182 424.303 262.415 424.52 262.582 424.8V421.8H263.642V429H262.692L262.582 428.23C262.422 428.463 262.202 428.67 261.922 428.85C261.642 429.03 261.282 429.12 260.842 429.12ZM261.032 428.2C261.485 428.2 261.855 428.043 262.142 427.73C262.435 427.417 262.582 427.013 262.582 426.52C262.582 426.02 262.435 425.617 262.142 425.31C261.855 424.997 261.485 424.84 261.032 424.84C260.579 424.84 260.205 424.997 259.912 425.31C259.619 425.617 259.472 426.02 259.472 426.52C259.472 426.847 259.539 427.137 259.672 427.39C259.805 427.643 259.989 427.843 260.222 427.99C260.462 428.13 260.732 428.2 261.032 428.2Z" fill="#005AEE"/>
<path d="M302.4 429V422.86H300.33V422H305.52V422.86H303.46V429H302.4ZM306.472 429V421.8H307.532V424.84C307.699 424.553 307.929 424.33 308.222 424.17C308.522 424.003 308.852 423.92 309.212 423.92C309.806 423.92 310.272 424.107 310.612 424.48C310.952 424.853 311.122 425.41 311.122 426.15V429H310.072V426.26C310.072 425.3 309.689 424.82 308.922 424.82C308.522 424.82 308.189 424.96 307.922 425.24C307.662 425.52 307.532 425.92 307.532 426.44V429H306.472ZM314.201 429.12C313.601 429.12 313.127 428.933 312.781 428.56C312.441 428.187 312.271 427.63 312.271 426.89V424.04H313.331V426.78C313.331 427.74 313.724 428.22 314.511 428.22C314.904 428.22 315.227 428.08 315.481 427.8C315.734 427.52 315.861 427.12 315.861 426.6V424.04H316.921V429H315.981L315.901 428.13C315.747 428.437 315.521 428.68 315.221 428.86C314.927 429.033 314.587 429.12 314.201 429.12Z" fill="#005AEE"/>
<path d="M353.503 429V422H357.893V422.86H354.563V425.07H357.323V425.92H354.563V429H353.503ZM358.893 429V424.04H359.843L359.933 424.98C360.106 424.653 360.346 424.397 360.653 424.21C360.966 424.017 361.343 423.92 361.783 423.92V425.03H361.493C361.2 425.03 360.936 425.08 360.703 425.18C360.476 425.273 360.293 425.437 360.153 425.67C360.02 425.897 359.953 426.213 359.953 426.62V429H358.893ZM363.292 423.1C363.092 423.1 362.925 423.04 362.792 422.92C362.665 422.793 362.602 422.637 362.602 422.45C362.602 422.263 362.665 422.11 362.792 421.99C362.925 421.863 363.092 421.8 363.292 421.8C363.492 421.8 363.655 421.863 363.782 421.99C363.915 422.11 363.982 422.263 363.982 422.45C363.982 422.637 363.915 422.793 363.782 422.92C363.655 423.04 363.492 423.1 363.292 423.1ZM362.762 429V424.04H363.822V429H362.762Z" fill="#005AEE"/>
<path d="M401.643 429.12C401.129 429.12 400.679 429.03 400.293 428.85C399.906 428.67 399.603 428.413 399.383 428.08C399.169 427.747 399.059 427.35 399.053 426.89H400.173C400.179 427.263 400.309 427.58 400.563 427.84C400.816 428.1 401.173 428.23 401.633 428.23C402.039 428.23 402.356 428.133 402.583 427.94C402.816 427.74 402.933 427.487 402.933 427.18C402.933 426.933 402.876 426.733 402.763 426.58C402.656 426.427 402.506 426.3 402.313 426.2C402.126 426.1 401.909 426.01 401.663 425.93C401.416 425.85 401.156 425.763 400.883 425.67C400.343 425.49 399.936 425.257 399.663 424.97C399.396 424.683 399.263 424.307 399.263 423.84C399.256 423.447 399.346 423.103 399.533 422.81C399.726 422.517 399.993 422.29 400.333 422.13C400.679 421.963 401.083 421.88 401.543 421.88C401.996 421.88 402.393 421.963 402.733 422.13C403.079 422.297 403.349 422.53 403.543 422.83C403.736 423.123 403.836 423.467 403.843 423.86H402.723C402.723 423.68 402.676 423.51 402.583 423.35C402.489 423.183 402.353 423.047 402.173 422.94C401.993 422.833 401.773 422.78 401.513 422.78C401.179 422.773 400.903 422.857 400.683 423.03C400.469 423.203 400.363 423.443 400.363 423.75C400.363 424.023 400.443 424.233 400.603 424.38C400.763 424.527 400.983 424.65 401.263 424.75C401.543 424.843 401.863 424.953 402.223 425.08C402.569 425.193 402.879 425.33 403.153 425.49C403.426 425.65 403.643 425.86 403.803 426.12C403.969 426.38 404.053 426.71 404.053 427.11C404.053 427.463 403.963 427.793 403.783 428.1C403.603 428.4 403.333 428.647 402.973 428.84C402.613 429.027 402.169 429.12 401.643 429.12ZM406.851 429.12C406.431 429.12 406.085 429.05 405.811 428.91C405.538 428.77 405.335 428.587 405.201 428.36C405.068 428.127 405.001 427.873 405.001 427.6C405.001 427.12 405.188 426.74 405.561 426.46C405.935 426.18 406.468 426.04 407.161 426.04H408.461V425.95C408.461 425.563 408.355 425.273 408.141 425.08C407.935 424.887 407.665 424.79 407.331 424.79C407.038 424.79 406.781 424.863 406.561 425.01C406.348 425.15 406.218 425.36 406.171 425.64H405.111C405.145 425.28 405.265 424.973 405.471 424.72C405.685 424.46 405.951 424.263 406.271 424.13C406.598 423.99 406.955 423.92 407.341 423.92C408.035 423.92 408.571 424.103 408.951 424.47C409.331 424.83 409.521 425.323 409.521 425.95V429H408.601L408.511 428.15C408.371 428.423 408.168 428.653 407.901 428.84C407.635 429.027 407.285 429.12 406.851 429.12ZM407.061 428.26C407.348 428.26 407.588 428.193 407.781 428.06C407.981 427.92 408.135 427.737 408.241 427.51C408.355 427.283 408.425 427.033 408.451 426.76H407.271C406.851 426.76 406.551 426.833 406.371 426.98C406.198 427.127 406.111 427.31 406.111 427.53C406.111 427.757 406.195 427.937 406.361 428.07C406.535 428.197 406.768 428.26 407.061 428.26ZM412.74 429C412.253 429 411.866 428.883 411.58 428.65C411.293 428.41 411.15 427.987 411.15 427.38V424.93H410.3V424.04H411.15L411.28 422.78H412.21V424.04H413.61V424.93H412.21V427.38C412.21 427.653 412.266 427.843 412.38 427.95C412.5 428.05 412.703 428.1 412.99 428.1H413.56V429H412.74Z" fill="#005AEE"/>
<path d="M452.081 429.12C451.567 429.12 451.117 429.03 450.731 428.85C450.344 428.67 450.041 428.413 449.821 428.08C449.607 427.747 449.497 427.35 449.491 426.89H450.611C450.617 427.263 450.747 427.58 451.001 427.84C451.254 428.1 451.611 428.23 452.071 428.23C452.477 428.23 452.794 428.133 453.021 427.94C453.254 427.74 453.371 427.487 453.371 427.18C453.371 426.933 453.314 426.733 453.201 426.58C453.094 426.427 452.944 426.3 452.751 426.2C452.564 426.1 452.347 426.01 452.101 425.93C451.854 425.85 451.594 425.763 451.321 425.67C450.781 425.49 450.374 425.257 450.101 424.97C449.834 424.683 449.701 424.307 449.701 423.84C449.694 423.447 449.784 423.103 449.971 422.81C450.164 422.517 450.431 422.29 450.771 422.13C451.117 421.963 451.521 421.88 451.981 421.88C452.434 421.88 452.831 421.963 453.171 422.13C453.517 422.297 453.787 422.53 453.981 422.83C454.174 423.123 454.274 423.467 454.281 423.86H453.161C453.161 423.68 453.114 423.51 453.021 423.35C452.927 423.183 452.791 423.047 452.611 422.94C452.431 422.833 452.211 422.78 451.951 422.78C451.617 422.773 451.341 422.857 451.121 423.03C450.907 423.203 450.801 423.443 450.801 423.75C450.801 424.023 450.881 424.233 451.041 424.38C451.201 424.527 451.421 424.65 451.701 424.75C451.981 424.843 452.301 424.953 452.661 425.08C453.007 425.193 453.317 425.33 453.591 425.49C453.864 425.65 454.081 425.86 454.241 426.12C454.407 426.38 454.491 426.71 454.491 427.11C454.491 427.463 454.401 427.793 454.221 428.1C454.041 428.4 453.771 428.647 453.411 428.84C453.051 429.027 452.607 429.12 452.081 429.12ZM457.439 429.12C456.839 429.12 456.366 428.933 456.019 428.56C455.679 428.187 455.509 427.63 455.509 426.89V424.04H456.569V426.78C456.569 427.74 456.963 428.22 457.749 428.22C458.143 428.22 458.466 428.08 458.719 427.8C458.973 427.52 459.099 427.12 459.099 426.6V424.04H460.159V429H459.219L459.139 428.13C458.986 428.437 458.759 428.68 458.459 428.86C458.166 429.033 457.826 429.12 457.439 429.12ZM461.508 429V424.04H462.448L462.528 424.91C462.681 424.603 462.905 424.363 463.198 424.19C463.498 424.01 463.841 423.92 464.228 423.92C464.828 423.92 465.298 424.107 465.638 424.48C465.985 424.853 466.158 425.41 466.158 426.15V429H465.108V426.26C465.108 425.3 464.715 424.82 463.928 424.82C463.535 424.82 463.208 424.96 462.948 425.24C462.695 425.52 462.568 425.92 462.568 426.44V429H461.508Z" fill="#005AEE"/>
<path d="M136.702 491.236V484.236H139.112C139.665 484.236 140.118 484.329 140.472 484.516C140.832 484.703 141.098 484.956 141.272 485.276C141.445 485.589 141.532 485.939 141.532 486.326C141.532 486.759 141.415 487.153 141.182 487.506C140.955 487.859 140.598 488.113 140.112 488.266L141.602 491.236H140.372L139.012 488.416H137.762V491.236H136.702ZM137.762 487.616H139.052C139.532 487.616 139.882 487.499 140.102 487.266C140.328 487.033 140.442 486.729 140.442 486.356C140.442 485.983 140.332 485.686 140.112 485.466C139.892 485.239 139.535 485.126 139.042 485.126H137.762V487.616ZM144.269 491.356C143.849 491.356 143.503 491.286 143.229 491.146C142.956 491.006 142.753 490.823 142.619 490.596C142.486 490.363 142.419 490.109 142.419 489.836C142.419 489.356 142.606 488.976 142.979 488.696C143.353 488.416 143.886 488.276 144.579 488.276H145.879V488.186C145.879 487.799 145.773 487.509 145.559 487.316C145.353 487.123 145.083 487.026 144.749 487.026C144.456 487.026 144.199 487.099 143.979 487.246C143.766 487.386 143.636 487.596 143.589 487.876H142.529C142.563 487.516 142.683 487.209 142.889 486.956C143.103 486.696 143.369 486.499 143.689 486.366C144.016 486.226 144.373 486.156 144.759 486.156C145.453 486.156 145.989 486.339 146.369 486.706C146.749 487.066 146.939 487.559 146.939 488.186V491.236H146.019L145.929 490.386C145.789 490.659 145.586 490.889 145.319 491.076C145.053 491.263 144.703 491.356 144.269 491.356ZM144.479 490.496C144.766 490.496 145.006 490.429 145.199 490.296C145.399 490.156 145.553 489.973 145.659 489.746C145.773 489.519 145.843 489.269 145.869 488.996H144.689C144.269 488.996 143.969 489.069 143.789 489.216C143.616 489.363 143.529 489.546 143.529 489.766C143.529 489.993 143.613 490.173 143.779 490.306C143.953 490.433 144.186 490.496 144.479 490.496ZM148.175 491.236V486.276H149.115L149.195 487.146C149.349 486.839 149.572 486.599 149.865 486.426C150.165 486.246 150.509 486.156 150.895 486.156C151.495 486.156 151.965 486.343 152.305 486.716C152.652 487.089 152.825 487.646 152.825 488.386V491.236H151.775V488.496C151.775 487.536 151.382 487.056 150.595 487.056C150.202 487.056 149.875 487.196 149.615 487.476C149.362 487.756 149.235 488.156 149.235 488.676V491.236H148.175ZM154.074 491.236V484.036H155.134V488.326L157.034 486.276H158.304L156.194 488.526L158.614 491.236H157.274L155.134 488.696V491.236H154.074ZM161.955 491.236V486.276H162.895L162.975 487.146C163.128 486.839 163.351 486.599 163.645 486.426C163.945 486.246 164.288 486.156 164.675 486.156C165.275 486.156 165.745 486.343 166.085 486.716C166.431 487.089 166.605 487.646 166.605 488.386V491.236H165.555V488.496C165.555 487.536 165.161 487.056 164.375 487.056C163.981 487.056 163.655 487.196 163.395 487.476C163.141 487.756 163.015 488.156 163.015 488.676V491.236H161.955ZM169.683 491.356C169.083 491.356 168.61 491.169 168.263 490.796C167.923 490.423 167.753 489.866 167.753 489.126V486.276H168.813V489.016C168.813 489.976 169.206 490.456 169.993 490.456C170.386 490.456 170.71 490.316 170.963 490.036C171.216 489.756 171.343 489.356 171.343 488.836V486.276H172.403V491.236H171.463L171.383 490.366C171.23 490.673 171.003 490.916 170.703 491.096C170.41 491.269 170.07 491.356 169.683 491.356ZM173.752 491.236V486.276H174.692L174.782 486.976C174.942 486.723 175.152 486.523 175.412 486.376C175.678 486.229 175.985 486.156 176.332 486.156C177.118 486.156 177.665 486.466 177.972 487.086C178.152 486.799 178.392 486.573 178.692 486.406C178.998 486.239 179.328 486.156 179.682 486.156C180.302 486.156 180.788 486.343 181.142 486.716C181.495 487.089 181.672 487.646 181.672 488.386V491.236H180.612V488.496C180.612 487.536 180.245 487.056 179.512 487.056C179.138 487.056 178.832 487.196 178.592 487.476C178.358 487.756 178.242 488.156 178.242 488.676V491.236H177.182V488.496C177.182 487.536 176.812 487.056 176.072 487.056C175.705 487.056 175.402 487.196 175.162 487.476C174.928 487.756 174.812 488.156 174.812 488.676V491.236H173.752ZM185.702 491.356C185.315 491.356 184.972 491.279 184.672 491.126C184.378 490.973 184.145 490.756 183.972 490.476L183.862 491.236H182.912V484.036H183.972V487.046C184.132 486.813 184.352 486.606 184.632 486.426C184.912 486.246 185.272 486.156 185.712 486.156C186.192 486.156 186.615 486.269 186.982 486.496C187.348 486.723 187.635 487.033 187.842 487.426C188.055 487.819 188.162 488.266 188.162 488.766C188.162 489.266 188.055 489.713 187.842 490.106C187.635 490.493 187.348 490.799 186.982 491.026C186.615 491.246 186.188 491.356 185.702 491.356ZM185.522 490.436C185.975 490.436 186.348 490.283 186.642 489.976C186.935 489.663 187.082 489.256 187.082 488.756C187.082 488.429 187.015 488.139 186.882 487.886C186.748 487.633 186.565 487.436 186.332 487.296C186.098 487.149 185.828 487.076 185.522 487.076C185.068 487.076 184.695 487.233 184.402 487.546C184.115 487.859 183.972 488.263 183.972 488.756C183.972 489.256 184.115 489.663 184.402 489.976C184.695 490.283 185.068 490.436 185.522 490.436ZM191.628 491.356C191.142 491.356 190.708 491.249 190.328 491.036C189.955 490.816 189.662 490.513 189.448 490.126C189.235 489.739 189.128 489.289 189.128 488.776C189.128 488.256 189.232 487.799 189.438 487.406C189.652 487.013 189.945 486.706 190.318 486.486C190.698 486.266 191.138 486.156 191.638 486.156C192.125 486.156 192.548 486.266 192.908 486.486C193.268 486.699 193.548 486.986 193.748 487.346C193.948 487.706 194.048 488.103 194.048 488.536C194.048 488.603 194.045 488.676 194.038 488.756C194.038 488.829 194.035 488.913 194.028 489.006H190.168C190.202 489.486 190.358 489.853 190.638 490.106C190.925 490.353 191.255 490.476 191.628 490.476C191.928 490.476 192.178 490.409 192.378 490.276C192.585 490.136 192.738 489.949 192.838 489.716H193.898C193.765 490.183 193.498 490.573 193.098 490.886C192.705 491.199 192.215 491.356 191.628 491.356ZM191.628 487.026C191.275 487.026 190.962 487.133 190.688 487.346C190.415 487.553 190.248 487.866 190.188 488.286H192.988C192.968 487.899 192.832 487.593 192.578 487.366C192.325 487.139 192.008 487.026 191.628 487.026ZM195.148 491.236V486.276H196.098L196.188 487.216C196.361 486.889 196.601 486.633 196.908 486.446C197.221 486.253 197.598 486.156 198.038 486.156V487.266H197.748C197.455 487.266 197.191 487.316 196.958 487.416C196.731 487.509 196.548 487.673 196.408 487.906C196.275 488.133 196.208 488.449 196.208 488.856V491.236H195.148ZM202.226 491.236V485.436L201.096 485.696V484.916L202.646 484.236H203.326V491.236H202.226Z" fill="#005AEE"/>
<path d="M363.498 491.356C362.804 491.356 362.198 491.203 361.678 490.896C361.158 490.589 360.751 490.166 360.458 489.626C360.164 489.079 360.018 488.449 360.018 487.736C360.018 487.023 360.164 486.396 360.458 485.856C360.751 485.309 361.158 484.883 361.678 484.576C362.198 484.269 362.804 484.116 363.498 484.116C364.191 484.116 364.798 484.269 365.318 484.576C365.838 484.883 366.241 485.309 366.528 485.856C366.821 486.396 366.968 487.023 366.968 487.736C366.968 488.449 366.821 489.079 366.528 489.626C366.241 490.166 365.838 490.589 365.318 490.896C364.798 491.203 364.191 491.356 363.498 491.356ZM363.498 490.406C363.978 490.406 364.394 490.299 364.748 490.086C365.108 489.873 365.388 489.566 365.588 489.166C365.788 488.766 365.888 488.289 365.888 487.736C365.888 487.183 365.788 486.706 365.588 486.306C365.388 485.906 365.108 485.599 364.748 485.386C364.394 485.173 363.978 485.066 363.498 485.066C363.018 485.066 362.598 485.173 362.238 485.386C361.878 485.599 361.598 485.906 361.398 486.306C361.204 486.706 361.108 487.183 361.108 487.736C361.108 488.289 361.204 488.766 361.398 489.166C361.598 489.566 361.878 489.873 362.238 490.086C362.598 490.299 363.018 490.406 363.498 490.406ZM368.108 491.236V486.276H369.058L369.148 487.216C369.322 486.889 369.562 486.633 369.868 486.446C370.182 486.253 370.558 486.156 370.998 486.156V487.266H370.708C370.415 487.266 370.152 487.316 369.918 487.416C369.692 487.509 369.508 487.673 369.368 487.906C369.235 488.133 369.168 488.449 369.168 488.856V491.236H368.108ZM373.82 489.716C373.56 489.716 373.32 489.686 373.1 489.626L372.67 490.046C372.743 490.093 372.833 490.133 372.94 490.166C373.047 490.199 373.197 490.229 373.39 490.256C373.583 490.283 373.847 490.309 374.18 490.336C374.84 490.396 375.317 490.556 375.61 490.816C375.903 491.069 376.05 491.409 376.05 491.836C376.05 492.129 375.97 492.406 375.81 492.666C375.657 492.933 375.413 493.146 375.08 493.306C374.753 493.473 374.333 493.556 373.82 493.556C373.127 493.556 372.563 493.423 372.13 493.156C371.703 492.896 371.49 492.499 371.49 491.966C371.49 491.759 371.543 491.553 371.65 491.346C371.763 491.146 371.94 490.956 372.18 490.776C372.04 490.716 371.917 490.653 371.81 490.586C371.71 490.513 371.62 490.439 371.54 490.366V490.126L372.4 489.246C372.013 488.913 371.82 488.476 371.82 487.936C371.82 487.609 371.897 487.313 372.05 487.046C372.21 486.773 372.44 486.556 372.74 486.396C373.04 486.236 373.4 486.156 373.82 486.156C374.1 486.156 374.36 486.196 374.6 486.276H376.45V486.976L375.57 487.026C375.73 487.299 375.81 487.603 375.81 487.936C375.81 488.269 375.73 488.569 375.57 488.836C375.417 489.103 375.19 489.316 374.89 489.476C374.597 489.636 374.24 489.716 373.82 489.716ZM373.82 488.886C374.127 488.886 374.373 488.806 374.56 488.646C374.753 488.479 374.85 488.246 374.85 487.946C374.85 487.639 374.753 487.406 374.56 487.246C374.373 487.086 374.127 487.006 373.82 487.006C373.507 487.006 373.253 487.086 373.06 487.246C372.873 487.406 372.78 487.639 372.78 487.946C372.78 488.246 372.873 488.479 373.06 488.646C373.253 488.806 373.507 488.886 373.82 488.886ZM372.49 491.866C372.49 492.153 372.617 492.366 372.87 492.506C373.123 492.653 373.44 492.726 373.82 492.726C374.187 492.726 374.483 492.646 374.71 492.486C374.937 492.333 375.05 492.126 375.05 491.866C375.05 491.673 374.973 491.506 374.82 491.366C374.667 491.233 374.377 491.149 373.95 491.116C373.63 491.096 373.347 491.066 373.1 491.026C372.867 491.153 372.707 491.289 372.62 491.436C372.533 491.583 372.49 491.726 372.49 491.866ZM379.076 491.356C378.656 491.356 378.309 491.286 378.036 491.146C377.762 491.006 377.559 490.823 377.426 490.596C377.292 490.363 377.226 490.109 377.226 489.836C377.226 489.356 377.412 488.976 377.786 488.696C378.159 488.416 378.692 488.276 379.386 488.276H380.686V488.186C380.686 487.799 380.579 487.509 380.366 487.316C380.159 487.123 379.889 487.026 379.556 487.026C379.262 487.026 379.006 487.099 378.786 487.246C378.572 487.386 378.442 487.596 378.396 487.876H377.336C377.369 487.516 377.489 487.209 377.696 486.956C377.909 486.696 378.176 486.499 378.496 486.366C378.822 486.226 379.179 486.156 379.566 486.156C380.259 486.156 380.796 486.339 381.176 486.706C381.556 487.066 381.746 487.559 381.746 488.186V491.236H380.826L380.736 490.386C380.596 490.659 380.392 490.889 380.126 491.076C379.859 491.263 379.509 491.356 379.076 491.356ZM379.286 490.496C379.572 490.496 379.812 490.429 380.006 490.296C380.206 490.156 380.359 489.973 380.466 489.746C380.579 489.519 380.649 489.269 380.676 488.996H379.496C379.076 488.996 378.776 489.069 378.596 489.216C378.422 489.363 378.336 489.546 378.336 489.766C378.336 489.993 378.419 490.173 378.586 490.306C378.759 490.433 378.992 490.496 379.286 490.496ZM382.982 491.236V486.276H383.922L384.002 487.146C384.155 486.839 384.378 486.599 384.672 486.426C384.972 486.246 385.315 486.156 385.702 486.156C386.302 486.156 386.772 486.343 387.112 486.716C387.458 487.089 387.632 487.646 387.632 488.386V491.236H386.582V488.496C386.582 487.536 386.188 487.056 385.402 487.056C385.008 487.056 384.682 487.196 384.422 487.476C384.168 487.756 384.042 488.156 384.042 488.676V491.236H382.982ZM389.48 485.336C389.28 485.336 389.113 485.276 388.98 485.156C388.853 485.029 388.79 484.873 388.79 484.686C388.79 484.499 388.853 484.346 388.98 484.226C389.113 484.099 389.28 484.036 389.48 484.036C389.68 484.036 389.843 484.099 389.97 484.226C390.103 484.346 390.17 484.499 390.17 484.686C390.17 484.873 390.103 485.029 389.97 485.156C389.843 485.276 389.68 485.336 389.48 485.336ZM388.95 491.236V486.276H390.01V491.236H388.95ZM393.759 491.356C393.273 491.356 392.836 491.246 392.449 491.026C392.069 490.806 391.769 490.503 391.549 490.116C391.336 489.723 391.229 489.269 391.229 488.756C391.229 488.243 391.336 487.793 391.549 487.406C391.769 487.013 392.069 486.706 392.449 486.486C392.836 486.266 393.273 486.156 393.759 486.156C394.373 486.156 394.886 486.316 395.299 486.636C395.719 486.956 395.989 487.389 396.109 487.936H394.999C394.933 487.663 394.786 487.449 394.559 487.296C394.333 487.143 394.066 487.066 393.759 487.066C393.499 487.066 393.259 487.133 393.039 487.266C392.819 487.393 392.643 487.583 392.509 487.836C392.376 488.083 392.309 488.389 392.309 488.756C392.309 489.123 392.376 489.433 392.509 489.686C392.643 489.933 392.819 490.123 393.039 490.256C393.259 490.389 393.499 490.456 393.759 490.456C394.066 490.456 394.333 490.379 394.559 490.226C394.786 490.073 394.933 489.856 394.999 489.576H396.109C395.996 490.109 395.729 490.539 395.309 490.866C394.889 491.193 394.373 491.356 393.759 491.356ZM402.128 491.356C401.642 491.356 401.205 491.246 400.818 491.026C400.438 490.806 400.138 490.503 399.918 490.116C399.705 489.723 399.598 489.269 399.598 488.756C399.598 488.243 399.705 487.793 399.918 487.406C400.138 487.013 400.438 486.706 400.818 486.486C401.205 486.266 401.642 486.156 402.128 486.156C402.742 486.156 403.255 486.316 403.668 486.636C404.088 486.956 404.358 487.389 404.478 487.936H403.368C403.302 487.663 403.155 487.449 402.928 487.296C402.702 487.143 402.435 487.066 402.128 487.066C401.868 487.066 401.628 487.133 401.408 487.266C401.188 487.393 401.012 487.583 400.878 487.836C400.745 488.083 400.678 488.389 400.678 488.756C400.678 489.123 400.745 489.433 400.878 489.686C401.012 489.933 401.188 490.123 401.408 490.256C401.628 490.389 401.868 490.456 402.128 490.456C402.435 490.456 402.702 490.379 402.928 490.226C403.155 490.073 403.302 489.856 403.368 489.576H404.478C404.365 490.109 404.098 490.539 403.678 490.866C403.258 491.193 402.742 491.356 402.128 491.356ZM407.458 491.356C406.858 491.356 406.385 491.169 406.038 490.796C405.698 490.423 405.528 489.866 405.528 489.126V486.276H406.588V489.016C406.588 489.976 406.981 490.456 407.768 490.456C408.161 490.456 408.485 490.316 408.738 490.036C408.991 489.756 409.118 489.356 409.118 488.836V486.276H410.178V491.236H409.238L409.158 490.366C409.005 490.673 408.778 490.916 408.478 491.096C408.185 491.269 407.845 491.356 407.458 491.356ZM413.506 491.356C412.88 491.356 412.363 491.203 411.956 490.896C411.55 490.589 411.316 490.183 411.256 489.676H412.326C412.38 489.903 412.506 490.099 412.706 490.266C412.906 490.426 413.17 490.506 413.496 490.506C413.816 490.506 414.05 490.439 414.196 490.306C414.343 490.173 414.416 490.019 414.416 489.846C414.416 489.593 414.313 489.423 414.106 489.336C413.906 489.243 413.626 489.159 413.266 489.086C412.986 489.026 412.706 488.946 412.426 488.846C412.153 488.746 411.923 488.606 411.736 488.426C411.556 488.239 411.466 487.989 411.466 487.676C411.466 487.243 411.633 486.883 411.966 486.596C412.3 486.303 412.766 486.156 413.366 486.156C413.92 486.156 414.366 486.289 414.706 486.556C415.053 486.823 415.256 487.199 415.316 487.686H414.296C414.263 487.473 414.163 487.306 413.996 487.186C413.836 487.066 413.62 487.006 413.346 487.006C413.08 487.006 412.873 487.063 412.726 487.176C412.58 487.283 412.506 487.423 412.506 487.596C412.506 487.769 412.606 487.906 412.806 488.006C413.013 488.106 413.283 488.196 413.616 488.276C413.95 488.349 414.256 488.436 414.536 488.536C414.823 488.629 415.053 488.769 415.226 488.956C415.4 489.143 415.486 489.416 415.486 489.776C415.493 490.229 415.316 490.606 414.956 490.906C414.603 491.206 414.12 491.356 413.506 491.356ZM418.538 491.236C418.051 491.236 417.665 491.119 417.378 490.886C417.091 490.646 416.948 490.223 416.948 489.616V487.166H416.098V486.276H416.948L417.078 485.016H418.008V486.276H419.408V487.166H418.008V489.616C418.008 489.889 418.065 490.079 418.178 490.186C418.298 490.286 418.501 490.336 418.788 490.336H419.358V491.236H418.538ZM422.694 491.356C422.221 491.356 421.794 491.249 421.414 491.036C421.041 490.816 420.744 490.513 420.524 490.126C420.304 489.733 420.194 489.276 420.194 488.756C420.194 488.236 420.304 487.783 420.524 487.396C420.751 487.003 421.054 486.699 421.434 486.486C421.814 486.266 422.237 486.156 422.704 486.156C423.177 486.156 423.601 486.266 423.974 486.486C424.354 486.699 424.654 487.003 424.874 487.396C425.101 487.783 425.214 488.236 425.214 488.756C425.214 489.276 425.101 489.733 424.874 490.126C424.654 490.513 424.354 490.816 423.974 491.036C423.594 491.249 423.167 491.356 422.694 491.356ZM422.694 490.446C422.947 490.446 423.181 490.383 423.394 490.256C423.614 490.129 423.791 489.943 423.924 489.696C424.057 489.443 424.124 489.129 424.124 488.756C424.124 488.383 424.057 488.073 423.924 487.826C423.797 487.573 423.624 487.383 423.404 487.256C423.191 487.129 422.957 487.066 422.704 487.066C422.451 487.066 422.214 487.129 421.994 487.256C421.781 487.383 421.607 487.573 421.474 487.826C421.341 488.073 421.274 488.383 421.274 488.756C421.274 489.129 421.341 489.443 421.474 489.696C421.607 489.943 421.781 490.129 421.994 490.256C422.207 490.383 422.441 490.446 422.694 490.446ZM426.36 491.236V486.276H427.3L427.39 486.976C427.55 486.723 427.76 486.523 428.02 486.376C428.287 486.229 428.594 486.156 428.94 486.156C429.727 486.156 430.274 486.466 430.58 487.086C430.76 486.799 431 486.573 431.3 486.406C431.607 486.239 431.937 486.156 432.29 486.156C432.91 486.156 433.397 486.343 433.75 486.716C434.104 487.089 434.28 487.646 434.28 488.386V491.236H433.22V488.496C433.22 487.536 432.854 487.056 432.12 487.056C431.747 487.056 431.44 487.196 431.2 487.476C430.967 487.756 430.85 488.156 430.85 488.676V491.236H429.79V488.496C429.79 487.536 429.42 487.056 428.68 487.056C428.314 487.056 428.01 487.196 427.77 487.476C427.537 487.756 427.42 488.156 427.42 488.676V491.236H426.36ZM437.841 491.356C437.354 491.356 436.921 491.249 436.541 491.036C436.167 490.816 435.874 490.513 435.661 490.126C435.447 489.739 435.341 489.289 435.341 488.776C435.341 488.256 435.444 487.799 435.651 487.406C435.864 487.013 436.157 486.706 436.531 486.486C436.911 486.266 437.351 486.156 437.851 486.156C438.337 486.156 438.761 486.266 439.121 486.486C439.481 486.699 439.761 486.986 439.961 487.346C440.161 487.706 440.261 488.103 440.261 488.536C440.261 488.603 440.257 488.676 440.251 488.756C440.251 488.829 440.247 488.913 440.241 489.006H436.381C436.414 489.486 436.571 489.853 436.851 490.106C437.137 490.353 437.467 490.476 437.841 490.476C438.141 490.476 438.391 490.409 438.591 490.276C438.797 490.136 438.951 489.949 439.051 489.716H440.111C439.977 490.183 439.711 490.573 439.311 490.886C438.917 491.199 438.427 491.356 437.841 491.356ZM437.841 487.026C437.487 487.026 437.174 487.133 436.901 487.346C436.627 487.553 436.461 487.866 436.401 488.286H439.201C439.181 487.899 439.044 487.593 438.791 487.366C438.537 487.139 438.221 487.026 437.841 487.026ZM441.36 491.236V486.276H442.31L442.4 487.216C442.574 486.889 442.814 486.633 443.12 486.446C443.434 486.253 443.81 486.156 444.25 486.156V487.266H443.96C443.667 487.266 443.404 487.316 443.17 487.416C442.944 487.509 442.76 487.673 442.62 487.906C442.487 488.133 442.42 488.449 442.42 488.856V491.236H441.36ZM447.139 491.356C446.513 491.356 445.996 491.203 445.589 490.896C445.183 490.589 444.949 490.183 444.889 489.676H445.959C446.013 489.903 446.139 490.099 446.339 490.266C446.539 490.426 446.803 490.506 447.129 490.506C447.449 490.506 447.683 490.439 447.829 490.306C447.976 490.173 448.049 490.019 448.049 489.846C448.049 489.593 447.946 489.423 447.739 489.336C447.539 489.243 447.259 489.159 446.899 489.086C446.619 489.026 446.339 488.946 446.059 488.846C445.786 488.746 445.556 488.606 445.369 488.426C445.189 488.239 445.099 487.989 445.099 487.676C445.099 487.243 445.266 486.883 445.599 486.596C445.933 486.303 446.399 486.156 446.999 486.156C447.553 486.156 447.999 486.289 448.339 486.556C448.686 486.823 448.889 487.199 448.949 487.686H447.929C447.896 487.473 447.796 487.306 447.629 487.186C447.469 487.066 447.253 487.006 446.979 487.006C446.713 487.006 446.506 487.063 446.359 487.176C446.213 487.283 446.139 487.423 446.139 487.596C446.139 487.769 446.239 487.906 446.439 488.006C446.646 488.106 446.916 488.196 447.249 488.276C447.583 488.349 447.889 488.436 448.169 488.536C448.456 488.629 448.686 488.769 448.859 488.956C449.033 489.143 449.119 489.416 449.119 489.776C449.126 490.229 448.949 490.606 448.589 490.906C448.236 491.206 447.753 491.356 447.139 491.356ZM454.826 489.716C454.566 489.716 454.326 489.686 454.106 489.626L453.676 490.046C453.749 490.093 453.839 490.133 453.946 490.166C454.053 490.199 454.203 490.229 454.396 490.256C454.589 490.283 454.853 490.309 455.186 490.336C455.846 490.396 456.323 490.556 456.616 490.816C456.909 491.069 457.056 491.409 457.056 491.836C457.056 492.129 456.976 492.406 456.816 492.666C456.663 492.933 456.419 493.146 456.086 493.306C455.759 493.473 455.339 493.556 454.826 493.556C454.133 493.556 453.569 493.423 453.136 493.156C452.709 492.896 452.496 492.499 452.496 491.966C452.496 491.759 452.549 491.553 452.656 491.346C452.769 491.146 452.946 490.956 453.186 490.776C453.046 490.716 452.923 490.653 452.816 490.586C452.716 490.513 452.626 490.439 452.546 490.366V490.126L453.406 489.246C453.019 488.913 452.826 488.476 452.826 487.936C452.826 487.609 452.903 487.313 453.056 487.046C453.216 486.773 453.446 486.556 453.746 486.396C454.046 486.236 454.406 486.156 454.826 486.156C455.106 486.156 455.366 486.196 455.606 486.276H457.456V486.976L456.576 487.026C456.736 487.299 456.816 487.603 456.816 487.936C456.816 488.269 456.736 488.569 456.576 488.836C456.423 489.103 456.196 489.316 455.896 489.476C455.603 489.636 455.246 489.716 454.826 489.716ZM454.826 488.886C455.133 488.886 455.379 488.806 455.566 488.646C455.759 488.479 455.856 488.246 455.856 487.946C455.856 487.639 455.759 487.406 455.566 487.246C455.379 487.086 455.133 487.006 454.826 487.006C454.513 487.006 454.259 487.086 454.066 487.246C453.879 487.406 453.786 487.639 453.786 487.946C453.786 488.246 453.879 488.479 454.066 488.646C454.259 488.806 454.513 488.886 454.826 488.886ZM453.496 491.866C453.496 492.153 453.623 492.366 453.876 492.506C454.129 492.653 454.446 492.726 454.826 492.726C455.193 492.726 455.489 492.646 455.716 492.486C455.943 492.333 456.056 492.126 456.056 491.866C456.056 491.673 455.979 491.506 455.826 491.366C455.673 491.233 455.383 491.149 454.956 491.116C454.636 491.096 454.353 491.066 454.106 491.026C453.873 491.153 453.713 491.289 453.626 491.436C453.539 491.583 453.496 491.726 453.496 491.866ZM458.401 491.236V486.276H459.351L459.441 487.216C459.615 486.889 459.855 486.633 460.161 486.446C460.475 486.253 460.851 486.156 461.291 486.156V487.266H461.001C460.708 487.266 460.445 487.316 460.211 487.416C459.985 487.509 459.801 487.673 459.661 487.906C459.528 488.133 459.461 488.449 459.461 488.856V491.236H458.401ZM464.384 491.356C463.91 491.356 463.484 491.249 463.104 491.036C462.73 490.816 462.434 490.513 462.214 490.126C461.994 489.733 461.884 489.276 461.884 488.756C461.884 488.236 461.994 487.783 462.214 487.396C462.44 487.003 462.744 486.699 463.124 486.486C463.504 486.266 463.927 486.156 464.394 486.156C464.867 486.156 465.29 486.266 465.664 486.486C466.044 486.699 466.344 487.003 466.564 487.396C466.79 487.783 466.904 488.236 466.904 488.756C466.904 489.276 466.79 489.733 466.564 490.126C466.344 490.513 466.044 490.816 465.664 491.036C465.284 491.249 464.857 491.356 464.384 491.356ZM464.384 490.446C464.637 490.446 464.87 490.383 465.084 490.256C465.304 490.129 465.48 489.943 465.614 489.696C465.747 489.443 465.814 489.129 465.814 488.756C465.814 488.383 465.747 488.073 465.614 487.826C465.487 487.573 465.314 487.383 465.094 487.256C464.88 487.129 464.647 487.066 464.394 487.066C464.14 487.066 463.904 487.129 463.684 487.256C463.47 487.383 463.297 487.573 463.164 487.826C463.03 488.073 462.964 488.383 462.964 488.756C462.964 489.129 463.03 489.443 463.164 489.696C463.297 489.943 463.47 490.129 463.684 490.256C463.897 490.383 464.13 490.446 464.384 490.446ZM468.854 491.236L467.394 486.276H468.454L469.414 490.016L470.494 486.276H471.674L472.754 490.016L473.714 486.276H474.774L473.314 491.236H472.224L471.084 487.336L469.944 491.236H468.854ZM477.728 491.236C477.241 491.236 476.854 491.119 476.568 490.886C476.281 490.646 476.138 490.223 476.138 489.616V487.166H475.288V486.276H476.138L476.268 485.016H477.198V486.276H478.598V487.166H477.198V489.616C477.198 489.889 477.254 490.079 477.368 490.186C477.488 490.286 477.691 490.336 477.978 490.336H478.548V491.236H477.728ZM479.691 491.236V484.036H480.751V487.076C480.917 486.789 481.147 486.566 481.441 486.406C481.741 486.239 482.071 486.156 482.431 486.156C483.024 486.156 483.491 486.343 483.831 486.716C484.171 487.089 484.341 487.646 484.341 488.386V491.236H483.291V488.496C483.291 487.536 482.907 487.056 482.141 487.056C481.741 487.056 481.407 487.196 481.141 487.476C480.881 487.756 480.751 488.156 480.751 488.676V491.236H479.691Z" fill="#005AEE"/>
<path d="M134.71 530V523H135.77V530H134.71ZM137.15 530V525.04H138.09L138.17 525.91C138.324 525.603 138.547 525.363 138.84 525.19C139.14 525.01 139.484 524.92 139.87 524.92C140.47 524.92 140.94 525.107 141.28 525.48C141.627 525.853 141.8 526.41 141.8 527.15V530H140.75V527.26C140.75 526.3 140.357 525.82 139.57 525.82C139.177 525.82 138.85 525.96 138.59 526.24C138.337 526.52 138.21 526.92 138.21 527.44V530H137.15ZM145.399 530.12C144.912 530.12 144.476 530.01 144.089 529.79C143.709 529.57 143.409 529.267 143.189 528.88C142.976 528.487 142.869 528.033 142.869 527.52C142.869 527.007 142.976 526.557 143.189 526.17C143.409 525.777 143.709 525.47 144.089 525.25C144.476 525.03 144.912 524.92 145.399 524.92C146.012 524.92 146.526 525.08 146.939 525.4C147.359 525.72 147.629 526.153 147.749 526.7H146.639C146.572 526.427 146.426 526.213 146.199 526.06C145.972 525.907 145.706 525.83 145.399 525.83C145.139 525.83 144.899 525.897 144.679 526.03C144.459 526.157 144.282 526.347 144.149 526.6C144.016 526.847 143.949 527.153 143.949 527.52C143.949 527.887 144.016 528.197 144.149 528.45C144.282 528.697 144.459 528.887 144.679 529.02C144.899 529.153 145.139 529.22 145.399 529.22C145.706 529.22 145.972 529.143 146.199 528.99C146.426 528.837 146.572 528.62 146.639 528.34H147.749C147.636 528.873 147.369 529.303 146.949 529.63C146.529 529.957 146.012 530.12 145.399 530.12ZM148.899 530V525.04H149.849L149.939 525.98C150.112 525.653 150.352 525.397 150.659 525.21C150.972 525.017 151.349 524.92 151.789 524.92V526.03H151.499C151.205 526.03 150.942 526.08 150.709 526.18C150.482 526.273 150.299 526.437 150.159 526.67C150.025 526.897 149.959 527.213 149.959 527.62V530H148.899ZM154.881 530.12C154.394 530.12 153.961 530.013 153.581 529.8C153.207 529.58 152.914 529.277 152.701 528.89C152.487 528.503 152.381 528.053 152.381 527.54C152.381 527.02 152.484 526.563 152.691 526.17C152.904 525.777 153.197 525.47 153.571 525.25C153.951 525.03 154.391 524.92 154.891 524.92C155.377 524.92 155.801 525.03 156.161 525.25C156.521 525.463 156.801 525.75 157.001 526.11C157.201 526.47 157.301 526.867 157.301 527.3C157.301 527.367 157.297 527.44 157.291 527.52C157.291 527.593 157.287 527.677 157.281 527.77H153.421C153.454 528.25 153.611 528.617 153.891 528.87C154.177 529.117 154.507 529.24 154.881 529.24C155.181 529.24 155.431 529.173 155.631 529.04C155.837 528.9 155.991 528.713 156.091 528.48H157.151C157.017 528.947 156.751 529.337 156.351 529.65C155.957 529.963 155.467 530.12 154.881 530.12ZM154.881 525.79C154.527 525.79 154.214 525.897 153.941 526.11C153.667 526.317 153.501 526.63 153.441 527.05H156.241C156.221 526.663 156.084 526.357 155.831 526.13C155.577 525.903 155.261 525.79 154.881 525.79ZM160.08 530.12C159.66 530.12 159.314 530.05 159.04 529.91C158.767 529.77 158.564 529.587 158.43 529.36C158.297 529.127 158.23 528.873 158.23 528.6C158.23 528.12 158.417 527.74 158.79 527.46C159.164 527.18 159.697 527.04 160.39 527.04H161.69V526.95C161.69 526.563 161.584 526.273 161.37 526.08C161.164 525.887 160.894 525.79 160.56 525.79C160.267 525.79 160.01 525.863 159.79 526.01C159.577 526.15 159.447 526.36 159.4 526.64H158.34C158.374 526.28 158.494 525.973 158.7 525.72C158.914 525.46 159.18 525.263 159.5 525.13C159.827 524.99 160.184 524.92 160.57 524.92C161.264 524.92 161.8 525.103 162.18 525.47C162.56 525.83 162.75 526.323 162.75 526.95V530H161.83L161.74 529.15C161.6 529.423 161.397 529.653 161.13 529.84C160.864 530.027 160.514 530.12 160.08 530.12ZM160.29 529.26C160.577 529.26 160.817 529.193 161.01 529.06C161.21 528.92 161.364 528.737 161.47 528.51C161.584 528.283 161.654 528.033 161.68 527.76H160.5C160.08 527.76 159.78 527.833 159.6 527.98C159.427 528.127 159.34 528.31 159.34 528.53C159.34 528.757 159.424 528.937 159.59 529.07C159.764 529.197 159.997 529.26 160.29 529.26ZM165.966 530.12C165.34 530.12 164.823 529.967 164.416 529.66C164.01 529.353 163.776 528.947 163.716 528.44H164.786C164.84 528.667 164.966 528.863 165.166 529.03C165.366 529.19 165.63 529.27 165.956 529.27C166.276 529.27 166.51 529.203 166.656 529.07C166.803 528.937 166.876 528.783 166.876 528.61C166.876 528.357 166.773 528.187 166.566 528.1C166.366 528.007 166.086 527.923 165.726 527.85C165.446 527.79 165.166 527.71 164.886 527.61C164.613 527.51 164.383 527.37 164.196 527.19C164.016 527.003 163.926 526.753 163.926 526.44C163.926 526.007 164.093 525.647 164.426 525.36C164.76 525.067 165.226 524.92 165.826 524.92C166.38 524.92 166.826 525.053 167.166 525.32C167.513 525.587 167.716 525.963 167.776 526.45H166.756C166.723 526.237 166.623 526.07 166.456 525.95C166.296 525.83 166.08 525.77 165.806 525.77C165.54 525.77 165.333 525.827 165.186 525.94C165.04 526.047 164.966 526.187 164.966 526.36C164.966 526.533 165.066 526.67 165.266 526.77C165.473 526.87 165.743 526.96 166.076 527.04C166.41 527.113 166.716 527.2 166.996 527.3C167.283 527.393 167.513 527.533 167.686 527.72C167.86 527.907 167.946 528.18 167.946 528.54C167.953 528.993 167.776 529.37 167.416 529.67C167.063 529.97 166.58 530.12 165.966 530.12ZM171.424 530.12C170.937 530.12 170.504 530.013 170.124 529.8C169.75 529.58 169.457 529.277 169.244 528.89C169.03 528.503 168.924 528.053 168.924 527.54C168.924 527.02 169.027 526.563 169.234 526.17C169.447 525.777 169.74 525.47 170.114 525.25C170.494 525.03 170.934 524.92 171.434 524.92C171.92 524.92 172.344 525.03 172.704 525.25C173.064 525.463 173.344 525.75 173.544 526.11C173.744 526.47 173.844 526.867 173.844 527.3C173.844 527.367 173.84 527.44 173.834 527.52C173.834 527.593 173.83 527.677 173.824 527.77H169.964C169.997 528.25 170.154 528.617 170.434 528.87C170.72 529.117 171.05 529.24 171.424 529.24C171.724 529.24 171.974 529.173 172.174 529.04C172.38 528.9 172.534 528.713 172.634 528.48H173.694C173.56 528.947 173.294 529.337 172.894 529.65C172.5 529.963 172.01 530.12 171.424 530.12ZM171.424 525.79C171.07 525.79 170.757 525.897 170.484 526.11C170.21 526.317 170.044 526.63 169.984 527.05H172.784C172.764 526.663 172.627 526.357 172.374 526.13C172.12 525.903 171.804 525.79 171.424 525.79ZM178.043 532.2L179.233 529.59H178.943L176.983 525.04H178.133L179.653 528.71L181.243 525.04H182.363L179.163 532.2H178.043ZM185.105 530.12C184.632 530.12 184.205 530.013 183.825 529.8C183.452 529.58 183.155 529.277 182.935 528.89C182.715 528.497 182.605 528.04 182.605 527.52C182.605 527 182.715 526.547 182.935 526.16C183.162 525.767 183.465 525.463 183.845 525.25C184.225 525.03 184.649 524.92 185.115 524.92C185.589 524.92 186.012 525.03 186.385 525.25C186.765 525.463 187.065 525.767 187.285 526.16C187.512 526.547 187.625 527 187.625 527.52C187.625 528.04 187.512 528.497 187.285 528.89C187.065 529.277 186.765 529.58 186.385 529.8C186.005 530.013 185.579 530.12 185.105 530.12ZM185.105 529.21C185.359 529.21 185.592 529.147 185.805 529.02C186.025 528.893 186.202 528.707 186.335 528.46C186.469 528.207 186.535 527.893 186.535 527.52C186.535 527.147 186.469 526.837 186.335 526.59C186.209 526.337 186.035 526.147 185.815 526.02C185.602 525.893 185.369 525.83 185.115 525.83C184.862 525.83 184.625 525.893 184.405 526.02C184.192 526.147 184.019 526.337 183.885 526.59C183.752 526.837 183.685 527.147 183.685 527.52C183.685 527.893 183.752 528.207 183.885 528.46C184.019 528.707 184.192 528.893 184.405 529.02C184.619 529.147 184.852 529.21 185.105 529.21ZM190.602 530.12C190.002 530.12 189.528 529.933 189.182 529.56C188.842 529.187 188.672 528.63 188.672 527.89V525.04H189.732V527.78C189.732 528.74 190.125 529.22 190.912 529.22C191.305 529.22 191.628 529.08 191.882 528.8C192.135 528.52 192.262 528.12 192.262 527.6V525.04H193.322V530H192.382L192.302 529.13C192.148 529.437 191.922 529.68 191.622 529.86C191.328 530.033 190.988 530.12 190.602 530.12ZM194.67 530V525.04H195.62L195.71 525.98C195.883 525.653 196.123 525.397 196.43 525.21C196.743 525.017 197.12 524.92 197.56 524.92V526.03H197.27C196.977 526.03 196.713 526.08 196.48 526.18C196.253 526.273 196.07 526.437 195.93 526.67C195.797 526.897 195.73 527.213 195.73 527.62V530H194.67ZM200.988 530V525.04H201.938L202.028 525.98C202.202 525.653 202.442 525.397 202.748 525.21C203.062 525.017 203.438 524.92 203.878 524.92V526.03H203.588C203.295 526.03 203.032 526.08 202.798 526.18C202.572 526.273 202.388 526.437 202.248 526.67C202.115 526.897 202.048 527.213 202.048 527.62V530H200.988ZM206.97 530.12C206.484 530.12 206.05 530.013 205.67 529.8C205.297 529.58 205.004 529.277 204.79 528.89C204.577 528.503 204.47 528.053 204.47 527.54C204.47 527.02 204.574 526.563 204.78 526.17C204.994 525.777 205.287 525.47 205.66 525.25C206.04 525.03 206.48 524.92 206.98 524.92C207.467 524.92 207.89 525.03 208.25 525.25C208.61 525.463 208.89 525.75 209.09 526.11C209.29 526.47 209.39 526.867 209.39 527.3C209.39 527.367 209.387 527.44 209.38 527.52C209.38 527.593 209.377 527.677 209.37 527.77H205.51C205.544 528.25 205.7 528.617 205.98 528.87C206.267 529.117 206.597 529.24 206.97 529.24C207.27 529.24 207.52 529.173 207.72 529.04C207.927 528.9 208.08 528.713 208.18 528.48H209.24C209.107 528.947 208.84 529.337 208.44 529.65C208.047 529.963 207.557 530.12 206.97 530.12ZM206.97 525.79C206.617 525.79 206.304 525.897 206.03 526.11C205.757 526.317 205.59 526.63 205.53 527.05H208.33C208.31 526.663 208.174 526.357 207.92 526.13C207.667 525.903 207.35 525.79 206.97 525.79ZM211.685 530L209.825 525.04H210.935L212.315 528.99L213.695 525.04H214.795L212.945 530H211.685ZM217.732 530.12C217.246 530.12 216.812 530.013 216.432 529.8C216.059 529.58 215.766 529.277 215.552 528.89C215.339 528.503 215.232 528.053 215.232 527.54C215.232 527.02 215.336 526.563 215.542 526.17C215.756 525.777 216.049 525.47 216.422 525.25C216.802 525.03 217.242 524.92 217.742 524.92C218.229 524.92 218.652 525.03 219.012 525.25C219.372 525.463 219.652 525.75 219.852 526.11C220.052 526.47 220.152 526.867 220.152 527.3C220.152 527.367 220.149 527.44 220.142 527.52C220.142 527.593 220.139 527.677 220.132 527.77H216.272C216.306 528.25 216.462 528.617 216.742 528.87C217.029 529.117 217.359 529.24 217.732 529.24C218.032 529.24 218.282 529.173 218.482 529.04C218.689 528.9 218.842 528.713 218.942 528.48H220.002C219.869 528.947 219.602 529.337 219.202 529.65C218.809 529.963 218.319 530.12 217.732 530.12ZM217.732 525.79C217.379 525.79 217.066 525.897 216.792 526.11C216.519 526.317 216.352 526.63 216.292 527.05H219.092C219.072 526.663 218.936 526.357 218.682 526.13C218.429 525.903 218.112 525.79 217.732 525.79ZM221.252 530V525.04H222.192L222.272 525.91C222.425 525.603 222.649 525.363 222.942 525.19C223.242 525.01 223.585 524.92 223.972 524.92C224.572 524.92 225.042 525.107 225.382 525.48C225.729 525.853 225.902 526.41 225.902 527.15V530H224.852V527.26C224.852 526.3 224.459 525.82 223.672 525.82C223.279 525.82 222.952 525.96 222.692 526.24C222.439 526.52 222.312 526.92 222.312 527.44V530H221.252ZM228.98 530.12C228.38 530.12 227.907 529.933 227.56 529.56C227.22 529.187 227.05 528.63 227.05 527.89V525.04H228.11V527.78C228.11 528.74 228.504 529.22 229.29 529.22C229.684 529.22 230.007 529.08 230.26 528.8C230.514 528.52 230.64 528.12 230.64 527.6V525.04H231.7V530H230.76L230.68 529.13C230.527 529.437 230.3 529.68 230 529.86C229.707 530.033 229.367 530.12 228.98 530.12ZM235.369 530.12C234.882 530.12 234.449 530.013 234.069 529.8C233.696 529.58 233.402 529.277 233.189 528.89C232.976 528.503 232.869 528.053 232.869 527.54C232.869 527.02 232.972 526.563 233.179 526.17C233.392 525.777 233.686 525.47 234.059 525.25C234.439 525.03 234.879 524.92 235.379 524.92C235.866 524.92 236.289 525.03 236.649 525.25C237.009 525.463 237.289 525.75 237.489 526.11C237.689 526.47 237.789 526.867 237.789 527.3C237.789 527.367 237.786 527.44 237.779 527.52C237.779 527.593 237.776 527.677 237.769 527.77H233.909C233.942 528.25 234.099 528.617 234.379 528.87C234.666 529.117 234.996 529.24 235.369 529.24C235.669 529.24 235.919 529.173 236.119 529.04C236.326 528.9 236.479 528.713 236.579 528.48H237.639C237.506 528.947 237.239 529.337 236.839 529.65C236.446 529.963 235.956 530.12 235.369 530.12ZM235.369 525.79C235.016 525.79 234.702 525.897 234.429 526.11C234.156 526.317 233.989 526.63 233.929 527.05H236.729C236.709 526.663 236.572 526.357 236.319 526.13C236.066 525.903 235.749 525.79 235.369 525.79Z" fill="#005AEE"/>
<path d="M360.988 530.417V524.617L359.858 524.877V524.097L361.408 523.417H362.088V530.417H360.988ZM362.88 531.597L363.46 529.237H364.51L363.59 531.597H362.88ZM367.791 530.537C367.337 530.537 366.924 530.457 366.551 530.297C366.184 530.131 365.891 529.881 365.671 529.547C365.451 529.214 365.334 528.797 365.321 528.297H366.371C366.384 528.671 366.511 528.987 366.751 529.247C366.997 529.501 367.344 529.627 367.791 529.627C368.217 529.627 368.544 529.511 368.771 529.277C368.997 529.037 369.111 528.741 369.111 528.387C369.111 527.961 368.957 527.644 368.651 527.437C368.351 527.231 367.981 527.127 367.541 527.127H367.021V526.247H367.551C367.944 526.247 368.261 526.154 368.501 525.967C368.747 525.781 368.871 525.517 368.871 525.177C368.871 524.891 368.774 524.657 368.581 524.477C368.394 524.297 368.127 524.207 367.781 524.207C367.421 524.207 367.137 524.314 366.931 524.527C366.724 524.734 366.611 524.994 366.591 525.307H365.541C365.554 524.901 365.654 524.547 365.841 524.247C366.034 523.947 366.297 523.714 366.631 523.547C366.964 523.381 367.347 523.297 367.781 523.297C368.247 523.297 368.637 523.381 368.951 523.547C369.271 523.707 369.511 523.927 369.671 524.207C369.837 524.481 369.921 524.781 369.921 525.107C369.921 525.481 369.817 525.807 369.611 526.087C369.404 526.367 369.127 526.554 368.781 526.647C369.181 526.734 369.511 526.931 369.771 527.237C370.031 527.537 370.161 527.927 370.161 528.407C370.161 528.794 370.071 529.151 369.891 529.477C369.711 529.797 369.444 530.054 369.091 530.247C368.737 530.441 368.304 530.537 367.791 530.537ZM373.909 530.537C373.415 530.537 372.989 530.451 372.629 530.277C372.269 530.097 371.982 529.854 371.769 529.547C371.562 529.234 371.435 528.881 371.389 528.487H372.429C372.495 528.821 372.662 529.097 372.929 529.317C373.195 529.531 373.525 529.637 373.919 529.637C374.212 529.637 374.465 529.567 374.679 529.427C374.892 529.281 375.059 529.087 375.179 528.847C375.299 528.607 375.359 528.337 375.359 528.037C375.359 527.564 375.225 527.187 374.959 526.907C374.692 526.621 374.355 526.477 373.949 526.477C373.602 526.477 373.305 526.561 373.059 526.727C372.812 526.887 372.632 527.091 372.519 527.337H371.509L372.109 523.417H375.889V524.347H372.909L372.549 526.217C372.702 526.044 372.912 525.901 373.179 525.787C373.452 525.667 373.759 525.607 374.099 525.607C374.572 525.607 374.979 525.717 375.319 525.937C375.659 526.151 375.919 526.441 376.099 526.807C376.285 527.174 376.379 527.581 376.379 528.027C376.379 528.494 376.279 528.917 376.079 529.297C375.879 529.677 375.592 529.981 375.219 530.207C374.852 530.427 374.415 530.537 373.909 530.537ZM380.071 530.537C379.578 530.537 379.151 530.451 378.791 530.277C378.431 530.097 378.144 529.854 377.931 529.547C377.724 529.234 377.598 528.881 377.551 528.487H378.591C378.658 528.821 378.824 529.097 379.091 529.317C379.358 529.531 379.688 529.637 380.081 529.637C380.374 529.637 380.628 529.567 380.841 529.427C381.054 529.281 381.221 529.087 381.341 528.847C381.461 528.607 381.521 528.337 381.521 528.037C381.521 527.564 381.388 527.187 381.121 526.907C380.854 526.621 380.518 526.477 380.111 526.477C379.764 526.477 379.468 526.561 379.221 526.727C378.974 526.887 378.794 527.091 378.681 527.337H377.671L378.271 523.417H382.051V524.347H379.071L378.711 526.217C378.864 526.044 379.074 525.901 379.341 525.787C379.614 525.667 379.921 525.607 380.261 525.607C380.734 525.607 381.141 525.717 381.481 525.937C381.821 526.151 382.081 526.441 382.261 526.807C382.448 527.174 382.541 527.581 382.541 528.027C382.541 528.494 382.441 528.917 382.241 529.297C382.041 529.677 381.754 529.981 381.381 530.207C381.014 530.427 380.578 530.537 380.071 530.537ZM383.163 531.597L383.743 529.237H384.793L383.873 531.597H383.163ZM388.184 530.537C387.724 530.537 387.331 530.447 387.004 530.267C386.677 530.087 386.421 529.847 386.234 529.547C386.054 529.247 385.944 528.921 385.904 528.567H386.894C386.954 528.914 387.097 529.181 387.324 529.367C387.551 529.554 387.841 529.647 388.194 529.647C388.681 529.647 389.081 529.421 389.394 528.967C389.714 528.507 389.884 527.804 389.904 526.857C389.744 527.151 389.494 527.401 389.154 527.607C388.821 527.814 388.434 527.917 387.994 527.917C387.601 527.917 387.231 527.824 386.884 527.637C386.537 527.451 386.257 527.191 386.044 526.857C385.831 526.517 385.724 526.117 385.724 525.657C385.724 525.251 385.824 524.867 386.024 524.507C386.224 524.147 386.504 523.857 386.864 523.637C387.231 523.411 387.664 523.297 388.164 523.297C388.677 523.297 389.111 523.394 389.464 523.587C389.817 523.781 390.101 524.037 390.314 524.357C390.527 524.677 390.681 525.037 390.774 525.437C390.874 525.837 390.924 526.247 390.924 526.667C390.924 527.441 390.814 528.117 390.594 528.697C390.381 529.277 390.071 529.731 389.664 530.057C389.257 530.377 388.764 530.537 388.184 530.537ZM388.234 527.007C388.514 527.007 388.764 526.944 388.984 526.817C389.204 526.691 389.377 526.524 389.504 526.317C389.637 526.104 389.704 525.871 389.704 525.617C389.704 525.344 389.637 525.104 389.504 524.897C389.377 524.684 389.201 524.517 388.974 524.397C388.754 524.277 388.504 524.217 388.224 524.217C387.944 524.217 387.694 524.277 387.474 524.397C387.254 524.517 387.077 524.684 386.944 524.897C386.817 525.104 386.754 525.341 386.754 525.607C386.754 526.034 386.894 526.374 387.174 526.627C387.454 526.881 387.807 527.007 388.234 527.007ZM394.952 530.537C394.319 530.537 393.772 530.387 393.312 530.087C392.859 529.781 392.509 529.357 392.262 528.817C392.022 528.271 391.902 527.637 391.902 526.917C391.902 526.197 392.022 525.567 392.262 525.027C392.509 524.481 392.859 524.057 393.312 523.757C393.772 523.451 394.319 523.297 394.952 523.297C395.586 523.297 396.129 523.451 396.582 523.757C397.036 524.057 397.382 524.481 397.622 525.027C397.869 525.567 397.992 526.197 397.992 526.917C397.992 527.637 397.869 528.271 397.622 528.817C397.382 529.357 397.036 529.781 396.582 530.087C396.129 530.387 395.586 530.537 394.952 530.537ZM394.952 529.587C395.332 529.587 395.669 529.481 395.962 529.267C396.262 529.054 396.496 528.747 396.662 528.347C396.829 527.947 396.912 527.471 396.912 526.917C396.912 526.364 396.829 525.887 396.662 525.487C396.496 525.087 396.262 524.781 395.962 524.567C395.669 524.354 395.332 524.247 394.952 524.247C394.566 524.247 394.226 524.354 393.932 524.567C393.639 524.781 393.409 525.087 393.242 525.487C393.076 525.887 392.992 526.364 392.992 526.917C392.992 527.471 393.076 527.947 393.242 528.347C393.409 528.747 393.639 529.054 393.932 529.267C394.226 529.481 394.566 529.587 394.952 529.587ZM401.974 530.537C401.341 530.537 400.794 530.387 400.334 530.087C399.881 529.781 399.531 529.357 399.284 528.817C399.044 528.271 398.924 527.637 398.924 526.917C398.924 526.197 399.044 525.567 399.284 525.027C399.531 524.481 399.881 524.057 400.334 523.757C400.794 523.451 401.341 523.297 401.974 523.297C402.607 523.297 403.151 523.451 403.604 523.757C404.057 524.057 404.404 524.481 404.644 525.027C404.891 525.567 405.014 526.197 405.014 526.917C405.014 527.637 404.891 528.271 404.644 528.817C404.404 529.357 404.057 529.781 403.604 530.087C403.151 530.387 402.607 530.537 401.974 530.537ZM401.974 529.587C402.354 529.587 402.691 529.481 402.984 529.267C403.284 529.054 403.517 528.747 403.684 528.347C403.851 527.947 403.934 527.471 403.934 526.917C403.934 526.364 403.851 525.887 403.684 525.487C403.517 525.087 403.284 524.781 402.984 524.567C402.691 524.354 402.354 524.247 401.974 524.247C401.587 524.247 401.247 524.354 400.954 524.567C400.661 524.781 400.431 525.087 400.264 525.487C400.097 525.887 400.014 526.364 400.014 526.917C400.014 527.471 400.097 527.947 400.264 528.347C400.431 528.747 400.661 529.054 400.954 529.267C401.247 529.481 401.587 529.587 401.974 529.587ZM413.304 530.417L410.714 523.417H411.844L413.944 529.317L416.054 523.417H417.174L414.584 530.417H413.304ZM418.63 524.517C418.43 524.517 418.264 524.457 418.13 524.337C418.004 524.211 417.94 524.054 417.94 523.867C417.94 523.681 418.004 523.527 418.13 523.407C418.264 523.281 418.43 523.217 418.63 523.217C418.83 523.217 418.994 523.281 419.12 523.407C419.254 523.527 419.32 523.681 419.32 523.867C419.32 524.054 419.254 524.211 419.12 524.337C418.994 524.457 418.83 524.517 418.63 524.517ZM418.1 530.417V525.457H419.16V530.417H418.1ZM422.88 530.537C422.393 530.537 421.96 530.431 421.58 530.217C421.206 529.997 420.913 529.694 420.7 529.307C420.486 528.921 420.38 528.471 420.38 527.957C420.38 527.437 420.483 526.981 420.69 526.587C420.903 526.194 421.196 525.887 421.57 525.667C421.95 525.447 422.39 525.337 422.89 525.337C423.376 525.337 423.8 525.447 424.16 525.667C424.52 525.881 424.8 526.167 425 526.527C425.2 526.887 425.3 527.284 425.3 527.717C425.3 527.784 425.296 527.857 425.29 527.937C425.29 528.011 425.286 528.094 425.28 528.187H421.42C421.453 528.667 421.61 529.034 421.89 529.287C422.176 529.534 422.506 529.657 422.88 529.657C423.18 529.657 423.43 529.591 423.63 529.457C423.836 529.317 423.99 529.131 424.09 528.897H425.15C425.016 529.364 424.75 529.754 424.35 530.067C423.956 530.381 423.466 530.537 422.88 530.537ZM422.88 526.207C422.526 526.207 422.213 526.314 421.94 526.527C421.666 526.734 421.5 527.047 421.44 527.467H424.24C424.22 527.081 424.083 526.774 423.83 526.547C423.576 526.321 423.26 526.207 422.88 526.207ZM427.194 530.417L425.734 525.457H426.794L427.754 529.197L428.834 525.457H430.014L431.094 529.197L432.054 525.457H433.114L431.654 530.417H430.564L429.424 526.517L428.284 530.417H427.194ZM435.967 530.537C435.341 530.537 434.824 530.384 434.417 530.077C434.011 529.771 433.777 529.364 433.717 528.857H434.787C434.841 529.084 434.967 529.281 435.167 529.447C435.367 529.607 435.631 529.687 435.957 529.687C436.277 529.687 436.511 529.621 436.657 529.487C436.804 529.354 436.877 529.201 436.877 529.027C436.877 528.774 436.774 528.604 436.567 528.517C436.367 528.424 436.087 528.341 435.727 528.267C435.447 528.207 435.167 528.127 434.887 528.027C434.614 527.927 434.384 527.787 434.197 527.607C434.017 527.421 433.927 527.171 433.927 526.857C433.927 526.424 434.094 526.064 434.427 525.777C434.761 525.484 435.227 525.337 435.827 525.337C436.381 525.337 436.827 525.471 437.167 525.737C437.514 526.004 437.717 526.381 437.777 526.867H436.757C436.724 526.654 436.624 526.487 436.457 526.367C436.297 526.247 436.081 526.187 435.807 526.187C435.541 526.187 435.334 526.244 435.187 526.357C435.041 526.464 434.967 526.604 434.967 526.777C434.967 526.951 435.067 527.087 435.267 527.187C435.474 527.287 435.744 527.377 436.077 527.457C436.411 527.531 436.717 527.617 436.997 527.717C437.284 527.811 437.514 527.951 437.687 528.137C437.861 528.324 437.947 528.597 437.947 528.957C437.954 529.411 437.777 529.787 437.417 530.087C437.064 530.387 436.581 530.537 435.967 530.537Z" fill="#005AEE"/>
<path d="M121.769 478.326C121.769 478.12 121.851 477.922 121.997 477.776C122.143 477.63 122.341 477.548 122.547 477.548H125.14C125.346 477.548 125.544 477.63 125.69 477.776C125.836 477.922 125.918 478.12 125.918 478.326V480.919C125.918 481.125 125.836 481.323 125.69 481.469C125.544 481.615 125.346 481.697 125.14 481.697C124.933 481.697 124.736 481.615 124.59 481.469C124.444 481.323 124.362 481.125 124.362 480.919V480.203L119.726 484.839C119.58 484.985 119.382 485.067 119.176 485.067C118.97 485.067 118.772 484.985 118.626 484.839L116.065 482.278L111.688 486.654C111.617 486.731 111.531 486.792 111.435 486.835C111.34 486.877 111.237 486.9 111.132 486.902C111.028 486.904 110.924 486.885 110.827 486.845C110.731 486.806 110.643 486.748 110.569 486.674C110.495 486.6 110.437 486.512 110.397 486.416C110.358 486.319 110.339 486.215 110.341 486.11C110.343 486.006 110.366 485.903 110.408 485.808C110.451 485.712 110.512 485.626 110.588 485.555L115.515 480.629C115.661 480.483 115.858 480.401 116.065 480.401C116.271 480.401 116.468 480.483 116.614 480.629L119.176 483.19L123.263 479.104H122.547C122.341 479.104 122.143 479.022 121.997 478.876C121.851 478.73 121.769 478.532 121.769 478.326ZM111.138 489.994C111.344 489.994 111.542 490.076 111.688 490.222C111.834 490.368 111.916 490.566 111.916 490.772V493.365C111.916 493.571 111.834 493.769 111.688 493.915C111.542 494.061 111.344 494.143 111.138 494.143C110.932 494.143 110.734 494.061 110.588 493.915C110.442 493.769 110.36 493.571 110.36 493.365V490.772C110.36 490.566 110.442 490.368 110.588 490.222C110.734 490.076 110.932 489.994 111.138 489.994ZM116.065 487.661C116.065 487.454 115.983 487.256 115.837 487.11C115.691 486.965 115.493 486.883 115.287 486.883C115.08 486.883 114.883 486.965 114.737 487.11C114.591 487.256 114.509 487.454 114.509 487.661V493.365C114.509 493.571 114.591 493.769 114.737 493.915C114.883 494.061 115.08 494.143 115.287 494.143C115.493 494.143 115.691 494.061 115.837 493.915C115.983 493.769 116.065 493.571 116.065 493.365V487.661ZM119.435 488.957C119.642 488.957 119.84 489.039 119.985 489.185C120.131 489.331 120.213 489.529 120.213 489.735V493.365C120.213 493.571 120.131 493.769 119.985 493.915C119.84 494.061 119.642 494.143 119.435 494.143C119.229 494.143 119.031 494.061 118.885 493.915C118.739 493.769 118.658 493.571 118.658 493.365V489.735C118.658 489.529 118.739 489.331 118.885 489.185C119.031 489.039 119.229 488.957 119.435 488.957ZM124.362 485.586C124.362 485.38 124.28 485.182 124.134 485.036C123.988 484.89 123.79 484.808 123.584 484.808C123.378 484.808 123.18 484.89 123.034 485.036C122.888 485.182 122.806 485.38 122.806 485.586V493.365C122.806 493.571 122.888 493.769 123.034 493.915C123.18 494.061 123.378 494.143 123.584 494.143C123.79 494.143 123.988 494.061 124.134 493.915C124.28 493.769 124.362 493.571 124.362 493.365V485.586Z" fill="#005AEE"/>
<path d="M345.335 478.326C345.335 478.12 345.417 477.922 345.563 477.776C345.709 477.63 345.906 477.548 346.113 477.548H348.706C348.912 477.548 349.11 477.63 349.256 477.776C349.402 477.922 349.484 478.12 349.484 478.326V480.919C349.484 481.125 349.402 481.323 349.256 481.469C349.11 481.615 348.912 481.697 348.706 481.697C348.499 481.697 348.302 481.615 348.156 481.469C348.01 481.323 347.928 481.125 347.928 480.919V480.203L343.292 484.839C343.146 484.985 342.948 485.067 342.742 485.067C342.536 485.067 342.338 484.985 342.192 484.839L339.631 482.278L335.254 486.654C335.182 486.731 335.097 486.792 335.001 486.835C334.906 486.877 334.803 486.9 334.698 486.902C334.594 486.904 334.49 486.885 334.393 486.845C334.296 486.806 334.208 486.748 334.135 486.674C334.061 486.6 334.002 486.512 333.963 486.416C333.924 486.319 333.905 486.215 333.907 486.11C333.909 486.006 333.932 485.903 333.974 485.808C334.017 485.712 334.078 485.626 334.154 485.555L339.081 480.629C339.227 480.483 339.424 480.401 339.631 480.401C339.837 480.401 340.034 480.483 340.18 480.629L342.742 483.19L346.828 479.104H346.113C345.906 479.104 345.709 479.022 345.563 478.876C345.417 478.73 345.335 478.532 345.335 478.326ZM334.704 489.994C334.91 489.994 335.108 490.076 335.254 490.222C335.4 490.368 335.482 490.566 335.482 490.772V493.365C335.482 493.571 335.4 493.769 335.254 493.915C335.108 494.061 334.91 494.143 334.704 494.143C334.498 494.143 334.3 494.061 334.154 493.915C334.008 493.769 333.926 493.571 333.926 493.365V490.772C333.926 490.566 334.008 490.368 334.154 490.222C334.3 490.076 334.498 489.994 334.704 489.994ZM339.631 487.661C339.631 487.454 339.549 487.256 339.403 487.11C339.257 486.965 339.059 486.883 338.853 486.883C338.646 486.883 338.448 486.965 338.303 487.11C338.157 487.256 338.075 487.454 338.075 487.661V493.365C338.075 493.571 338.157 493.769 338.303 493.915C338.448 494.061 338.646 494.143 338.853 494.143C339.059 494.143 339.257 494.061 339.403 493.915C339.549 493.769 339.631 493.571 339.631 493.365V487.661ZM343.001 488.957C343.208 488.957 343.405 489.039 343.551 489.185C343.697 489.331 343.779 489.529 343.779 489.735V493.365C343.779 493.571 343.697 493.769 343.551 493.915C343.405 494.061 343.208 494.143 343.001 494.143C342.795 494.143 342.597 494.061 342.451 493.915C342.305 493.769 342.223 493.571 342.223 493.365V489.735C342.223 489.529 342.305 489.331 342.451 489.185C342.597 489.039 342.795 488.957 343.001 488.957ZM347.928 485.586C347.928 485.38 347.846 485.182 347.7 485.036C347.554 484.89 347.356 484.808 347.15 484.808C346.944 484.808 346.746 484.89 346.6 485.036C346.454 485.182 346.372 485.38 346.372 485.586V493.365C346.372 493.571 346.454 493.769 346.6 493.915C346.746 494.061 346.944 494.143 347.15 494.143C347.356 494.143 347.554 494.061 347.7 493.915C347.846 493.769 347.928 493.571 347.928 493.365V485.586Z" fill="#005AEE"/>
<path d="M107.537 532.287C107.399 532.287 107.267 532.233 107.17 532.135C107.073 532.038 107.018 531.906 107.018 531.769C107.018 531.631 107.073 531.499 107.17 531.402C107.267 531.305 107.399 531.25 107.537 531.25H123.094C123.232 531.25 123.363 531.305 123.461 531.402C123.558 531.499 123.613 531.631 123.613 531.769C123.613 531.906 123.558 532.038 123.461 532.135C123.363 532.233 123.232 532.287 123.094 532.287H107.537ZM109.092 528.139C109.092 528.689 109.311 529.216 109.7 529.605C110.089 529.994 110.617 530.213 111.167 530.213H112.204C112.754 530.213 113.282 529.994 113.671 529.605C114.06 529.216 114.278 528.689 114.278 528.139V519.841C114.278 519.291 114.06 518.764 113.671 518.375C113.282 517.986 112.754 517.767 112.204 517.767H111.167C110.617 517.767 110.089 517.986 109.7 518.375C109.311 518.764 109.092 519.291 109.092 519.841V528.139ZM116.353 528.139C116.353 528.689 116.571 529.216 116.96 529.605C117.349 529.994 117.877 530.213 118.427 530.213H119.464C120.014 530.213 120.542 529.994 120.931 529.605C121.32 529.216 121.538 528.689 121.538 528.139V522.953C121.538 522.403 121.32 521.875 120.931 521.486C120.542 521.097 120.014 520.878 119.464 520.878H118.427C117.877 520.878 117.349 521.097 116.96 521.486C116.571 521.875 116.353 522.403 116.353 522.953V528.139Z" fill="#005AEE"/>
<path d="M334.196 526.689C334.903 523.292 337.86 520.878 341.186 520.878C344.511 520.878 347.468 523.292 348.177 526.689C348.205 526.823 348.285 526.942 348.4 527.017C348.516 527.092 348.656 527.119 348.791 527.091C348.925 527.063 349.044 526.983 349.119 526.867C349.195 526.752 349.221 526.612 349.193 526.477C348.387 522.614 345.016 519.841 341.186 519.841C337.356 519.841 333.985 522.614 333.179 526.477C333.151 526.612 333.178 526.752 333.253 526.867C333.329 526.983 333.447 527.063 333.582 527.091C333.717 527.119 333.857 527.092 333.972 527.017C334.087 526.942 334.168 526.823 334.196 526.689Z" fill="#005AEE"/>
<path d="M341.176 522.953C342.139 522.953 343.062 523.335 343.743 524.016C344.424 524.697 344.806 525.62 344.806 526.583C344.806 527.546 344.424 528.469 343.743 529.15C343.062 529.83 342.139 530.213 341.176 530.213C340.213 530.213 339.29 529.83 338.609 529.15C337.928 528.469 337.546 527.546 337.546 526.583C337.546 525.62 337.928 524.697 338.609 524.016C339.29 523.335 340.213 522.953 341.176 522.953Z" fill="#005AEE"/>
<path d="M219.551 325.022L144.5 345.109H527L532 147L485 131L430.601 204.957L381.742 168.435L365.624 232.348L331.372 249.696L277.476 262.935L266.899 312.696L240.203 308.13L219.551 325.022Z" fill="url(#paint0_linear_301_1128)"/>
<path d="M144.5 345.109L219.551 325.022L240.203 308.13L266.899 312.696L277.476 262.935L331.372 249.696L365.624 232.348L381.742 168.435L430.601 204.957L485 131L532 147" stroke="#005AEE" stroke-width="2"/>
<defs>
<filter id="filter0_d_301_1128" x="37" y="45" width="638" height="598.818" filterUnits="userSpaceOnUse" color-interpolation-filters="sRGB">
<feFlood flood-opacity="0" result="BackgroundImageFix"/>
<feColorMatrix in="SourceAlpha" type="matrix" values="0 0 0 0 0 0 0 0 0 0 0 0 0 0 0 0 0 0 127 0" result="hardAlpha"/>
<feOffset dx="20" dy="32"/>
<feGaussianBlur stdDeviation="21.5"/>
<feColorMatrix type="matrix" values="0 0 0 0 0.154687 0 0 0 0 0.163285 0 0 0 0 0.1875 0 0 0 0.02 0"/>
<feBlend mode="normal" in2="BackgroundImageFix" result="effect1_dropShadow_301_1128"/>
<feBlend mode="normal" in="SourceGraphic" in2="effect1_dropShadow_301_1128" result="shape"/>
</filter>
<filter id="filter1_d_301_1128" x="0" y="0" width="672" height="154.572" filterUnits="userSpaceOnUse" color-interpolation-filters="sRGB">
<feFlood flood-opacity="0" result="BackgroundImageFix"/>
<feColorMatrix in="SourceAlpha" type="matrix" values="0 0 0 0 0 0 0 0 0 0 0 0 0 0 0 0 0 0 127 0" result="hardAlpha"/>
<feOffset dy="4"/>
<feGaussianBlur stdDeviation="30"/>
<feColorMatrix type="matrix" values="0 0 0 0 0.603472 0 0 0 0 0.619931 0 0 0 0 0.658333 0 0 0 0.06 0"/>
<feBlend mode="normal" in2="BackgroundImageFix" result="effect1_dropShadow_301_1128"/>
<feBlend mode="normal" in="SourceGraphic" in2="effect1_dropShadow_301_1128" result="shape"/>
</filter>
<linearGradient id="paint0_linear_301_1128" x1="349" y1="68" x2="338" y2="345" gradientUnits="userSpaceOnUse">
<stop stop-color="#1D4ED8" stop-opacity="0.5"/>
<stop offset="1" stop-color="white" stop-opacity="0"/>
</linearGradient>
</defs>
</svg>
