<svg width="112" height="107" viewBox="0 0 112 107" fill="none" xmlns="http://www.w3.org/2000/svg">
<rect width="76.7921" height="79.493" rx="38.3961" transform="matrix(0.96392 -0.266193 0.247113 0.968987 11 26.4415)" fill="url(#paint0_linear_383_454)"/>
<g filter="url(#filter0_f_383_454)">
<rect width="46.3953" height="48.027" rx="23.1976" transform="matrix(0.96392 -0.266193 0.247113 0.968987 19.7811 31.7465)" fill="#1A59C2"/>
</g>
<g filter="url(#filter1_b_383_454)">
<rect x="34.4164" y="26.3061" width="76.5836" height="79.6939" rx="38.2918" fill="url(#paint1_linear_383_454)" fill-opacity="0.4"/>
<rect x="33.9164" y="25.8061" width="77.5836" height="80.6939" rx="38.7918" stroke="url(#paint2_linear_383_454)"/>
</g>
<g filter="url(#filter2_bd_383_454)">
<mask id="path-5-inside-1_383_454" fill="white">
<path fill-rule="evenodd" clip-rule="evenodd" d="M64.5553 55.6407C65.2203 56.2448 65.2203 57.2242 64.5553 57.8283L56.1107 65.5L64.5553 73.1717C65.2203 73.7758 65.2203 74.7552 64.5553 75.3593C63.8904 75.9634 62.8123 75.9634 62.1474 75.3593L52.4987 66.5938C51.8338 65.9897 51.8338 65.0103 52.4987 64.4062L62.1474 55.6407C62.8123 55.0366 63.8904 55.0366 64.5553 55.6407ZM81.4447 55.6407C82.1096 55.0366 83.1877 55.0366 83.8526 55.6407L93.5013 64.4062C94.1662 65.0103 94.1662 65.9897 93.5013 66.5938L83.8526 75.3593C83.1877 75.9634 82.1096 75.9634 81.4447 75.3593C80.7797 74.7552 80.7797 73.7758 81.4447 73.1717L89.8893 65.5L81.4447 57.8283C80.7797 57.2242 80.7797 56.2448 81.4447 55.6407Z"/>
<path fill-rule="evenodd" clip-rule="evenodd" d="M76.1271 49.0227C77.0538 49.1679 77.6756 49.968 77.5158 50.8099L71.8401 80.7157C71.6803 81.5576 70.7996 82.1224 69.8729 81.9773C68.9462 81.8321 68.3244 81.032 68.4842 80.1901L74.1599 50.2843C74.3197 49.4424 75.2004 48.8776 76.1271 49.0227Z"/>
</mask>
<path fill-rule="evenodd" clip-rule="evenodd" d="M64.5553 55.6407C65.2203 56.2448 65.2203 57.2242 64.5553 57.8283L56.1107 65.5L64.5553 73.1717C65.2203 73.7758 65.2203 74.7552 64.5553 75.3593C63.8904 75.9634 62.8123 75.9634 62.1474 75.3593L52.4987 66.5938C51.8338 65.9897 51.8338 65.0103 52.4987 64.4062L62.1474 55.6407C62.8123 55.0366 63.8904 55.0366 64.5553 55.6407ZM81.4447 55.6407C82.1096 55.0366 83.1877 55.0366 83.8526 55.6407L93.5013 64.4062C94.1662 65.0103 94.1662 65.9897 93.5013 66.5938L83.8526 75.3593C83.1877 75.9634 82.1096 75.9634 81.4447 75.3593C80.7797 74.7552 80.7797 73.7758 81.4447 73.1717L89.8893 65.5L81.4447 57.8283C80.7797 57.2242 80.7797 56.2448 81.4447 55.6407Z" fill="white" fill-opacity="0.5" shape-rendering="crispEdges"/>
<path fill-rule="evenodd" clip-rule="evenodd" d="M76.1271 49.0227C77.0538 49.1679 77.6756 49.968 77.5158 50.8099L71.8401 80.7157C71.6803 81.5576 70.7996 82.1224 69.8729 81.9773C68.9462 81.8321 68.3244 81.032 68.4842 80.1901L74.1599 50.2843C74.3197 49.4424 75.2004 48.8776 76.1271 49.0227Z" fill="white" fill-opacity="0.5" shape-rendering="crispEdges"/>
<path d="M64.5553 57.8283L64.8243 58.1244L64.8243 58.1244L64.5553 57.8283ZM64.5553 55.6407L64.8243 55.3447L64.8243 55.3447L64.5553 55.6407ZM56.1107 65.5L55.8417 65.2039C55.7583 65.2797 55.7107 65.3873 55.7107 65.5C55.7107 65.6127 55.7583 65.7203 55.8417 65.7961L56.1107 65.5ZM64.5553 73.1717L64.8243 72.8756L64.8243 72.8756L64.5553 73.1717ZM64.5553 75.3593L64.2864 75.0632L64.2864 75.0632L64.5553 75.3593ZM62.1474 75.3593L62.4163 75.0632L62.4163 75.0632L62.1474 75.3593ZM52.4987 66.5938L52.2297 66.8899L52.2297 66.8899L52.4987 66.5938ZM52.4987 64.4062L52.2297 64.1101L52.2297 64.1101L52.4987 64.4062ZM62.1474 55.6407L61.8784 55.3447L61.8784 55.3447L62.1474 55.6407ZM83.8526 55.6407L83.5837 55.9368L83.5837 55.9368L83.8526 55.6407ZM81.4447 55.6407L81.7136 55.9368L81.7136 55.9368L81.4447 55.6407ZM93.5013 64.4062L93.7703 64.1101L93.7703 64.1101L93.5013 64.4062ZM93.5013 66.5938L93.7703 66.8899L93.7703 66.8899L93.5013 66.5938ZM83.8526 75.3593L83.5837 75.0632L83.5837 75.0632L83.8526 75.3593ZM81.4447 75.3593L81.7136 75.0632L81.7136 75.0632L81.4447 75.3593ZM81.4447 73.1717L81.7136 73.4678L81.7136 73.4678L81.4447 73.1717ZM89.8893 65.5L90.1583 65.7961C90.2417 65.7203 90.2893 65.6127 90.2893 65.5C90.2893 65.3873 90.2417 65.2797 90.1583 65.2039L89.8893 65.5ZM81.4447 57.8283L81.7136 57.5322L81.7136 57.5322L81.4447 57.8283ZM77.5158 50.8099L77.1228 50.7353L77.1228 50.7353L77.5158 50.8099ZM71.8401 80.7157L72.2331 80.7903L72.2331 80.7903L71.8401 80.7157ZM69.8729 81.9773L69.9348 81.5821L69.9348 81.5821L69.8729 81.9773ZM68.4842 80.1901L68.8772 80.2647L68.8772 80.2647L68.4842 80.1901ZM74.1599 50.2843L74.5529 50.3589L74.5529 50.3589L74.1599 50.2843ZM64.8243 58.1244C65.664 57.3616 65.664 56.1075 64.8243 55.3447L64.2864 55.9368C64.7766 56.3822 64.7766 57.0869 64.2864 57.5322L64.8243 58.1244ZM56.3797 65.7961L64.8243 58.1244L64.2864 57.5322L55.8417 65.2039L56.3797 65.7961ZM64.8243 72.8756L56.3797 65.2039L55.8417 65.7961L64.2864 73.4678L64.8243 72.8756ZM64.8243 75.6553C65.664 74.8925 65.664 73.6384 64.8243 72.8756L64.2864 73.4678C64.7766 73.9131 64.7766 74.6178 64.2864 75.0632L64.8243 75.6553ZM61.8784 75.6553C62.6959 76.398 64.0068 76.398 64.8243 75.6553L64.2864 75.0632C63.774 75.5287 62.9287 75.5287 62.4163 75.0632L61.8784 75.6553ZM52.2297 66.8899L61.8784 75.6553L62.4163 75.0632L52.7677 66.2977L52.2297 66.8899ZM52.2297 64.1101C51.3901 64.8729 51.3901 66.1271 52.2297 66.8899L52.7677 66.2977C52.2774 65.8524 52.2774 65.1476 52.7677 64.7023L52.2297 64.1101ZM61.8784 55.3447L52.2297 64.1101L52.7677 64.7023L62.4163 55.9368L61.8784 55.3447ZM64.8243 55.3447C64.0068 54.602 62.6959 54.602 61.8784 55.3447L62.4163 55.9368C62.9287 55.4713 63.774 55.4713 64.2864 55.9368L64.8243 55.3447ZM84.1216 55.3447C83.3041 54.602 81.9932 54.602 81.1757 55.3447L81.7136 55.9368C82.226 55.4713 83.0713 55.4713 83.5837 55.9368L84.1216 55.3447ZM93.7703 64.1101L84.1216 55.3447L83.5837 55.9368L93.2323 64.7023L93.7703 64.1101ZM93.7703 66.8899C94.6099 66.1271 94.6099 64.8729 93.7703 64.1101L93.2323 64.7023C93.7226 65.1476 93.7226 65.8524 93.2323 66.2977L93.7703 66.8899ZM84.1216 75.6553L93.7703 66.8899L93.2323 66.2977L83.5837 75.0632L84.1216 75.6553ZM81.1757 75.6553C81.9932 76.398 83.3041 76.398 84.1216 75.6553L83.5837 75.0632C83.0713 75.5287 82.226 75.5287 81.7136 75.0632L81.1757 75.6553ZM81.1757 72.8756C80.336 73.6384 80.336 74.8925 81.1757 75.6553L81.7136 75.0632C81.2234 74.6178 81.2234 73.9131 81.7136 73.4678L81.1757 72.8756ZM89.6203 65.2039L81.1757 72.8756L81.7136 73.4678L90.1583 65.7961L89.6203 65.2039ZM81.1757 58.1244L89.6203 65.7961L90.1583 65.2039L81.7136 57.5322L81.1757 58.1244ZM81.1757 55.3447C80.336 56.1075 80.336 57.3616 81.1757 58.1244L81.7136 57.5322C81.2234 57.0869 81.2234 56.3822 81.7136 55.9368L81.1757 55.3447ZM77.9088 50.8845C78.1172 49.7863 77.3029 48.802 76.189 48.6276L76.0652 49.4179C76.8048 49.5338 77.2339 50.1498 77.1228 50.7353L77.9088 50.8845ZM72.2331 80.7903L77.9088 50.8845L77.1228 50.7353L71.4471 80.6411L72.2331 80.7903ZM69.811 82.3724C70.9182 82.5459 72.0271 81.8755 72.2331 80.7903L71.4471 80.6411C71.3335 81.2397 70.6809 81.699 69.9348 81.5821L69.811 82.3724ZM68.0912 80.1155C67.8828 81.2137 68.6971 82.198 69.811 82.3724L69.9348 81.5821C69.1952 81.4662 68.7661 80.8502 68.8772 80.2647L68.0912 80.1155ZM73.7669 50.2097L68.0912 80.1155L68.8772 80.2647L74.5529 50.3589L73.7669 50.2097ZM76.189 48.6276C75.0818 48.4541 73.9729 49.1245 73.7669 50.2097L74.5529 50.3589C74.6665 49.7603 75.3191 49.301 76.0652 49.4179L76.189 48.6276Z" fill="url(#paint3_linear_383_454)" mask="url(#path-5-inside-1_383_454)"/>
</g>
<defs>
<filter id="filter0_f_383_454" x="0.784912" y="0.732819" width="94.5818" height="96.2148" filterUnits="userSpaceOnUse" color-interpolation-filters="sRGB">
<feFlood flood-opacity="0" result="BackgroundImageFix"/>
<feBlend mode="normal" in="SourceGraphic" in2="BackgroundImageFix" result="shape"/>
<feGaussianBlur stdDeviation="12" result="effect1_foregroundBlur_383_454"/>
</filter>
<filter id="filter1_b_383_454" x="18.4164" y="10.3061" width="108.584" height="111.694" filterUnits="userSpaceOnUse" color-interpolation-filters="sRGB">
<feFlood flood-opacity="0" result="BackgroundImageFix"/>
<feGaussianBlur in="BackgroundImageFix" stdDeviation="7.5"/>
<feComposite in2="SourceAlpha" operator="in" result="effect1_backgroundBlur_383_454"/>
<feBlend mode="normal" in="SourceGraphic" in2="effect1_backgroundBlur_383_454" result="shape"/>
</filter>
<filter id="filter2_bd_383_454" x="48" y="45" width="50" height="45" filterUnits="userSpaceOnUse" color-interpolation-filters="sRGB">
<feFlood flood-opacity="0" result="BackgroundImageFix"/>
<feGaussianBlur in="BackgroundImageFix" stdDeviation="2"/>
<feComposite in2="SourceAlpha" operator="in" result="effect1_backgroundBlur_383_454"/>
<feColorMatrix in="SourceAlpha" type="matrix" values="0 0 0 0 0 0 0 0 0 0 0 0 0 0 0 0 0 0 127 0" result="hardAlpha"/>
<feOffset dy="4"/>
<feGaussianBlur stdDeviation="2"/>
<feComposite in2="hardAlpha" operator="out"/>
<feColorMatrix type="matrix" values="0 0 0 0 0 0 0 0 0 0 0 0 0 0 0 0 0 0 0.25 0"/>
<feBlend mode="normal" in2="effect1_backgroundBlur_383_454" result="effect2_dropShadow_383_454"/>
<feBlend mode="normal" in="SourceGraphic" in2="effect2_dropShadow_383_454" result="shape"/>
</filter>
<linearGradient id="paint0_linear_383_454" x1="0" y1="0" x2="79.4455" y2="76.7463" gradientUnits="userSpaceOnUse">
<stop stop-color="#005AEE"/>
<stop offset="1" stop-color="#1D70FA"/>
</linearGradient>
<linearGradient id="paint1_linear_383_454" x1="111" y1="26.3061" x2="31.4601" y2="100.577" gradientUnits="userSpaceOnUse">
<stop stop-color="#005AEE"/>
<stop offset="1" stop-color="#005AEE"/>
</linearGradient>
<linearGradient id="paint2_linear_383_454" x1="34.4164" y1="26.3061" x2="114.047" y2="102.829" gradientUnits="userSpaceOnUse">
<stop stop-color="white" stop-opacity="0.25"/>
<stop offset="1" stop-color="white" stop-opacity="0"/>
</linearGradient>
<linearGradient id="paint3_linear_383_454" x1="73" y1="49" x2="73" y2="82" gradientUnits="userSpaceOnUse">
<stop stop-color="white" stop-opacity="0.25"/>
<stop offset="1" stop-color="white" stop-opacity="0"/>
</linearGradient>
</defs>
</svg>
