<svg width="112" height="107" viewBox="0 0 112 107" fill="none" xmlns="http://www.w3.org/2000/svg">
<rect width="76.7921" height="79.493" rx="38.3961" transform="matrix(0.96392 -0.266193 0.247113 0.968987 11 26.4415)" fill="url(#paint0_linear_383_465)"/>
<g filter="url(#filter0_f_383_465)">
<rect width="46.3953" height="48.027" rx="23.1976" transform="matrix(0.96392 -0.266193 0.247113 0.968987 19.7811 31.7465)" fill="#1A59C2"/>
</g>
<g filter="url(#filter1_b_383_465)">
<rect x="34.4164" y="26.3061" width="76.5836" height="79.6939" rx="38.2918" fill="url(#paint1_linear_383_465)" fill-opacity="0.4"/>
<rect x="33.9164" y="25.8061" width="77.5836" height="80.6939" rx="38.7918" stroke="url(#paint2_linear_383_465)"/>
</g>
<g clip-path="url(#clip0_383_465)">
<path d="M65.4346 62.348C65.1266 62.04 64.6273 62.04 64.3193 62.348C64.0113 62.656 64.0113 63.1553 64.3193 63.4634L68.5255 67.6696C68.8335 67.9776 69.3329 67.9776 69.6409 67.6696C69.9489 67.3617 69.9489 66.8623 69.6409 66.5543L65.4346 62.348Z" fill="url(#paint3_linear_383_465)"/>
<path d="M47 54.4929C47 49.2659 51.2373 45.0286 56.4643 45.0286C61.6913 45.0286 65.9286 49.2659 65.9286 54.4929C65.9286 59.7198 61.6913 63.9572 56.4643 63.9572C51.2373 63.9572 47 59.7198 47 54.4929Z" fill="url(#paint4_linear_383_465)"/>
</g>
<g clip-path="url(#clip1_383_465)">
<mask id="mask0_383_465" style="mask-type:luminance" maskUnits="userSpaceOnUse" x="51" y="42" width="51" height="50">
<path d="M101.004 52.4514L61.9994 42L51.548 81.005L90.5531 91.4564L101.004 52.4514Z" fill="white"/>
</mask>
<g mask="url(#mask0_383_465)">
<path fill-rule="evenodd" clip-rule="evenodd" d="M80.5957 50.9021C83.5805 51.7019 85.9201 52.3287 87.7224 53.0272C89.5617 53.74 90.9823 54.5776 92.0376 55.8808C92.6765 56.6698 93.1872 57.5544 93.551 58.5022C94.152 60.0678 94.1671 61.7168 93.8647 63.666C93.5685 65.5761 92.9415 67.9158 92.1418 70.9005L92.1023 71.0477C91.3026 74.0325 90.6757 76.372 89.9773 78.1743C89.2644 80.0136 88.4269 81.4342 87.1236 82.4895C86.3347 83.1284 85.4501 83.6391 84.5023 84.003C82.9367 84.6039 81.2877 84.619 79.3384 84.3166C77.4284 84.0204 75.0887 83.3935 72.104 82.5937L71.9567 82.5543C68.972 81.7545 66.6324 81.1276 64.8302 80.4292C62.9909 79.7164 61.5703 78.8788 60.5149 77.5756C59.8761 76.7866 59.3653 75.902 59.0015 74.9542C58.4005 73.3886 58.3855 71.7396 58.6878 69.7904C58.9841 67.8803 59.611 65.5406 60.4108 62.5559L60.4502 62.4088C61.2499 59.424 61.8768 57.0844 62.5753 55.2821C63.2881 53.4428 64.1257 52.0222 65.4289 50.9669C66.2179 50.328 67.1025 49.8173 68.0503 49.4534C69.6158 48.8525 71.2649 48.8374 73.2141 49.1398C75.1242 49.436 77.4639 50.0629 80.4486 50.8627L80.5957 50.9021Z" fill="white" fill-opacity="0.35"/>
<path d="M80.5304 51.1459C83.5204 51.947 85.8446 52.5702 87.6313 53.2626C89.4504 53.9676 90.8252 54.7847 91.8415 56.0397C92.4637 56.8081 92.9612 57.6696 93.3155 58.5926C93.8942 60.1003 93.9144 61.6995 93.6154 63.6273C93.3217 65.5208 92.6992 67.8453 91.8981 70.8351L91.8586 70.9824C91.0575 73.9723 90.4344 76.2965 89.742 78.0831C89.037 79.9022 88.2199 81.2771 86.9649 82.2934C86.1965 82.9156 85.335 83.413 84.4119 83.7674C82.9043 84.3461 81.3051 84.3663 79.3772 84.0672C77.4837 83.7736 75.1592 83.151 72.1694 82.3499L72.0221 82.3105C69.0323 81.5093 66.708 80.8862 64.9214 80.1938C63.1023 79.4888 61.7274 78.6717 60.7112 77.4167C60.0889 76.6483 59.5915 75.7868 59.2372 74.8638C58.6585 73.3561 58.6382 71.7569 58.9373 69.8291C59.231 67.9355 59.8535 65.6111 60.6546 62.6212L60.694 62.4741C61.4952 59.4842 62.1183 57.1599 62.8107 55.3733C63.5157 53.5542 64.3328 52.1793 65.5878 51.163C66.3562 50.5408 67.2177 50.0434 68.1408 49.689C69.6484 49.1103 71.2476 49.0901 73.1755 49.3892C75.069 49.6828 77.3934 50.3053 80.3834 51.1065L80.5304 51.1459Z" stroke="url(#paint5_linear_383_465)" stroke-linecap="round"/>
<g filter="url(#filter2_d_383_465)">
<path fill-rule="evenodd" clip-rule="evenodd" d="M79.6725 58.9288C79.8529 58.2556 79.4534 57.5636 78.7802 57.3832C78.107 57.2029 77.4151 57.6023 77.2347 58.2755L72.88 74.5276C72.6996 75.2008 73.0991 75.8928 73.7723 76.0732C74.4454 76.2535 75.1374 75.854 75.3178 75.1808L79.6725 58.9288ZM84.4315 67.1715C84.6119 66.4983 84.2123 65.8063 83.5391 65.6259C82.866 65.4456 82.174 65.8451 81.9937 66.5183L79.3808 76.2695C79.2004 76.9427 79.5999 77.6346 80.2731 77.815C80.9463 77.9954 81.6382 77.5959 81.8186 76.9227L84.4315 67.1715ZM70.5588 66.9381C70.7392 66.2649 70.3397 65.573 69.6666 65.3926C68.9933 65.2122 68.3014 65.6117 68.121 66.2849L66.3791 72.7857C66.1987 73.4589 66.5983 74.1509 67.2714 74.3313C67.9446 74.5116 68.6366 74.1121 68.8169 73.439L70.5588 66.9381Z" fill="url(#paint6_linear_383_465)"/>
<mask id="mask1_383_465" style="mask-type:luminance" maskUnits="userSpaceOnUse" x="66" y="57" width="19" height="21">
<path fill-rule="evenodd" clip-rule="evenodd" d="M79.6725 58.9288C79.8529 58.2556 79.4534 57.5636 78.7802 57.3832C78.107 57.2029 77.4151 57.6023 77.2347 58.2755L72.88 74.5276C72.6996 75.2008 73.0991 75.8928 73.7723 76.0732C74.4454 76.2535 75.1374 75.854 75.3178 75.1808L79.6725 58.9288ZM84.4315 67.1715C84.6119 66.4983 84.2123 65.8063 83.5391 65.6259C82.866 65.4456 82.174 65.8451 81.9937 66.5183L79.3808 76.2695C79.2004 76.9427 79.5999 77.6346 80.2731 77.815C80.9463 77.9954 81.6382 77.5959 81.8186 76.9227L84.4315 67.1715ZM70.5588 66.9381C70.7392 66.2649 70.3397 65.573 69.6666 65.3926C68.9933 65.2122 68.3014 65.6117 68.121 66.2849L66.3791 72.7857C66.1987 73.4589 66.5983 74.1509 67.2714 74.3313C67.9446 74.5116 68.6366 74.1121 68.8169 73.439L70.5588 66.9381Z" fill="white"/>
</mask>
<g mask="url(#mask1_383_465)">
<path d="M78.0724 60.025C77.2866 59.8144 76.8202 59.0067 77.0308 58.2209L82.3143 59.6366C82.8856 57.5044 81.6203 55.3128 79.4881 54.7415L78.0724 60.025ZM79.8765 58.9834C79.6659 59.7692 78.8582 60.2355 78.0724 60.025L79.4881 54.7415C77.3559 54.1702 75.1643 55.4355 74.593 57.5677L79.8765 58.9834ZM75.5217 75.2355L79.8765 58.9834L74.593 57.5677L70.2383 73.8198L75.5217 75.2355ZM74.4801 73.4314C75.266 73.642 75.7323 74.4497 75.5217 75.2355L70.2383 73.8198C69.6669 75.952 70.9323 78.1436 73.0644 78.7149L74.4801 73.4314ZM72.6761 74.473C72.8866 73.6872 73.6943 73.2209 74.4801 73.4314L73.0644 78.7149C75.1966 79.2862 77.3882 78.0209 77.9596 75.8887L72.6761 74.473ZM77.0308 58.2209L72.6761 74.473L77.9596 75.8887L82.3143 59.6366L77.0308 58.2209ZM82.8313 68.2677C82.0455 68.0571 81.5792 67.2495 81.7898 66.4636L87.0733 67.8794C87.6445 65.7471 86.3792 63.5556 84.247 62.9842L82.8313 68.2677ZM84.6354 67.2261C84.4249 68.012 83.6171 68.4783 82.8313 68.2677L84.247 62.9842C82.1149 62.4129 79.9232 63.6782 79.3519 65.8104L84.6354 67.2261ZM82.0226 76.9774L84.6354 67.2261L79.3519 65.8104L76.7391 75.5617L82.0226 76.9774ZM80.981 75.1733C81.7668 75.3839 82.2331 76.1916 82.0226 76.9774L76.7391 75.5617C76.1678 77.6939 77.4331 79.8855 79.5653 80.4568L80.981 75.1733ZM79.1769 76.2149C79.3874 75.4291 80.1952 74.9627 80.981 75.1733L79.5653 80.4568C81.6974 81.0281 83.8891 79.7628 84.4604 77.6306L79.1769 76.2149ZM81.7898 66.4636L79.1769 76.2149L84.4604 77.6306L87.0733 67.8794L81.7898 66.4636ZM68.9587 68.0344C68.1729 67.8238 67.7065 67.0161 67.9171 66.2302L73.2006 67.646C73.7719 65.5138 72.5066 63.3222 70.3744 62.7509L68.9587 68.0344ZM70.7628 66.9927C70.5522 67.7786 69.7445 68.2449 68.9587 68.0344L70.3744 62.7509C68.2422 62.1795 66.0506 63.4449 65.4793 65.577L70.7628 66.9927ZM69.0209 73.4936L70.7628 66.9927L65.4793 65.577L63.7374 72.0779L69.0209 73.4936ZM67.9793 71.6895C68.7651 71.9001 69.2315 72.7078 69.0209 73.4936L63.7374 72.0779C63.1661 74.2101 64.4314 76.4017 66.5636 76.973L67.9793 71.6895ZM66.1752 72.7311C66.3858 71.9453 67.1935 71.479 67.9793 71.6895L66.5636 76.973C68.6958 77.5443 70.8874 76.279 71.4587 74.1468L66.1752 72.7311ZM67.9171 66.2302L66.1752 72.7311L71.4587 74.1468L73.2006 67.646L67.9171 66.2302Z" fill="url(#paint7_linear_383_465)"/>
</g>
</g>
</g>
</g>
<defs>
<filter id="filter0_f_383_465" x="0.784912" y="0.732819" width="94.5818" height="96.2148" filterUnits="userSpaceOnUse" color-interpolation-filters="sRGB">
<feFlood flood-opacity="0" result="BackgroundImageFix"/>
<feBlend mode="normal" in="SourceGraphic" in2="BackgroundImageFix" result="shape"/>
<feGaussianBlur stdDeviation="12" result="effect1_foregroundBlur_383_465"/>
</filter>
<filter id="filter1_b_383_465" x="18.4164" y="10.3061" width="108.584" height="111.694" filterUnits="userSpaceOnUse" color-interpolation-filters="sRGB">
<feFlood flood-opacity="0" result="BackgroundImageFix"/>
<feGaussianBlur in="BackgroundImageFix" stdDeviation="7.5"/>
<feComposite in2="SourceAlpha" operator="in" result="effect1_backgroundBlur_383_465"/>
<feBlend mode="normal" in="SourceGraphic" in2="effect1_backgroundBlur_383_465" result="shape"/>
</filter>
<filter id="filter2_d_383_465" x="63.3358" y="54.3399" width="34.1389" height="36.5184" filterUnits="userSpaceOnUse" color-interpolation-filters="sRGB">
<feFlood flood-opacity="0" result="BackgroundImageFix"/>
<feColorMatrix in="SourceAlpha" type="matrix" values="0 0 0 0 0 0 0 0 0 0 0 0 0 0 0 0 0 0 127 0" result="hardAlpha"/>
<feOffset dx="5" dy="5"/>
<feGaussianBlur stdDeviation="4"/>
<feColorMatrix type="matrix" values="0 0 0 0 0.176471 0 0 0 0 0.556863 0 0 0 0 0.678431 0 0 0 0.5 0"/>
<feBlend mode="normal" in2="BackgroundImageFix" result="effect1_dropShadow_383_465"/>
<feBlend mode="normal" in="SourceGraphic" in2="effect1_dropShadow_383_465" result="shape"/>
</filter>
<linearGradient id="paint0_linear_383_465" x1="0" y1="0" x2="79.4455" y2="76.7463" gradientUnits="userSpaceOnUse">
<stop stop-color="#005AEE"/>
<stop offset="1" stop-color="#1D70FA"/>
</linearGradient>
<linearGradient id="paint1_linear_383_465" x1="111" y1="26.3061" x2="31.4601" y2="100.577" gradientUnits="userSpaceOnUse">
<stop stop-color="#005AEE"/>
<stop offset="1" stop-color="#005AEE"/>
</linearGradient>
<linearGradient id="paint2_linear_383_465" x1="34.4164" y1="26.3061" x2="114.047" y2="102.829" gradientUnits="userSpaceOnUse">
<stop stop-color="white" stop-opacity="0.25"/>
<stop offset="1" stop-color="white" stop-opacity="0"/>
</linearGradient>
<linearGradient id="paint3_linear_383_465" x1="47" y1="67.9007" x2="70.3594" y2="45.5378" gradientUnits="userSpaceOnUse">
<stop stop-color="white" stop-opacity="0.4"/>
<stop offset="1" stop-color="white" stop-opacity="0"/>
</linearGradient>
<linearGradient id="paint4_linear_383_465" x1="47" y1="67.9007" x2="70.3594" y2="45.5378" gradientUnits="userSpaceOnUse">
<stop stop-color="white" stop-opacity="0.4"/>
<stop offset="1" stop-color="white" stop-opacity="0"/>
</linearGradient>
<linearGradient id="paint5_linear_383_465" x1="64.6764" y1="46.6365" x2="87.8966" y2="86.8081" gradientUnits="userSpaceOnUse">
<stop stop-color="white" stop-opacity="0.25"/>
<stop offset="0.9999" stop-color="white" stop-opacity="0.0175"/>
<stop offset="1" stop-color="white" stop-opacity="0"/>
</linearGradient>
<linearGradient id="paint6_linear_383_465" x1="72.8353" y1="80.0898" x2="103.548" y2="66.4162" gradientUnits="userSpaceOnUse">
<stop stop-color="white"/>
<stop offset="1" stop-color="white" stop-opacity="0.2"/>
</linearGradient>
<linearGradient id="paint7_linear_383_465" x1="71.0605" y1="55.3148" x2="85.3604" y2="75.3855" gradientUnits="userSpaceOnUse">
<stop stop-color="white" stop-opacity="0.25"/>
<stop offset="0.9999" stop-color="white" stop-opacity="0.0175"/>
<stop offset="1" stop-color="white" stop-opacity="0"/>
</linearGradient>
<clipPath id="clip0_383_465">
<rect width="22.7143" height="23.2191" fill="white" transform="translate(47 45.0286)"/>
</clipPath>
<clipPath id="clip1_383_465">
<rect width="48.4572" height="49.4667" fill="white" transform="translate(51.5428 42)"/>
</clipPath>
</defs>
</svg>
