<svg width="145" height="101" viewBox="0 0 145 101" fill="none" xmlns="http://www.w3.org/2000/svg">
<path d="M144.9 13.0701C136.08 20.1401 127.68 19.2001 121.55 18.5201C116.05 17.9101 113.47 17.7501 109.97 20.5501C106.48 23.3501 106.06 25.9001 105.46 31.4101C104.79 37.5401 103.87 45.9401 95.05 53.0101C86.23 60.0801 77.83 59.1401 71.7 58.4601C66.2 57.8501 63.62 57.6901 60.12 60.4901C56.63 63.2901 56.21 65.8401 55.61 71.3401C54.94 77.4701 54.02 85.8701 45.2 92.9401C36.38 100.01 27.98 99.0701 21.85 98.3901C16.35 97.7801 13.77 97.6201 10.27 100.42L0.27002 87.9301C9.09002 80.8601 17.49 81.8001 23.62 82.4801C29.12 83.0901 31.7 83.2501 35.2 80.4501C38.69 77.6501 39.11 75.1001 39.71 69.6001C40.38 63.4701 41.3 55.0701 50.12 48.0001C58.94 40.9301 67.34 41.8701 73.47 42.5501C78.97 43.1601 81.55 43.3201 85.05 40.5201C88.55 37.7201 88.96 35.1701 89.56 29.6601C90.23 23.5301 91.15 15.1301 99.97 8.06007C108.79 0.990074 117.19 1.93008 123.32 2.61008C128.82 3.22008 131.4 3.38008 134.9 0.580078L144.9 13.0701Z" fill="#005AEE"/>
</svg>
