<svg width="145" height="101" viewBox="0 0 145 101" fill="none" xmlns="http://www.w3.org/2000/svg">
<path d="M-0.000244141 13.0701C8.81976 20.1401 17.2198 19.2001 23.3498 18.5201C28.8498 17.9101 31.4297 17.7501 34.9297 20.5501C38.4197 23.3501 38.8398 25.9001 39.4398 31.4101C40.1098 37.5401 41.0298 45.9401 49.8498 53.0101C58.6698 60.0801 67.0698 59.1401 73.1998 58.4601C78.6998 57.8501 81.2798 57.6901 84.7798 60.4901C88.2698 63.2901 88.6898 65.8401 89.2898 71.3401C89.9598 77.4701 90.8798 85.8701 99.6998 92.9401C108.52 100.01 116.92 99.0701 123.05 98.3901C128.55 97.7801 131.13 97.6201 134.63 100.42L144.63 87.9301C135.81 80.8601 127.41 81.8001 121.28 82.4801C115.78 83.0901 113.2 83.2501 109.7 80.4501C106.21 77.6501 105.79 75.1001 105.19 69.6001C104.52 63.4701 103.6 55.0701 94.7798 48.0001C85.9598 40.9301 77.5597 41.8701 71.4297 42.5501C65.9297 43.1601 63.3498 43.3201 59.8498 40.5201C56.3498 37.7201 55.9398 35.1701 55.3398 29.6601C54.6698 23.5301 53.7497 15.1301 44.9297 8.06007C36.1097 0.990074 27.7098 1.93008 21.5798 2.61008C16.0798 3.22008 13.4998 3.38008 9.99976 0.580078L-0.000244141 13.0701Z" fill="#005AEE"/>
</svg>
